*
*
G04 PADS 9.5 Build Number: 522968 generated Gerber (RS-274-X) file*
G04 PC Version=2.1*
*
%IN "ATMEGA4809.pcb"*%
*
%MOIN*%
*
%FSLAX35Y35*%
*
*
*
*
G04 PC Standard Apertures*
*
*
G04 Thermal Relief Aperture macro.*
%AMTER*
1,1,$1,0,0*
1,0,$1-$2,0,0*
21,0,$3,$4,0,0,45*
21,0,$3,$4,0,0,135*
%
*
*
G04 Annular Aperture macro.*
%AMANN*
1,1,$1,0,0*
1,0,$2,0,0*
%
*
*
G04 Odd Aperture macro.*
%AMODD*
1,1,$1,0,0*
1,0,$1-0.005,0,0*
%
*
*
G04 PC Custom Aperture Macros*
*
*
*
*
*
*
G04 PC Aperture Table*
*
%ADD010C,0.001*%
%ADD023C,0.01*%
*
*
*
*
G04 PC Circuitry*
G04 Layer Name ATMEGA4809.pcb - circuitry*
%LPD*%
*
*
G04 PC Custom Flashes*
G04 Layer Name ATMEGA4809.pcb - flashes*
%LPD*%
*
*
G04 PC Circuitry*
G04 Layer Name ATMEGA4809.pcb - circuitry*
%LPD*%
*
G54D10*
G54D23*
G01X747260Y334252D02*
X755260D01*
X751260Y330252D02*
Y338252D01*
X754169Y339533D02*
X753260Y336252D01*
X754169Y339533D02*
X755078Y336252D01*
X753601Y337346D02*
X754737D01*
X787260Y334252D02*
X795260D01*
X791260Y330252D02*
Y338252D01*
X794169Y339533D02*
X793260Y336252D01*
X794169Y339533D02*
X795078Y336252D01*
X793601Y337346D02*
X794737D01*
X739504Y310630D02*
X747504D01*
X743504Y306630D02*
Y314630D01*
X745504Y315911D02*
Y312630D01*
Y315911D02*
X746527D01*
X746868Y315755*
X746981Y315599*
X747095Y315286*
Y314974*
X746981Y314661*
X746868Y314505*
X746527Y314349*
X745504D02*
X746527D01*
X746868Y314192*
X746981Y314036*
X747095Y313724*
Y313255*
X746981Y312942*
X746868Y312786*
X746527Y312630*
X745504*
X788717Y310630D02*
X796717D01*
X792717Y306630D02*
Y314630D01*
X794717Y315911D02*
Y312630D01*
Y315911D02*
X795739D01*
X796080Y315755*
X796194Y315599*
X796307Y315286*
Y314974*
X796194Y314661*
X796080Y314505*
X795739Y314349*
X794717D02*
X795739D01*
X796080Y314192*
X796194Y314036*
X796307Y313724*
Y313255*
X796194Y312942*
X796080Y312786*
X795739Y312630*
X794717*
X739504Y290945D02*
X747504D01*
X743504Y286945D02*
Y294945D01*
X745504Y296226D02*
Y292945D01*
Y296226D02*
X746527D01*
X746868Y296070*
X746981Y295914*
X747095Y295601*
Y295289*
X746981Y294976*
X746868Y294820*
X746527Y294664*
X745504D02*
X746527D01*
X746868Y294507*
X746981Y294351*
X747095Y294039*
Y293570*
X746981Y293257*
X746868Y293101*
X746527Y292945*
X745504*
X788717Y290945D02*
X796717D01*
X792717Y286945D02*
Y294945D01*
X794717Y296226D02*
Y292945D01*
Y296226D02*
X795739D01*
X796080Y296070*
X796194Y295914*
X796307Y295601*
Y295289*
X796194Y294976*
X796080Y294820*
X795739Y294664*
X794717D02*
X795739D01*
X796080Y294507*
X796194Y294351*
X796307Y294039*
Y293570*
X796194Y293257*
X796080Y293101*
X795739Y292945*
X794717*
X739504Y255512D02*
X747504D01*
X743504Y251512D02*
Y259512D01*
X745504Y260793D02*
Y257512D01*
Y260793D02*
X746527D01*
X746868Y260637*
X746981Y260481*
X747095Y260168*
Y259856*
X746981Y259543*
X746868Y259387*
X746527Y259231*
X745504D02*
X746527D01*
X746868Y259074*
X746981Y258918*
X747095Y258606*
Y258137*
X746981Y257824*
X746868Y257668*
X746527Y257512*
X745504*
X788717Y255512D02*
X796717D01*
X792717Y251512D02*
Y259512D01*
X794717Y260793D02*
Y257512D01*
Y260793D02*
X795739D01*
X796080Y260637*
X796194Y260481*
X796307Y260168*
Y259856*
X796194Y259543*
X796080Y259387*
X795739Y259231*
X794717D02*
X795739D01*
X796080Y259074*
X796194Y258918*
X796307Y258606*
Y258137*
X796194Y257824*
X796080Y257668*
X795739Y257512*
X794717*
X739504Y235827D02*
X747504D01*
X743504Y231827D02*
Y239827D01*
X745504Y241108D02*
Y237827D01*
Y241108D02*
X746527D01*
X746868Y240952*
X746981Y240796*
X747095Y240483*
Y240171*
X746981Y239858*
X746868Y239702*
X746527Y239546*
X745504D02*
X746527D01*
X746868Y239389*
X746981Y239233*
X747095Y238921*
Y238452*
X746981Y238139*
X746868Y237983*
X746527Y237827*
X745504*
X788717Y235827D02*
X796717D01*
X792717Y231827D02*
Y239827D01*
X794717Y241108D02*
Y237827D01*
Y241108D02*
X795739D01*
X796080Y240952*
X796194Y240796*
X796307Y240483*
Y240171*
X796194Y239858*
X796080Y239702*
X795739Y239546*
X794717D02*
X795739D01*
X796080Y239389*
X796194Y239233*
X796307Y238921*
Y238452*
X796194Y238139*
X796080Y237983*
X795739Y237827*
X794717*
X739504Y200394D02*
X747504D01*
X743504Y196394D02*
Y204394D01*
X745504Y205675D02*
Y202394D01*
Y205675D02*
X746527D01*
X746868Y205519*
X746981Y205362*
X747095Y205050*
Y204737*
X746981Y204425*
X746868Y204269*
X746527Y204112*
X745504D02*
X746527D01*
X746868Y203956*
X746981Y203800*
X747095Y203487*
Y203019*
X746981Y202706*
X746868Y202550*
X746527Y202394*
X745504*
X788717Y200394D02*
X796717D01*
X792717Y196394D02*
Y204394D01*
X794717Y205675D02*
Y202394D01*
Y205675D02*
X795739D01*
X796080Y205519*
X796194Y205362*
X796307Y205050*
Y204737*
X796194Y204425*
X796080Y204269*
X795739Y204112*
X794717D02*
X795739D01*
X796080Y203956*
X796194Y203800*
X796307Y203487*
Y203019*
X796194Y202706*
X796080Y202550*
X795739Y202394*
X794717*
X739504Y180709D02*
X747504D01*
X743504Y176709D02*
Y184709D01*
X745504Y185990D02*
Y182709D01*
Y185990D02*
X746527D01*
X746868Y185834*
X746981Y185677*
X747095Y185365*
Y185052*
X746981Y184740*
X746868Y184584*
X746527Y184427*
X745504D02*
X746527D01*
X746868Y184271*
X746981Y184115*
X747095Y183802*
Y183334*
X746981Y183021*
X746868Y182865*
X746527Y182709*
X745504*
X788717Y180709D02*
X796717D01*
X792717Y176709D02*
Y184709D01*
X794717Y185990D02*
Y182709D01*
Y185990D02*
X795739D01*
X796080Y185834*
X796194Y185677*
X796307Y185365*
Y185052*
X796194Y184740*
X796080Y184584*
X795739Y184427*
X794717D02*
X795739D01*
X796080Y184271*
X796194Y184115*
X796307Y183802*
Y183334*
X796194Y183021*
X796080Y182865*
X795739Y182709*
X794717*
X739504Y145276D02*
X747504D01*
X743504Y141276D02*
Y149276D01*
X745504Y150557D02*
Y147276D01*
Y150557D02*
X746527D01*
X746868Y150401*
X746981Y150244*
X747095Y149932*
Y149619*
X746981Y149307*
X746868Y149151*
X746527Y148994*
X745504D02*
X746527D01*
X746868Y148838*
X746981Y148682*
X747095Y148369*
Y147901*
X746981Y147588*
X746868Y147432*
X746527Y147276*
X745504*
X788717Y145276D02*
X796717D01*
X792717Y141276D02*
Y149276D01*
X794717Y150557D02*
Y147276D01*
Y150557D02*
X795739D01*
X796080Y150401*
X796194Y150244*
X796307Y149932*
Y149619*
X796194Y149307*
X796080Y149151*
X795739Y148994*
X794717D02*
X795739D01*
X796080Y148838*
X796194Y148682*
X796307Y148369*
Y147901*
X796194Y147588*
X796080Y147432*
X795739Y147276*
X794717*
X739504Y125591D02*
X747504D01*
X743504Y121591D02*
Y129591D01*
X745504Y130872D02*
Y127591D01*
Y130872D02*
X746527D01*
X746868Y130716*
X746981Y130559*
X747095Y130247*
Y129934*
X746981Y129622*
X746868Y129466*
X746527Y129309*
X745504D02*
X746527D01*
X746868Y129153*
X746981Y128997*
X747095Y128684*
Y128216*
X746981Y127903*
X746868Y127747*
X746527Y127591*
X745504*
X788717Y125591D02*
X796717D01*
X792717Y121591D02*
Y129591D01*
X794717Y130872D02*
Y127591D01*
Y130872D02*
X795739D01*
X796080Y130716*
X796194Y130559*
X796307Y130247*
Y129934*
X796194Y129622*
X796080Y129466*
X795739Y129309*
X794717D02*
X795739D01*
X796080Y129153*
X796194Y128997*
X796307Y128684*
Y128216*
X796194Y127903*
X796080Y127747*
X795739Y127591*
X794717*
X728756Y379921D02*
X736756D01*
X732756Y375921D02*
Y383921D01*
X735665Y385203D02*
X734756Y381921D01*
X735665Y385203D02*
X736574Y381921D01*
X735097Y383015D02*
X736233D01*
X738756Y379921D02*
X746756D01*
X742756Y375921D02*
Y383921D01*
X745665Y385203D02*
X744756Y381921D01*
X745665Y385203D02*
X746574Y381921D01*
X745097Y383015D02*
X746233D01*
X748756Y379921D02*
X756756D01*
X752756Y375921D02*
Y383921D01*
X755665Y385203D02*
X754756Y381921D01*
X755665Y385203D02*
X756574Y381921D01*
X755097Y383015D02*
X756233D01*
X758756Y379921D02*
X766756D01*
X762756Y375921D02*
Y383921D01*
X765665Y385203D02*
X764756Y381921D01*
X765665Y385203D02*
X766574Y381921D01*
X765097Y383015D02*
X766233D01*
X768756Y379921D02*
X776756D01*
X772756Y375921D02*
Y383921D01*
X775665Y385203D02*
X774756Y381921D01*
X775665Y385203D02*
X776574Y381921D01*
X775097Y383015D02*
X776233D01*
X768756Y439921D02*
X776756D01*
X772756Y435921D02*
Y443921D01*
X775665Y445203D02*
X774756Y441921D01*
X775665Y445203D02*
X776574Y441921D01*
X775097Y443015D02*
X776233D01*
X758756Y439921D02*
X766756D01*
X762756Y435921D02*
Y443921D01*
X765665Y445203D02*
X764756Y441921D01*
X765665Y445203D02*
X766574Y441921D01*
X765097Y443015D02*
X766233D01*
X748756Y439921D02*
X756756D01*
X752756Y435921D02*
Y443921D01*
X755665Y445203D02*
X754756Y441921D01*
X755665Y445203D02*
X756574Y441921D01*
X755097Y443015D02*
X756233D01*
X738756Y439921D02*
X746756D01*
X742756Y435921D02*
Y443921D01*
X745665Y445203D02*
X744756Y441921D01*
X745665Y445203D02*
X746574Y441921D01*
X745097Y443015D02*
X746233D01*
X728756Y439921D02*
X736756D01*
X732756Y435921D02*
Y443921D01*
X735665Y445203D02*
X734756Y441921D01*
X735665Y445203D02*
X736574Y441921D01*
X735097Y443015D02*
X736233D01*
X684268Y334252D02*
X692268D01*
X688268Y330252D02*
Y338252D01*
X691177Y339533D02*
X690268Y336252D01*
X691177Y339533D02*
X692086Y336252D01*
X690609Y337346D02*
X691745D01*
X724268Y334252D02*
X732268D01*
X728268Y330252D02*
Y338252D01*
X731177Y339533D02*
X730268Y336252D01*
X731177Y339533D02*
X732086Y336252D01*
X730609Y337346D02*
X731745D01*
X676512Y310630D02*
X684512D01*
X680512Y306630D02*
Y314630D01*
X682512Y315911D02*
Y312630D01*
Y315911D02*
X683535D01*
X683875Y315755*
X683989Y315599*
X684103Y315286*
Y314974*
X683989Y314661*
X683875Y314505*
X683535Y314349*
X682512D02*
X683535D01*
X683875Y314192*
X683989Y314036*
X684103Y313724*
Y313255*
X683989Y312942*
X683875Y312786*
X683535Y312630*
X682512*
X725724Y310630D02*
X733724D01*
X729724Y306630D02*
Y314630D01*
X731724Y315911D02*
Y312630D01*
Y315911D02*
X732747D01*
X733088Y315755*
X733202Y315599*
X733315Y315286*
Y314974*
X733202Y314661*
X733088Y314505*
X732747Y314349*
X731724D02*
X732747D01*
X733088Y314192*
X733202Y314036*
X733315Y313724*
Y313255*
X733202Y312942*
X733088Y312786*
X732747Y312630*
X731724*
X676512Y290945D02*
X684512D01*
X680512Y286945D02*
Y294945D01*
X682512Y296226D02*
Y292945D01*
Y296226D02*
X683535D01*
X683875Y296070*
X683989Y295914*
X684103Y295601*
Y295289*
X683989Y294976*
X683875Y294820*
X683535Y294664*
X682512D02*
X683535D01*
X683875Y294507*
X683989Y294351*
X684103Y294039*
Y293570*
X683989Y293257*
X683875Y293101*
X683535Y292945*
X682512*
X725724Y290945D02*
X733724D01*
X729724Y286945D02*
Y294945D01*
X731724Y296226D02*
Y292945D01*
Y296226D02*
X732747D01*
X733088Y296070*
X733202Y295914*
X733315Y295601*
Y295289*
X733202Y294976*
X733088Y294820*
X732747Y294664*
X731724D02*
X732747D01*
X733088Y294507*
X733202Y294351*
X733315Y294039*
Y293570*
X733202Y293257*
X733088Y293101*
X732747Y292945*
X731724*
X676512Y255512D02*
X684512D01*
X680512Y251512D02*
Y259512D01*
X682512Y260793D02*
Y257512D01*
Y260793D02*
X683535D01*
X683875Y260637*
X683989Y260481*
X684103Y260168*
Y259856*
X683989Y259543*
X683875Y259387*
X683535Y259231*
X682512D02*
X683535D01*
X683875Y259074*
X683989Y258918*
X684103Y258606*
Y258137*
X683989Y257824*
X683875Y257668*
X683535Y257512*
X682512*
X725724Y255512D02*
X733724D01*
X729724Y251512D02*
Y259512D01*
X731724Y260793D02*
Y257512D01*
Y260793D02*
X732747D01*
X733088Y260637*
X733202Y260481*
X733315Y260168*
Y259856*
X733202Y259543*
X733088Y259387*
X732747Y259231*
X731724D02*
X732747D01*
X733088Y259074*
X733202Y258918*
X733315Y258606*
Y258137*
X733202Y257824*
X733088Y257668*
X732747Y257512*
X731724*
X676512Y235827D02*
X684512D01*
X680512Y231827D02*
Y239827D01*
X682512Y241108D02*
Y237827D01*
Y241108D02*
X683535D01*
X683875Y240952*
X683989Y240796*
X684103Y240483*
Y240171*
X683989Y239858*
X683875Y239702*
X683535Y239546*
X682512D02*
X683535D01*
X683875Y239389*
X683989Y239233*
X684103Y238921*
Y238452*
X683989Y238139*
X683875Y237983*
X683535Y237827*
X682512*
X725724Y235827D02*
X733724D01*
X729724Y231827D02*
Y239827D01*
X731724Y241108D02*
Y237827D01*
Y241108D02*
X732747D01*
X733088Y240952*
X733202Y240796*
X733315Y240483*
Y240171*
X733202Y239858*
X733088Y239702*
X732747Y239546*
X731724D02*
X732747D01*
X733088Y239389*
X733202Y239233*
X733315Y238921*
Y238452*
X733202Y238139*
X733088Y237983*
X732747Y237827*
X731724*
X676512Y200394D02*
X684512D01*
X680512Y196394D02*
Y204394D01*
X682512Y205675D02*
Y202394D01*
Y205675D02*
X683535D01*
X683875Y205519*
X683989Y205362*
X684103Y205050*
Y204737*
X683989Y204425*
X683875Y204269*
X683535Y204112*
X682512D02*
X683535D01*
X683875Y203956*
X683989Y203800*
X684103Y203487*
Y203019*
X683989Y202706*
X683875Y202550*
X683535Y202394*
X682512*
X725724Y200394D02*
X733724D01*
X729724Y196394D02*
Y204394D01*
X731724Y205675D02*
Y202394D01*
Y205675D02*
X732747D01*
X733088Y205519*
X733202Y205362*
X733315Y205050*
Y204737*
X733202Y204425*
X733088Y204269*
X732747Y204112*
X731724D02*
X732747D01*
X733088Y203956*
X733202Y203800*
X733315Y203487*
Y203019*
X733202Y202706*
X733088Y202550*
X732747Y202394*
X731724*
X676512Y180709D02*
X684512D01*
X680512Y176709D02*
Y184709D01*
X682512Y185990D02*
Y182709D01*
Y185990D02*
X683535D01*
X683875Y185834*
X683989Y185677*
X684103Y185365*
Y185052*
X683989Y184740*
X683875Y184584*
X683535Y184427*
X682512D02*
X683535D01*
X683875Y184271*
X683989Y184115*
X684103Y183802*
Y183334*
X683989Y183021*
X683875Y182865*
X683535Y182709*
X682512*
X725724Y180709D02*
X733724D01*
X729724Y176709D02*
Y184709D01*
X731724Y185990D02*
Y182709D01*
Y185990D02*
X732747D01*
X733088Y185834*
X733202Y185677*
X733315Y185365*
Y185052*
X733202Y184740*
X733088Y184584*
X732747Y184427*
X731724D02*
X732747D01*
X733088Y184271*
X733202Y184115*
X733315Y183802*
Y183334*
X733202Y183021*
X733088Y182865*
X732747Y182709*
X731724*
X676512Y145276D02*
X684512D01*
X680512Y141276D02*
Y149276D01*
X682512Y150557D02*
Y147276D01*
Y150557D02*
X683535D01*
X683875Y150401*
X683989Y150244*
X684103Y149932*
Y149619*
X683989Y149307*
X683875Y149151*
X683535Y148994*
X682512D02*
X683535D01*
X683875Y148838*
X683989Y148682*
X684103Y148369*
Y147901*
X683989Y147588*
X683875Y147432*
X683535Y147276*
X682512*
X725724Y145276D02*
X733724D01*
X729724Y141276D02*
Y149276D01*
X731724Y150557D02*
Y147276D01*
Y150557D02*
X732747D01*
X733088Y150401*
X733202Y150244*
X733315Y149932*
Y149619*
X733202Y149307*
X733088Y149151*
X732747Y148994*
X731724D02*
X732747D01*
X733088Y148838*
X733202Y148682*
X733315Y148369*
Y147901*
X733202Y147588*
X733088Y147432*
X732747Y147276*
X731724*
X676512Y125591D02*
X684512D01*
X680512Y121591D02*
Y129591D01*
X682512Y130872D02*
Y127591D01*
Y130872D02*
X683535D01*
X683875Y130716*
X683989Y130559*
X684103Y130247*
Y129934*
X683989Y129622*
X683875Y129466*
X683535Y129309*
X682512D02*
X683535D01*
X683875Y129153*
X683989Y128997*
X684103Y128684*
Y128216*
X683989Y127903*
X683875Y127747*
X683535Y127591*
X682512*
X725724Y125591D02*
X733724D01*
X729724Y121591D02*
Y129591D01*
X731724Y130872D02*
Y127591D01*
Y130872D02*
X732747D01*
X733088Y130716*
X733202Y130559*
X733315Y130247*
Y129934*
X733202Y129622*
X733088Y129466*
X732747Y129309*
X731724D02*
X732747D01*
X733088Y129153*
X733202Y128997*
X733315Y128684*
Y128216*
X733202Y127903*
X733088Y127747*
X732747Y127591*
X731724*
X679150Y379921D02*
X687150D01*
X683150Y375921D02*
Y383921D01*
X686059Y385203D02*
X685150Y381921D01*
X686059Y385203D02*
X686968Y381921D01*
X685491Y383015D02*
X686627D01*
X689150Y379921D02*
X697150D01*
X693150Y375921D02*
Y383921D01*
X696059Y385203D02*
X695150Y381921D01*
X696059Y385203D02*
X696968Y381921D01*
X695491Y383015D02*
X696627D01*
X699150Y379921D02*
X707150D01*
X703150Y375921D02*
Y383921D01*
X706059Y385203D02*
X705150Y381921D01*
X706059Y385203D02*
X706968Y381921D01*
X705491Y383015D02*
X706627D01*
X709150Y379921D02*
X717150D01*
X713150Y375921D02*
Y383921D01*
X716059Y385203D02*
X715150Y381921D01*
X716059Y385203D02*
X716968Y381921D01*
X715491Y383015D02*
X716627D01*
X719150Y379921D02*
X727150D01*
X723150Y375921D02*
Y383921D01*
X726059Y385203D02*
X725150Y381921D01*
X726059Y385203D02*
X726968Y381921D01*
X725491Y383015D02*
X726627D01*
X719150Y439921D02*
X727150D01*
X723150Y435921D02*
Y443921D01*
X726059Y445203D02*
X725150Y441921D01*
X726059Y445203D02*
X726968Y441921D01*
X725491Y443015D02*
X726627D01*
X709150Y439921D02*
X717150D01*
X713150Y435921D02*
Y443921D01*
X716059Y445203D02*
X715150Y441921D01*
X716059Y445203D02*
X716968Y441921D01*
X715491Y443015D02*
X716627D01*
X699150Y439921D02*
X707150D01*
X703150Y435921D02*
Y443921D01*
X706059Y445203D02*
X705150Y441921D01*
X706059Y445203D02*
X706968Y441921D01*
X705491Y443015D02*
X706627D01*
X689150Y439921D02*
X697150D01*
X693150Y435921D02*
Y443921D01*
X696059Y445203D02*
X695150Y441921D01*
X696059Y445203D02*
X696968Y441921D01*
X695491Y443015D02*
X696627D01*
X679150Y439921D02*
X687150D01*
X683150Y435921D02*
Y443921D01*
X686059Y445203D02*
X685150Y441921D01*
X686059Y445203D02*
X686968Y441921D01*
X685491Y443015D02*
X686627D01*
X621276Y334252D02*
X629276D01*
X625276Y330252D02*
Y338252D01*
X628185Y339533D02*
X627276Y336252D01*
X628185Y339533D02*
X629094Y336252D01*
X627616Y337346D02*
X628753D01*
X661276Y334252D02*
X669276D01*
X665276Y330252D02*
Y338252D01*
X668185Y339533D02*
X667276Y336252D01*
X668185Y339533D02*
X669094Y336252D01*
X667616Y337346D02*
X668753D01*
X629543Y379921D02*
X637543D01*
X633543Y375921D02*
Y383921D01*
X636452Y385203D02*
X635543Y381921D01*
X636452Y385203D02*
X637361Y381921D01*
X635884Y383015D02*
X637021D01*
X639543Y379921D02*
X647543D01*
X643543Y375921D02*
Y383921D01*
X646452Y385203D02*
X645543Y381921D01*
X646452Y385203D02*
X647361Y381921D01*
X645884Y383015D02*
X647021D01*
X649543Y379921D02*
X657543D01*
X653543Y375921D02*
Y383921D01*
X656452Y385203D02*
X655543Y381921D01*
X656452Y385203D02*
X657361Y381921D01*
X655884Y383015D02*
X657021D01*
X659543Y379921D02*
X667543D01*
X663543Y375921D02*
Y383921D01*
X666452Y385203D02*
X665543Y381921D01*
X666452Y385203D02*
X667361Y381921D01*
X665884Y383015D02*
X667021D01*
X669543Y379921D02*
X677543D01*
X673543Y375921D02*
Y383921D01*
X676452Y385203D02*
X675543Y381921D01*
X676452Y385203D02*
X677361Y381921D01*
X675884Y383015D02*
X677021D01*
X669543Y439921D02*
X677543D01*
X673543Y435921D02*
Y443921D01*
X676452Y445203D02*
X675543Y441921D01*
X676452Y445203D02*
X677361Y441921D01*
X675884Y443015D02*
X677021D01*
X659543Y439921D02*
X667543D01*
X663543Y435921D02*
Y443921D01*
X666452Y445203D02*
X665543Y441921D01*
X666452Y445203D02*
X667361Y441921D01*
X665884Y443015D02*
X667021D01*
X649543Y439921D02*
X657543D01*
X653543Y435921D02*
Y443921D01*
X656452Y445203D02*
X655543Y441921D01*
X656452Y445203D02*
X657361Y441921D01*
X655884Y443015D02*
X657021D01*
X639543Y439921D02*
X647543D01*
X643543Y435921D02*
Y443921D01*
X646452Y445203D02*
X645543Y441921D01*
X646452Y445203D02*
X647361Y441921D01*
X645884Y443015D02*
X647021D01*
X629543Y439921D02*
X637543D01*
X633543Y435921D02*
Y443921D01*
X636452Y445203D02*
X635543Y441921D01*
X636452Y445203D02*
X637361Y441921D01*
X635884Y443015D02*
X637021D01*
X613520Y310630D02*
X621520D01*
X617520Y306630D02*
Y314630D01*
X619520Y315911D02*
Y312630D01*
Y315911D02*
X620542D01*
X620883Y315755*
X620997Y315599*
X621111Y315286*
Y314974*
X620997Y314661*
X620883Y314505*
X620542Y314349*
X619520D02*
X620542D01*
X620883Y314192*
X620997Y314036*
X621111Y313724*
Y313255*
X620997Y312942*
X620883Y312786*
X620542Y312630*
X619520*
X662732Y310630D02*
X670732D01*
X666732Y306630D02*
Y314630D01*
X668732Y315911D02*
Y312630D01*
Y315911D02*
X669755D01*
X670096Y315755*
X670210Y315599*
X670323Y315286*
Y314974*
X670210Y314661*
X670096Y314505*
X669755Y314349*
X668732D02*
X669755D01*
X670096Y314192*
X670210Y314036*
X670323Y313724*
Y313255*
X670210Y312942*
X670096Y312786*
X669755Y312630*
X668732*
X613520Y290945D02*
X621520D01*
X617520Y286945D02*
Y294945D01*
X619520Y296226D02*
Y292945D01*
Y296226D02*
X620542D01*
X620883Y296070*
X620997Y295914*
X621111Y295601*
Y295289*
X620997Y294976*
X620883Y294820*
X620542Y294664*
X619520D02*
X620542D01*
X620883Y294507*
X620997Y294351*
X621111Y294039*
Y293570*
X620997Y293257*
X620883Y293101*
X620542Y292945*
X619520*
X662732Y290945D02*
X670732D01*
X666732Y286945D02*
Y294945D01*
X668732Y296226D02*
Y292945D01*
Y296226D02*
X669755D01*
X670096Y296070*
X670210Y295914*
X670323Y295601*
Y295289*
X670210Y294976*
X670096Y294820*
X669755Y294664*
X668732D02*
X669755D01*
X670096Y294507*
X670210Y294351*
X670323Y294039*
Y293570*
X670210Y293257*
X670096Y293101*
X669755Y292945*
X668732*
X613520Y255512D02*
X621520D01*
X617520Y251512D02*
Y259512D01*
X619520Y260793D02*
Y257512D01*
Y260793D02*
X620542D01*
X620883Y260637*
X620997Y260481*
X621111Y260168*
Y259856*
X620997Y259543*
X620883Y259387*
X620542Y259231*
X619520D02*
X620542D01*
X620883Y259074*
X620997Y258918*
X621111Y258606*
Y258137*
X620997Y257824*
X620883Y257668*
X620542Y257512*
X619520*
X662732Y255512D02*
X670732D01*
X666732Y251512D02*
Y259512D01*
X668732Y260793D02*
Y257512D01*
Y260793D02*
X669755D01*
X670096Y260637*
X670210Y260481*
X670323Y260168*
Y259856*
X670210Y259543*
X670096Y259387*
X669755Y259231*
X668732D02*
X669755D01*
X670096Y259074*
X670210Y258918*
X670323Y258606*
Y258137*
X670210Y257824*
X670096Y257668*
X669755Y257512*
X668732*
X613520Y235827D02*
X621520D01*
X617520Y231827D02*
Y239827D01*
X619520Y241108D02*
Y237827D01*
Y241108D02*
X620542D01*
X620883Y240952*
X620997Y240796*
X621111Y240483*
Y240171*
X620997Y239858*
X620883Y239702*
X620542Y239546*
X619520D02*
X620542D01*
X620883Y239389*
X620997Y239233*
X621111Y238921*
Y238452*
X620997Y238139*
X620883Y237983*
X620542Y237827*
X619520*
X662732Y235827D02*
X670732D01*
X666732Y231827D02*
Y239827D01*
X668732Y241108D02*
Y237827D01*
Y241108D02*
X669755D01*
X670096Y240952*
X670210Y240796*
X670323Y240483*
Y240171*
X670210Y239858*
X670096Y239702*
X669755Y239546*
X668732D02*
X669755D01*
X670096Y239389*
X670210Y239233*
X670323Y238921*
Y238452*
X670210Y238139*
X670096Y237983*
X669755Y237827*
X668732*
X613520Y200394D02*
X621520D01*
X617520Y196394D02*
Y204394D01*
X619520Y205675D02*
Y202394D01*
Y205675D02*
X620542D01*
X620883Y205519*
X620997Y205362*
X621111Y205050*
Y204737*
X620997Y204425*
X620883Y204269*
X620542Y204112*
X619520D02*
X620542D01*
X620883Y203956*
X620997Y203800*
X621111Y203487*
Y203019*
X620997Y202706*
X620883Y202550*
X620542Y202394*
X619520*
X662732Y200394D02*
X670732D01*
X666732Y196394D02*
Y204394D01*
X668732Y205675D02*
Y202394D01*
Y205675D02*
X669755D01*
X670096Y205519*
X670210Y205362*
X670323Y205050*
Y204737*
X670210Y204425*
X670096Y204269*
X669755Y204112*
X668732D02*
X669755D01*
X670096Y203956*
X670210Y203800*
X670323Y203487*
Y203019*
X670210Y202706*
X670096Y202550*
X669755Y202394*
X668732*
X613520Y180709D02*
X621520D01*
X617520Y176709D02*
Y184709D01*
X619520Y185990D02*
Y182709D01*
Y185990D02*
X620542D01*
X620883Y185834*
X620997Y185677*
X621111Y185365*
Y185052*
X620997Y184740*
X620883Y184584*
X620542Y184427*
X619520D02*
X620542D01*
X620883Y184271*
X620997Y184115*
X621111Y183802*
Y183334*
X620997Y183021*
X620883Y182865*
X620542Y182709*
X619520*
X662732Y180709D02*
X670732D01*
X666732Y176709D02*
Y184709D01*
X668732Y185990D02*
Y182709D01*
Y185990D02*
X669755D01*
X670096Y185834*
X670210Y185677*
X670323Y185365*
Y185052*
X670210Y184740*
X670096Y184584*
X669755Y184427*
X668732D02*
X669755D01*
X670096Y184271*
X670210Y184115*
X670323Y183802*
Y183334*
X670210Y183021*
X670096Y182865*
X669755Y182709*
X668732*
X613520Y145276D02*
X621520D01*
X617520Y141276D02*
Y149276D01*
X619520Y150557D02*
Y147276D01*
Y150557D02*
X620542D01*
X620883Y150401*
X620997Y150244*
X621111Y149932*
Y149619*
X620997Y149307*
X620883Y149151*
X620542Y148994*
X619520D02*
X620542D01*
X620883Y148838*
X620997Y148682*
X621111Y148369*
Y147901*
X620997Y147588*
X620883Y147432*
X620542Y147276*
X619520*
X662732Y145276D02*
X670732D01*
X666732Y141276D02*
Y149276D01*
X668732Y150557D02*
Y147276D01*
Y150557D02*
X669755D01*
X670096Y150401*
X670210Y150244*
X670323Y149932*
Y149619*
X670210Y149307*
X670096Y149151*
X669755Y148994*
X668732D02*
X669755D01*
X670096Y148838*
X670210Y148682*
X670323Y148369*
Y147901*
X670210Y147588*
X670096Y147432*
X669755Y147276*
X668732*
X613520Y125591D02*
X621520D01*
X617520Y121591D02*
Y129591D01*
X619520Y130872D02*
Y127591D01*
Y130872D02*
X620542D01*
X620883Y130716*
X620997Y130559*
X621111Y130247*
Y129934*
X620997Y129622*
X620883Y129466*
X620542Y129309*
X619520D02*
X620542D01*
X620883Y129153*
X620997Y128997*
X621111Y128684*
Y128216*
X620997Y127903*
X620883Y127747*
X620542Y127591*
X619520*
X662732Y125591D02*
X670732D01*
X666732Y121591D02*
Y129591D01*
X668732Y130872D02*
Y127591D01*
Y130872D02*
X669755D01*
X670096Y130716*
X670210Y130559*
X670323Y130247*
Y129934*
X670210Y129622*
X670096Y129466*
X669755Y129309*
X668732D02*
X669755D01*
X670096Y129153*
X670210Y128997*
X670323Y128684*
Y128216*
X670210Y127903*
X670096Y127747*
X669755Y127591*
X668732*
X579937Y379921D02*
X587937D01*
X583937Y375921D02*
Y383921D01*
X586846Y385203D02*
X585937Y381921D01*
X586846Y385203D02*
X587755Y381921D01*
X586278Y383015D02*
X587414D01*
X589937Y379921D02*
X597937D01*
X593937Y375921D02*
Y383921D01*
X596846Y385203D02*
X595937Y381921D01*
X596846Y385203D02*
X597755Y381921D01*
X596278Y383015D02*
X597414D01*
X599937Y379921D02*
X607937D01*
X603937Y375921D02*
Y383921D01*
X606846Y385203D02*
X605937Y381921D01*
X606846Y385203D02*
X607755Y381921D01*
X606278Y383015D02*
X607414D01*
X609937Y379921D02*
X617937D01*
X613937Y375921D02*
Y383921D01*
X616846Y385203D02*
X615937Y381921D01*
X616846Y385203D02*
X617755Y381921D01*
X616278Y383015D02*
X617414D01*
X619937Y379921D02*
X627937D01*
X623937Y375921D02*
Y383921D01*
X626846Y385203D02*
X625937Y381921D01*
X626846Y385203D02*
X627755Y381921D01*
X626278Y383015D02*
X627414D01*
X619937Y439921D02*
X627937D01*
X623937Y435921D02*
Y443921D01*
X626846Y445203D02*
X625937Y441921D01*
X626846Y445203D02*
X627755Y441921D01*
X626278Y443015D02*
X627414D01*
X609937Y439921D02*
X617937D01*
X613937Y435921D02*
Y443921D01*
X616846Y445203D02*
X615937Y441921D01*
X616846Y445203D02*
X617755Y441921D01*
X616278Y443015D02*
X617414D01*
X599937Y439921D02*
X607937D01*
X603937Y435921D02*
Y443921D01*
X606846Y445203D02*
X605937Y441921D01*
X606846Y445203D02*
X607755Y441921D01*
X606278Y443015D02*
X607414D01*
X589937Y439921D02*
X597937D01*
X593937Y435921D02*
Y443921D01*
X596846Y445203D02*
X595937Y441921D01*
X596846Y445203D02*
X597755Y441921D01*
X596278Y443015D02*
X597414D01*
X579937Y439921D02*
X587937D01*
X583937Y435921D02*
Y443921D01*
X586846Y445203D02*
X585937Y441921D01*
X586846Y445203D02*
X587755Y441921D01*
X586278Y443015D02*
X587414D01*
X558283Y334252D02*
X566283D01*
X562283Y330252D02*
Y338252D01*
X565193Y339533D02*
X564283Y336252D01*
X565193Y339533D02*
X566102Y336252D01*
X564624Y337346D02*
X565761D01*
X598283Y334252D02*
X606283D01*
X602283Y330252D02*
Y338252D01*
X605193Y339533D02*
X604283Y336252D01*
X605193Y339533D02*
X606102Y336252D01*
X604624Y337346D02*
X605761D01*
X550528Y310630D02*
X558528D01*
X554528Y306630D02*
Y314630D01*
X556528Y315911D02*
Y312630D01*
Y315911D02*
X557550D01*
X557891Y315755*
X558005Y315599*
X558118Y315286*
Y314974*
X558005Y314661*
X557891Y314505*
X557550Y314349*
X556528D02*
X557550D01*
X557891Y314192*
X558005Y314036*
X558118Y313724*
Y313255*
X558005Y312942*
X557891Y312786*
X557550Y312630*
X556528*
X599740Y310630D02*
X607740D01*
X603740Y306630D02*
Y314630D01*
X605740Y315911D02*
Y312630D01*
Y315911D02*
X606763D01*
X607104Y315755*
X607217Y315599*
X607331Y315286*
Y314974*
X607217Y314661*
X607104Y314505*
X606763Y314349*
X605740D02*
X606763D01*
X607104Y314192*
X607217Y314036*
X607331Y313724*
Y313255*
X607217Y312942*
X607104Y312786*
X606763Y312630*
X605740*
X550528Y290945D02*
X558528D01*
X554528Y286945D02*
Y294945D01*
X556528Y296226D02*
Y292945D01*
Y296226D02*
X557550D01*
X557891Y296070*
X558005Y295914*
X558118Y295601*
Y295289*
X558005Y294976*
X557891Y294820*
X557550Y294664*
X556528D02*
X557550D01*
X557891Y294507*
X558005Y294351*
X558118Y294039*
Y293570*
X558005Y293257*
X557891Y293101*
X557550Y292945*
X556528*
X599740Y290945D02*
X607740D01*
X603740Y286945D02*
Y294945D01*
X605740Y296226D02*
Y292945D01*
Y296226D02*
X606763D01*
X607104Y296070*
X607217Y295914*
X607331Y295601*
Y295289*
X607217Y294976*
X607104Y294820*
X606763Y294664*
X605740D02*
X606763D01*
X607104Y294507*
X607217Y294351*
X607331Y294039*
Y293570*
X607217Y293257*
X607104Y293101*
X606763Y292945*
X605740*
X550528Y255512D02*
X558528D01*
X554528Y251512D02*
Y259512D01*
X556528Y260793D02*
Y257512D01*
Y260793D02*
X557550D01*
X557891Y260637*
X558005Y260481*
X558118Y260168*
Y259856*
X558005Y259543*
X557891Y259387*
X557550Y259231*
X556528D02*
X557550D01*
X557891Y259074*
X558005Y258918*
X558118Y258606*
Y258137*
X558005Y257824*
X557891Y257668*
X557550Y257512*
X556528*
X599740Y255512D02*
X607740D01*
X603740Y251512D02*
Y259512D01*
X605740Y260793D02*
Y257512D01*
Y260793D02*
X606763D01*
X607104Y260637*
X607217Y260481*
X607331Y260168*
Y259856*
X607217Y259543*
X607104Y259387*
X606763Y259231*
X605740D02*
X606763D01*
X607104Y259074*
X607217Y258918*
X607331Y258606*
Y258137*
X607217Y257824*
X607104Y257668*
X606763Y257512*
X605740*
X550528Y235827D02*
X558528D01*
X554528Y231827D02*
Y239827D01*
X556528Y241108D02*
Y237827D01*
Y241108D02*
X557550D01*
X557891Y240952*
X558005Y240796*
X558118Y240483*
Y240171*
X558005Y239858*
X557891Y239702*
X557550Y239546*
X556528D02*
X557550D01*
X557891Y239389*
X558005Y239233*
X558118Y238921*
Y238452*
X558005Y238139*
X557891Y237983*
X557550Y237827*
X556528*
X599740Y235827D02*
X607740D01*
X603740Y231827D02*
Y239827D01*
X605740Y241108D02*
Y237827D01*
Y241108D02*
X606763D01*
X607104Y240952*
X607217Y240796*
X607331Y240483*
Y240171*
X607217Y239858*
X607104Y239702*
X606763Y239546*
X605740D02*
X606763D01*
X607104Y239389*
X607217Y239233*
X607331Y238921*
Y238452*
X607217Y238139*
X607104Y237983*
X606763Y237827*
X605740*
X550528Y200394D02*
X558528D01*
X554528Y196394D02*
Y204394D01*
X556528Y205675D02*
Y202394D01*
Y205675D02*
X557550D01*
X557891Y205519*
X558005Y205362*
X558118Y205050*
Y204737*
X558005Y204425*
X557891Y204269*
X557550Y204112*
X556528D02*
X557550D01*
X557891Y203956*
X558005Y203800*
X558118Y203487*
Y203019*
X558005Y202706*
X557891Y202550*
X557550Y202394*
X556528*
X599740Y200394D02*
X607740D01*
X603740Y196394D02*
Y204394D01*
X605740Y205675D02*
Y202394D01*
Y205675D02*
X606763D01*
X607104Y205519*
X607217Y205362*
X607331Y205050*
Y204737*
X607217Y204425*
X607104Y204269*
X606763Y204112*
X605740D02*
X606763D01*
X607104Y203956*
X607217Y203800*
X607331Y203487*
Y203019*
X607217Y202706*
X607104Y202550*
X606763Y202394*
X605740*
X550528Y180709D02*
X558528D01*
X554528Y176709D02*
Y184709D01*
X556528Y185990D02*
Y182709D01*
Y185990D02*
X557550D01*
X557891Y185834*
X558005Y185677*
X558118Y185365*
Y185052*
X558005Y184740*
X557891Y184584*
X557550Y184427*
X556528D02*
X557550D01*
X557891Y184271*
X558005Y184115*
X558118Y183802*
Y183334*
X558005Y183021*
X557891Y182865*
X557550Y182709*
X556528*
X599740Y180709D02*
X607740D01*
X603740Y176709D02*
Y184709D01*
X605740Y185990D02*
Y182709D01*
Y185990D02*
X606763D01*
X607104Y185834*
X607217Y185677*
X607331Y185365*
Y185052*
X607217Y184740*
X607104Y184584*
X606763Y184427*
X605740D02*
X606763D01*
X607104Y184271*
X607217Y184115*
X607331Y183802*
Y183334*
X607217Y183021*
X607104Y182865*
X606763Y182709*
X605740*
X550528Y145276D02*
X558528D01*
X554528Y141276D02*
Y149276D01*
X556528Y150557D02*
Y147276D01*
Y150557D02*
X557550D01*
X557891Y150401*
X558005Y150244*
X558118Y149932*
Y149619*
X558005Y149307*
X557891Y149151*
X557550Y148994*
X556528D02*
X557550D01*
X557891Y148838*
X558005Y148682*
X558118Y148369*
Y147901*
X558005Y147588*
X557891Y147432*
X557550Y147276*
X556528*
X599740Y145276D02*
X607740D01*
X603740Y141276D02*
Y149276D01*
X605740Y150557D02*
Y147276D01*
Y150557D02*
X606763D01*
X607104Y150401*
X607217Y150244*
X607331Y149932*
Y149619*
X607217Y149307*
X607104Y149151*
X606763Y148994*
X605740D02*
X606763D01*
X607104Y148838*
X607217Y148682*
X607331Y148369*
Y147901*
X607217Y147588*
X607104Y147432*
X606763Y147276*
X605740*
X550528Y125591D02*
X558528D01*
X554528Y121591D02*
Y129591D01*
X556528Y130872D02*
Y127591D01*
Y130872D02*
X557550D01*
X557891Y130716*
X558005Y130559*
X558118Y130247*
Y129934*
X558005Y129622*
X557891Y129466*
X557550Y129309*
X556528D02*
X557550D01*
X557891Y129153*
X558005Y128997*
X558118Y128684*
Y128216*
X558005Y127903*
X557891Y127747*
X557550Y127591*
X556528*
X599740Y125591D02*
X607740D01*
X603740Y121591D02*
Y129591D01*
X605740Y130872D02*
Y127591D01*
Y130872D02*
X606763D01*
X607104Y130716*
X607217Y130559*
X607331Y130247*
Y129934*
X607217Y129622*
X607104Y129466*
X606763Y129309*
X605740D02*
X606763D01*
X607104Y129153*
X607217Y128997*
X607331Y128684*
Y128216*
X607217Y127903*
X607104Y127747*
X606763Y127591*
X605740*
X531827Y285787D02*
X539827D01*
X535827Y281787D02*
Y289787D01*
X538736Y291069D02*
X537827Y287787D01*
X538736Y291069D02*
X539645Y287787D01*
X538168Y288881D02*
X539304D01*
X531827Y315787D02*
X539827D01*
X535827Y311787D02*
Y319787D01*
X538736Y321069D02*
X537827Y317787D01*
X538736Y321069D02*
X539645Y317787D01*
X538168Y318881D02*
X539304D01*
X531827Y242480D02*
X539827D01*
X535827Y238480D02*
Y246480D01*
X538736Y247762D02*
X537827Y244480D01*
X538736Y247762D02*
X539645Y244480D01*
X538168Y245574D02*
X539304D01*
X531827Y272480D02*
X539827D01*
X535827Y268480D02*
Y276480D01*
X538736Y277762D02*
X537827Y274480D01*
X538736Y277762D02*
X539645Y274480D01*
X538168Y275574D02*
X539304D01*
X531827Y152835D02*
X539827D01*
X535827Y148835D02*
Y156835D01*
X538736Y158116D02*
X537827Y154835D01*
X538736Y158116D02*
X539645Y154835D01*
X538168Y155928D02*
X539304D01*
X531827Y192835D02*
X539827D01*
X535827Y188835D02*
Y196835D01*
X538736Y198116D02*
X537827Y194835D01*
X538736Y198116D02*
X539645Y194835D01*
X538168Y195928D02*
X539304D01*
X521709Y218110D02*
X529709D01*
X525709Y214110D02*
Y222110D01*
X528618Y223391D02*
X527709Y220110D01*
X528618Y223391D02*
X529527Y220110D01*
X528050Y221204D02*
X529186D01*
X531709Y218110D02*
X539709D01*
X535709Y214110D02*
Y222110D01*
X538618Y223391D02*
X537709Y220110D01*
X538618Y223391D02*
X539527Y220110D01*
X538050Y221204D02*
X539186D01*
X517260Y285787D02*
X525260D01*
X521260Y281787D02*
Y289787D01*
X524169Y291069D02*
X523260Y287787D01*
X524169Y291069D02*
X525078Y287787D01*
X523601Y288881D02*
X524737D01*
X517260Y315787D02*
X525260D01*
X521260Y311787D02*
Y319787D01*
X524169Y321069D02*
X523260Y317787D01*
X524169Y321069D02*
X525078Y317787D01*
X523601Y318881D02*
X524737D01*
X517260Y242480D02*
X525260D01*
X521260Y238480D02*
Y246480D01*
X524169Y247762D02*
X523260Y244480D01*
X524169Y247762D02*
X525078Y244480D01*
X523601Y245574D02*
X524737D01*
X517260Y272480D02*
X525260D01*
X521260Y268480D02*
Y276480D01*
X524169Y277762D02*
X523260Y274480D01*
X524169Y277762D02*
X525078Y274480D01*
X523601Y275574D02*
X524737D01*
X517260Y152835D02*
X525260D01*
X521260Y148835D02*
Y156835D01*
X524169Y158116D02*
X523260Y154835D01*
X524169Y158116D02*
X525078Y154835D01*
X523601Y155928D02*
X524737D01*
X517260Y192835D02*
X525260D01*
X521260Y188835D02*
Y196835D01*
X524169Y198116D02*
X523260Y194835D01*
X524169Y198116D02*
X525078Y194835D01*
X523601Y195928D02*
X524737D01*
X506551Y610000D02*
X514551D01*
X510551Y606000D02*
Y614000D01*
X513460Y615281D02*
X512551Y612000D01*
X513460Y615281D02*
X514369Y612000D01*
X512892Y613094D02*
X514028D01*
X516551Y610000D02*
X524551D01*
X520551Y606000D02*
Y614000D01*
X523460Y615281D02*
X522551Y612000D01*
X523460Y615281D02*
X524369Y612000D01*
X522892Y613094D02*
X524028D01*
X526551Y610000D02*
X534551D01*
X530551Y606000D02*
Y614000D01*
X533460Y615281D02*
X532551Y612000D01*
X533460Y615281D02*
X534369Y612000D01*
X532892Y613094D02*
X534028D01*
X536551Y610000D02*
X544551D01*
X540551Y606000D02*
Y614000D01*
X543460Y615281D02*
X542551Y612000D01*
X543460Y615281D02*
X544369Y612000D01*
X542892Y613094D02*
X544028D01*
X546551Y610000D02*
X554551D01*
X550551Y606000D02*
Y614000D01*
X553460Y615281D02*
X552551Y612000D01*
X553460Y615281D02*
X554369Y612000D01*
X552892Y613094D02*
X554028D01*
X556551Y610000D02*
X564551D01*
X560551Y606000D02*
Y614000D01*
X563460Y615281D02*
X562551Y612000D01*
X563460Y615281D02*
X564369Y612000D01*
X562892Y613094D02*
X564028D01*
X566551Y610000D02*
X574551D01*
X570551Y606000D02*
Y614000D01*
X573460Y615281D02*
X572551Y612000D01*
X573460Y615281D02*
X574369Y612000D01*
X572892Y613094D02*
X574028D01*
X576551Y610000D02*
X584551D01*
X580551Y606000D02*
Y614000D01*
X583460Y615281D02*
X582551Y612000D01*
X583460Y615281D02*
X584369Y612000D01*
X582892Y613094D02*
X584028D01*
X586551Y610000D02*
X594551D01*
X590551Y606000D02*
Y614000D01*
X593460Y615281D02*
X592551Y612000D01*
X593460Y615281D02*
X594369Y612000D01*
X592892Y613094D02*
X594028D01*
X596551Y610000D02*
X604551D01*
X600551Y606000D02*
Y614000D01*
X603460Y615281D02*
X602551Y612000D01*
X603460Y615281D02*
X604369Y612000D01*
X602892Y613094D02*
X604028D01*
X606551Y610000D02*
X614551D01*
X610551Y606000D02*
Y614000D01*
X613460Y615281D02*
X612551Y612000D01*
X613460Y615281D02*
X614369Y612000D01*
X612892Y613094D02*
X614028D01*
X616551Y610000D02*
X624551D01*
X620551Y606000D02*
Y614000D01*
X623460Y615281D02*
X622551Y612000D01*
X623460Y615281D02*
X624369Y612000D01*
X622892Y613094D02*
X624028D01*
X626551Y610000D02*
X634551D01*
X630551Y606000D02*
Y614000D01*
X633460Y615281D02*
X632551Y612000D01*
X633460Y615281D02*
X634369Y612000D01*
X632892Y613094D02*
X634028D01*
X636551Y610000D02*
X644551D01*
X640551Y606000D02*
Y614000D01*
X643460Y615281D02*
X642551Y612000D01*
X643460Y615281D02*
X644369Y612000D01*
X642892Y613094D02*
X644028D01*
X646551Y610000D02*
X654551D01*
X650551Y606000D02*
Y614000D01*
X653460Y615281D02*
X652551Y612000D01*
X653460Y615281D02*
X654369Y612000D01*
X652892Y613094D02*
X654028D01*
X656551Y610000D02*
X664551D01*
X660551Y606000D02*
Y614000D01*
X663460Y615281D02*
X662551Y612000D01*
X663460Y615281D02*
X664369Y612000D01*
X662892Y613094D02*
X664028D01*
X473874Y395000D02*
X481874D01*
X477874Y391000D02*
Y399000D01*
X480783Y400281D02*
X479874Y397000D01*
X480783Y400281D02*
X481692Y397000D01*
X480215Y398094D02*
X481351D01*
X483874Y395000D02*
X491874D01*
X487874Y391000D02*
Y399000D01*
X490783Y400281D02*
X489874Y397000D01*
X490783Y400281D02*
X491692Y397000D01*
X490215Y398094D02*
X491351D01*
X493874Y395000D02*
X501874D01*
X497874Y391000D02*
Y399000D01*
X500783Y400281D02*
X499874Y397000D01*
X500783Y400281D02*
X501692Y397000D01*
X500215Y398094D02*
X501351D01*
X503874Y395000D02*
X511874D01*
X507874Y391000D02*
Y399000D01*
X510783Y400281D02*
X509874Y397000D01*
X510783Y400281D02*
X511692Y397000D01*
X510215Y398094D02*
X511351D01*
X513874Y395000D02*
X521874D01*
X517874Y391000D02*
Y399000D01*
X520783Y400281D02*
X519874Y397000D01*
X520783Y400281D02*
X521692Y397000D01*
X520215Y398094D02*
X521351D01*
X523874Y395000D02*
X531874D01*
X527874Y391000D02*
Y399000D01*
X530783Y400281D02*
X529874Y397000D01*
X530783Y400281D02*
X531692Y397000D01*
X530215Y398094D02*
X531351D01*
X533874Y395000D02*
X541874D01*
X537874Y391000D02*
Y399000D01*
X540783Y400281D02*
X539874Y397000D01*
X540783Y400281D02*
X541692Y397000D01*
X540215Y398094D02*
X541351D01*
X543874Y395000D02*
X551874D01*
X547874Y391000D02*
Y399000D01*
X550783Y400281D02*
X549874Y397000D01*
X550783Y400281D02*
X551692Y397000D01*
X550215Y398094D02*
X551351D01*
X553874Y395000D02*
X561874D01*
X557874Y391000D02*
Y399000D01*
X560783Y400281D02*
X559874Y397000D01*
X560783Y400281D02*
X561692Y397000D01*
X560215Y398094D02*
X561351D01*
X553874Y425000D02*
X561874D01*
X557874Y421000D02*
Y429000D01*
X560783Y430281D02*
X559874Y427000D01*
X560783Y430281D02*
X561692Y427000D01*
X560215Y428094D02*
X561351D01*
X543874Y425000D02*
X551874D01*
X547874Y421000D02*
Y429000D01*
X550783Y430281D02*
X549874Y427000D01*
X550783Y430281D02*
X551692Y427000D01*
X550215Y428094D02*
X551351D01*
X533874Y425000D02*
X541874D01*
X537874Y421000D02*
Y429000D01*
X540783Y430281D02*
X539874Y427000D01*
X540783Y430281D02*
X541692Y427000D01*
X540215Y428094D02*
X541351D01*
X523874Y425000D02*
X531874D01*
X527874Y421000D02*
Y429000D01*
X530783Y430281D02*
X529874Y427000D01*
X530783Y430281D02*
X531692Y427000D01*
X530215Y428094D02*
X531351D01*
X513874Y425000D02*
X521874D01*
X517874Y421000D02*
Y429000D01*
X520783Y430281D02*
X519874Y427000D01*
X520783Y430281D02*
X521692Y427000D01*
X520215Y428094D02*
X521351D01*
X503874Y425000D02*
X511874D01*
X507874Y421000D02*
Y429000D01*
X510783Y430281D02*
X509874Y427000D01*
X510783Y430281D02*
X511692Y427000D01*
X510215Y428094D02*
X511351D01*
X493874Y425000D02*
X501874D01*
X497874Y421000D02*
Y429000D01*
X500783Y430281D02*
X499874Y427000D01*
X500783Y430281D02*
X501692Y427000D01*
X500215Y428094D02*
X501351D01*
X483874Y425000D02*
X491874D01*
X487874Y421000D02*
Y429000D01*
X490783Y430281D02*
X489874Y427000D01*
X490783Y430281D02*
X491692Y427000D01*
X490215Y428094D02*
X491351D01*
X473874Y425000D02*
X481874D01*
X477874Y421000D02*
Y429000D01*
X480783Y430281D02*
X479874Y427000D01*
X480783Y430281D02*
X481692Y427000D01*
X480215Y428094D02*
X481351D01*
X465252Y314606D02*
X473252D01*
X469252Y310606D02*
Y318606D01*
X472161Y319888D02*
X471252Y316606D01*
X472161Y319888D02*
X473070Y316606D01*
X471593Y317700D02*
X472729D01*
X465252Y304606D02*
X473252D01*
X469252Y300606D02*
Y308606D01*
X472161Y309888D02*
X471252Y306606D01*
X472161Y309888D02*
X473070Y306606D01*
X471593Y307700D02*
X472729D01*
X465252Y294606D02*
X473252D01*
X469252Y290606D02*
Y298606D01*
X472161Y299888D02*
X471252Y296606D01*
X472161Y299888D02*
X473070Y296606D01*
X471593Y297700D02*
X472729D01*
X465252Y284606D02*
X473252D01*
X469252Y280606D02*
Y288606D01*
X472161Y289888D02*
X471252Y286606D01*
X472161Y289888D02*
X473070Y286606D01*
X471593Y287700D02*
X472729D01*
X465252Y274606D02*
X473252D01*
X469252Y270606D02*
Y278606D01*
X472161Y279888D02*
X471252Y276606D01*
X472161Y279888D02*
X473070Y276606D01*
X471593Y277700D02*
X472729D01*
X465252Y264606D02*
X473252D01*
X469252Y260606D02*
Y268606D01*
X472161Y269888D02*
X471252Y266606D01*
X472161Y269888D02*
X473070Y266606D01*
X471593Y267700D02*
X472729D01*
X465252Y254606D02*
X473252D01*
X469252Y250606D02*
Y258606D01*
X472161Y259888D02*
X471252Y256606D01*
X472161Y259888D02*
X473070Y256606D01*
X471593Y257700D02*
X472729D01*
X465252Y244606D02*
X473252D01*
X469252Y240606D02*
Y248606D01*
X472161Y249888D02*
X471252Y246606D01*
X472161Y249888D02*
X473070Y246606D01*
X471593Y247700D02*
X472729D01*
X465252Y234606D02*
X473252D01*
X469252Y230606D02*
Y238606D01*
X472161Y239888D02*
X471252Y236606D01*
X472161Y239888D02*
X473070Y236606D01*
X471593Y237700D02*
X472729D01*
X465252Y224606D02*
X473252D01*
X469252Y220606D02*
Y228606D01*
X472161Y229888D02*
X471252Y226606D01*
X472161Y229888D02*
X473070Y226606D01*
X471593Y227700D02*
X472729D01*
X465252Y214606D02*
X473252D01*
X469252Y210606D02*
Y218606D01*
X472161Y219888D02*
X471252Y216606D01*
X472161Y219888D02*
X473070Y216606D01*
X471593Y217700D02*
X472729D01*
X465252Y204606D02*
X473252D01*
X469252Y200606D02*
Y208606D01*
X472161Y209888D02*
X471252Y206606D01*
X472161Y209888D02*
X473070Y206606D01*
X471593Y207700D02*
X472729D01*
X465252Y194606D02*
X473252D01*
X469252Y190606D02*
Y198606D01*
X472161Y199888D02*
X471252Y196606D01*
X472161Y199888D02*
X473070Y196606D01*
X471593Y197700D02*
X472729D01*
X465252Y184606D02*
X473252D01*
X469252Y180606D02*
Y188606D01*
X472161Y189888D02*
X471252Y186606D01*
X472161Y189888D02*
X473070Y186606D01*
X471593Y187700D02*
X472729D01*
X495252Y184606D02*
X503252D01*
X499252Y180606D02*
Y188606D01*
X502161Y189888D02*
X501252Y186606D01*
X502161Y189888D02*
X503070Y186606D01*
X501593Y187700D02*
X502729D01*
X495252Y194606D02*
X503252D01*
X499252Y190606D02*
Y198606D01*
X502161Y199888D02*
X501252Y196606D01*
X502161Y199888D02*
X503070Y196606D01*
X501593Y197700D02*
X502729D01*
X495252Y204606D02*
X503252D01*
X499252Y200606D02*
Y208606D01*
X502161Y209888D02*
X501252Y206606D01*
X502161Y209888D02*
X503070Y206606D01*
X501593Y207700D02*
X502729D01*
X495252Y214606D02*
X503252D01*
X499252Y210606D02*
Y218606D01*
X502161Y219888D02*
X501252Y216606D01*
X502161Y219888D02*
X503070Y216606D01*
X501593Y217700D02*
X502729D01*
X495252Y224606D02*
X503252D01*
X499252Y220606D02*
Y228606D01*
X502161Y229888D02*
X501252Y226606D01*
X502161Y229888D02*
X503070Y226606D01*
X501593Y227700D02*
X502729D01*
X495252Y234606D02*
X503252D01*
X499252Y230606D02*
Y238606D01*
X502161Y239888D02*
X501252Y236606D01*
X502161Y239888D02*
X503070Y236606D01*
X501593Y237700D02*
X502729D01*
X495252Y244606D02*
X503252D01*
X499252Y240606D02*
Y248606D01*
X502161Y249888D02*
X501252Y246606D01*
X502161Y249888D02*
X503070Y246606D01*
X501593Y247700D02*
X502729D01*
X495252Y254606D02*
X503252D01*
X499252Y250606D02*
Y258606D01*
X502161Y259888D02*
X501252Y256606D01*
X502161Y259888D02*
X503070Y256606D01*
X501593Y257700D02*
X502729D01*
X495252Y264606D02*
X503252D01*
X499252Y260606D02*
Y268606D01*
X502161Y269888D02*
X501252Y266606D01*
X502161Y269888D02*
X503070Y266606D01*
X501593Y267700D02*
X502729D01*
X495252Y274606D02*
X503252D01*
X499252Y270606D02*
Y278606D01*
X502161Y279888D02*
X501252Y276606D01*
X502161Y279888D02*
X503070Y276606D01*
X501593Y277700D02*
X502729D01*
X495252Y284606D02*
X503252D01*
X499252Y280606D02*
Y288606D01*
X502161Y289888D02*
X501252Y286606D01*
X502161Y289888D02*
X503070Y286606D01*
X501593Y287700D02*
X502729D01*
X495252Y294606D02*
X503252D01*
X499252Y290606D02*
Y298606D01*
X502161Y299888D02*
X501252Y296606D01*
X502161Y299888D02*
X503070Y296606D01*
X501593Y297700D02*
X502729D01*
X495252Y304606D02*
X503252D01*
X499252Y300606D02*
Y308606D01*
X502161Y309888D02*
X501252Y306606D01*
X502161Y309888D02*
X503070Y306606D01*
X501593Y307700D02*
X502729D01*
X495252Y314606D02*
X503252D01*
X499252Y310606D02*
Y318606D01*
X502161Y319888D02*
X501252Y316606D01*
X502161Y319888D02*
X503070Y316606D01*
X501593Y317700D02*
X502729D01*
X494346Y167717D02*
X502346D01*
X498346Y163717D02*
Y171717D01*
X501256Y172998D02*
X500346Y169717D01*
X501256Y172998D02*
X502165Y169717D01*
X500687Y170810D02*
X501824D01*
X454346Y167717D02*
X462346D01*
X458346Y163717D02*
Y171717D01*
X461256Y172998D02*
X460346Y169717D01*
X461256Y172998D02*
X462165Y169717D01*
X460687Y170810D02*
X461824D01*
X454465Y144094D02*
X462465D01*
X458465Y140094D02*
Y148094D01*
X460465Y149376D02*
Y146094D01*
Y149376D02*
X461487D01*
X461828Y149219*
X461942Y149063*
X462055Y148751*
Y148438*
X461942Y148126*
X461828Y147969*
X461487Y147813*
X460465D02*
X461487D01*
X461828Y147657*
X461942Y147501*
X462055Y147188*
Y146719*
X461942Y146407*
X461828Y146251*
X461487Y146094*
X460465*
X503677Y144094D02*
X511677D01*
X507677Y140094D02*
Y148094D01*
X509677Y149376D02*
Y146094D01*
Y149376D02*
X510700D01*
X511041Y149219*
X511154Y149063*
X511268Y148751*
Y148438*
X511154Y148126*
X511041Y147969*
X510700Y147813*
X509677D02*
X510700D01*
X511041Y147657*
X511154Y147501*
X511268Y147188*
Y146719*
X511154Y146407*
X511041Y146251*
X510700Y146094*
X509677*
X454465Y124409D02*
X462465D01*
X458465Y120409D02*
Y128409D01*
X460465Y129691D02*
Y126409D01*
Y129691D02*
X461487D01*
X461828Y129534*
X461942Y129378*
X462055Y129066*
Y128753*
X461942Y128441*
X461828Y128284*
X461487Y128128*
X460465D02*
X461487D01*
X461828Y127972*
X461942Y127816*
X462055Y127503*
Y127034*
X461942Y126722*
X461828Y126566*
X461487Y126409*
X460465*
X503677Y124409D02*
X511677D01*
X507677Y120409D02*
Y128409D01*
X509677Y129691D02*
Y126409D01*
Y129691D02*
X510700D01*
X511041Y129534*
X511154Y129378*
X511268Y129066*
Y128753*
X511154Y128441*
X511041Y128284*
X510700Y128128*
X509677D02*
X510700D01*
X511041Y127972*
X511154Y127816*
X511268Y127503*
Y127034*
X511154Y126722*
X511041Y126566*
X510700Y126409*
X509677*
X468047Y580157D02*
X476047D01*
X472047Y576157D02*
Y584157D01*
X474956Y585439D02*
X474047Y582157D01*
X474956Y585439D02*
X475865Y582157D01*
X474388Y583251D02*
X475525D01*
X458205Y590000D02*
X466205D01*
X462205Y586000D02*
Y594000D01*
X465114Y595281D02*
X464205Y592000D01*
X465114Y595281D02*
X466023Y592000D01*
X464546Y593094D02*
X465682D01*
X448362Y580157D02*
X456362D01*
X452362Y576157D02*
Y584157D01*
X455271Y585439D02*
X454362Y582157D01*
X455271Y585439D02*
X456180Y582157D01*
X454703Y583251D02*
X455839D01*
X410685Y580315D02*
X418685D01*
X414685Y576315D02*
Y584315D01*
X417594Y585596D02*
X416685Y582315D01*
X417594Y585596D02*
X418503Y582315D01*
X417026Y583409D02*
X418162D01*
X420685Y580315D02*
X428685D01*
X424685Y576315D02*
Y584315D01*
X427594Y585596D02*
X426685Y582315D01*
X427594Y585596D02*
X428503Y582315D01*
X427026Y583409D02*
X428162D01*
X410685Y548819D02*
X418685D01*
X414685Y544819D02*
Y552819D01*
X417594Y554100D02*
X416685Y550819D01*
X417594Y554100D02*
X418503Y550819D01*
X417026Y551913D02*
X418162D01*
X420685Y548819D02*
X428685D01*
X424685Y544819D02*
Y552819D01*
X427594Y554100D02*
X426685Y550819D01*
X427594Y554100D02*
X428503Y550819D01*
X427026Y551913D02*
X428162D01*
X403205Y206299D02*
X411205D01*
X407205Y202299D02*
Y210299D01*
X410114Y211580D02*
X409205Y208299D01*
X410114Y211580D02*
X411023Y208299D01*
X409546Y209393D02*
X410682D01*
X413205Y206299D02*
X421205D01*
X417205Y202299D02*
Y210299D01*
X420114Y211580D02*
X419205Y208299D01*
X420114Y211580D02*
X421023Y208299D01*
X419546Y209393D02*
X420682D01*
X383165Y178228D02*
X391165D01*
X387165Y174228D02*
Y182228D01*
X390074Y183510D02*
X389165Y180228D01*
X390074Y183510D02*
X390984Y180228D01*
X389506Y181322D02*
X390643D01*
X383165Y168228D02*
X391165D01*
X387165Y164228D02*
Y172228D01*
X390074Y173510D02*
X389165Y170228D01*
X390074Y173510D02*
X390984Y170228D01*
X389506Y171322D02*
X390643D01*
X383165Y158228D02*
X391165D01*
X387165Y154228D02*
Y162228D01*
X390074Y163510D02*
X389165Y160228D01*
X390074Y163510D02*
X390984Y160228D01*
X389506Y161322D02*
X390643D01*
X383165Y148228D02*
X391165D01*
X387165Y144228D02*
Y152228D01*
X390074Y153510D02*
X389165Y150228D01*
X390074Y153510D02*
X390984Y150228D01*
X389506Y151322D02*
X390643D01*
X413165Y148228D02*
X421165D01*
X417165Y144228D02*
Y152228D01*
X420074Y153510D02*
X419165Y150228D01*
X420074Y153510D02*
X420984Y150228D01*
X419506Y151322D02*
X420643D01*
X413165Y158228D02*
X421165D01*
X417165Y154228D02*
Y162228D01*
X420074Y163510D02*
X419165Y160228D01*
X420074Y163510D02*
X420984Y160228D01*
X419506Y161322D02*
X420643D01*
X413165Y168228D02*
X421165D01*
X417165Y164228D02*
Y172228D01*
X420074Y173510D02*
X419165Y170228D01*
X420074Y173510D02*
X420984Y170228D01*
X419506Y171322D02*
X420643D01*
X413165Y178228D02*
X421165D01*
X417165Y174228D02*
Y182228D01*
X420074Y183510D02*
X419165Y180228D01*
X420074Y183510D02*
X420984Y180228D01*
X419506Y181322D02*
X420643D01*
X334307Y206299D02*
X342307D01*
X338307Y202299D02*
Y210299D01*
X341216Y211580D02*
X340307Y208299D01*
X341216Y211580D02*
X342125Y208299D01*
X340648Y209393D02*
X341784D01*
X344307Y206299D02*
X352307D01*
X348307Y202299D02*
Y210299D01*
X351216Y211580D02*
X350307Y208299D01*
X351216Y211580D02*
X352125Y208299D01*
X350648Y209393D02*
X351784D01*
X336157Y590000D02*
X344157D01*
X340157Y586000D02*
Y594000D01*
X343067Y595281D02*
X342157Y592000D01*
X343067Y595281D02*
X343976Y592000D01*
X342498Y593094D02*
X343635D01*
X336157Y580000D02*
X344157D01*
X340157Y576000D02*
Y584000D01*
X343067Y585281D02*
X342157Y582000D01*
X343067Y585281D02*
X343976Y582000D01*
X342498Y583094D02*
X343635D01*
X336157Y570000D02*
X344157D01*
X340157Y566000D02*
Y574000D01*
X343067Y575281D02*
X342157Y572000D01*
X343067Y575281D02*
X343976Y572000D01*
X342498Y573094D02*
X343635D01*
X336157Y560000D02*
X344157D01*
X340157Y556000D02*
Y564000D01*
X343067Y565281D02*
X342157Y562000D01*
X343067Y565281D02*
X343976Y562000D01*
X342498Y563094D02*
X343635D01*
X336157Y550000D02*
X344157D01*
X340157Y546000D02*
Y554000D01*
X343067Y555281D02*
X342157Y552000D01*
X343067Y555281D02*
X343976Y552000D01*
X342498Y553094D02*
X343635D01*
X336157Y540000D02*
X344157D01*
X340157Y536000D02*
Y544000D01*
X343067Y545281D02*
X342157Y542000D01*
X343067Y545281D02*
X343976Y542000D01*
X342498Y543094D02*
X343635D01*
X336157Y530000D02*
X344157D01*
X340157Y526000D02*
Y534000D01*
X343067Y535281D02*
X342157Y532000D01*
X343067Y535281D02*
X343976Y532000D01*
X342498Y533094D02*
X343635D01*
X336157Y520000D02*
X344157D01*
X340157Y516000D02*
Y524000D01*
X343067Y525281D02*
X342157Y522000D01*
X343067Y525281D02*
X343976Y522000D01*
X342498Y523094D02*
X343635D01*
X336157Y510000D02*
X344157D01*
X340157Y506000D02*
Y514000D01*
X343067Y515281D02*
X342157Y512000D01*
X343067Y515281D02*
X343976Y512000D01*
X342498Y513094D02*
X343635D01*
X336157Y500000D02*
X344157D01*
X340157Y496000D02*
Y504000D01*
X343067Y505281D02*
X342157Y502000D01*
X343067Y505281D02*
X343976Y502000D01*
X342498Y503094D02*
X343635D01*
X336157Y490000D02*
X344157D01*
X340157Y486000D02*
Y494000D01*
X343067Y495281D02*
X342157Y492000D01*
X343067Y495281D02*
X343976Y492000D01*
X342498Y493094D02*
X343635D01*
X336157Y480000D02*
X344157D01*
X340157Y476000D02*
Y484000D01*
X343067Y485281D02*
X342157Y482000D01*
X343067Y485281D02*
X343976Y482000D01*
X342498Y483094D02*
X343635D01*
X336157Y470000D02*
X344157D01*
X340157Y466000D02*
Y474000D01*
X343067Y475281D02*
X342157Y472000D01*
X343067Y475281D02*
X343976Y472000D01*
X342498Y473094D02*
X343635D01*
X336157Y460000D02*
X344157D01*
X340157Y456000D02*
Y464000D01*
X343067Y465281D02*
X342157Y462000D01*
X343067Y465281D02*
X343976Y462000D01*
X342498Y463094D02*
X343635D01*
X336157Y450000D02*
X344157D01*
X340157Y446000D02*
Y454000D01*
X343067Y455281D02*
X342157Y452000D01*
X343067Y455281D02*
X343976Y452000D01*
X342498Y453094D02*
X343635D01*
X336157Y440000D02*
X344157D01*
X340157Y436000D02*
Y444000D01*
X343067Y445281D02*
X342157Y442000D01*
X343067Y445281D02*
X343976Y442000D01*
X342498Y443094D02*
X343635D01*
X336157Y430000D02*
X344157D01*
X340157Y426000D02*
Y434000D01*
X343067Y435281D02*
X342157Y432000D01*
X343067Y435281D02*
X343976Y432000D01*
X342498Y433094D02*
X343635D01*
X336157Y420000D02*
X344157D01*
X340157Y416000D02*
Y424000D01*
X343067Y425281D02*
X342157Y422000D01*
X343067Y425281D02*
X343976Y422000D01*
X342498Y423094D02*
X343635D01*
X336157Y410000D02*
X344157D01*
X340157Y406000D02*
Y414000D01*
X343067Y415281D02*
X342157Y412000D01*
X343067Y415281D02*
X343976Y412000D01*
X342498Y413094D02*
X343635D01*
X336157Y400000D02*
X344157D01*
X340157Y396000D02*
Y404000D01*
X343067Y405281D02*
X342157Y402000D01*
X343067Y405281D02*
X343976Y402000D01*
X342498Y403094D02*
X343635D01*
X336157Y390000D02*
X344157D01*
X340157Y386000D02*
Y394000D01*
X343067Y395281D02*
X342157Y392000D01*
X343067Y395281D02*
X343976Y392000D01*
X342498Y393094D02*
X343635D01*
X336157Y380000D02*
X344157D01*
X340157Y376000D02*
Y384000D01*
X343067Y385281D02*
X342157Y382000D01*
X343067Y385281D02*
X343976Y382000D01*
X342498Y383094D02*
X343635D01*
X336157Y370000D02*
X344157D01*
X340157Y366000D02*
Y374000D01*
X343067Y375281D02*
X342157Y372000D01*
X343067Y375281D02*
X343976Y372000D01*
X342498Y373094D02*
X343635D01*
X336157Y360000D02*
X344157D01*
X340157Y356000D02*
Y364000D01*
X343067Y365281D02*
X342157Y362000D01*
X343067Y365281D02*
X343976Y362000D01*
X342498Y363094D02*
X343635D01*
X336157Y350000D02*
X344157D01*
X340157Y346000D02*
Y354000D01*
X343067Y355281D02*
X342157Y352000D01*
X343067Y355281D02*
X343976Y352000D01*
X342498Y353094D02*
X343635D01*
X336157Y340000D02*
X344157D01*
X340157Y336000D02*
Y344000D01*
X343067Y345281D02*
X342157Y342000D01*
X343067Y345281D02*
X343976Y342000D01*
X342498Y343094D02*
X343635D01*
X336157Y330000D02*
X344157D01*
X340157Y326000D02*
Y334000D01*
X343067Y335281D02*
X342157Y332000D01*
X343067Y335281D02*
X343976Y332000D01*
X342498Y333094D02*
X343635D01*
X336157Y320000D02*
X344157D01*
X340157Y316000D02*
Y324000D01*
X343067Y325281D02*
X342157Y322000D01*
X343067Y325281D02*
X343976Y322000D01*
X342498Y323094D02*
X343635D01*
X395213Y320000D02*
X403213D01*
X399213Y316000D02*
Y324000D01*
X402122Y325281D02*
X401213Y322000D01*
X402122Y325281D02*
X403031Y322000D01*
X401554Y323094D02*
X402690D01*
X395213Y330000D02*
X403213D01*
X399213Y326000D02*
Y334000D01*
X402122Y335281D02*
X401213Y332000D01*
X402122Y335281D02*
X403031Y332000D01*
X401554Y333094D02*
X402690D01*
X395213Y340000D02*
X403213D01*
X399213Y336000D02*
Y344000D01*
X402122Y345281D02*
X401213Y342000D01*
X402122Y345281D02*
X403031Y342000D01*
X401554Y343094D02*
X402690D01*
X395213Y350000D02*
X403213D01*
X399213Y346000D02*
Y354000D01*
X402122Y355281D02*
X401213Y352000D01*
X402122Y355281D02*
X403031Y352000D01*
X401554Y353094D02*
X402690D01*
X395213Y360000D02*
X403213D01*
X399213Y356000D02*
Y364000D01*
X402122Y365281D02*
X401213Y362000D01*
X402122Y365281D02*
X403031Y362000D01*
X401554Y363094D02*
X402690D01*
X395213Y370000D02*
X403213D01*
X399213Y366000D02*
Y374000D01*
X402122Y375281D02*
X401213Y372000D01*
X402122Y375281D02*
X403031Y372000D01*
X401554Y373094D02*
X402690D01*
X395213Y380000D02*
X403213D01*
X399213Y376000D02*
Y384000D01*
X402122Y385281D02*
X401213Y382000D01*
X402122Y385281D02*
X403031Y382000D01*
X401554Y383094D02*
X402690D01*
X395213Y390000D02*
X403213D01*
X399213Y386000D02*
Y394000D01*
X402122Y395281D02*
X401213Y392000D01*
X402122Y395281D02*
X403031Y392000D01*
X401554Y393094D02*
X402690D01*
X395213Y400000D02*
X403213D01*
X399213Y396000D02*
Y404000D01*
X402122Y405281D02*
X401213Y402000D01*
X402122Y405281D02*
X403031Y402000D01*
X401554Y403094D02*
X402690D01*
X395213Y410000D02*
X403213D01*
X399213Y406000D02*
Y414000D01*
X402122Y415281D02*
X401213Y412000D01*
X402122Y415281D02*
X403031Y412000D01*
X401554Y413094D02*
X402690D01*
X395213Y420000D02*
X403213D01*
X399213Y416000D02*
Y424000D01*
X402122Y425281D02*
X401213Y422000D01*
X402122Y425281D02*
X403031Y422000D01*
X401554Y423094D02*
X402690D01*
X395213Y430000D02*
X403213D01*
X399213Y426000D02*
Y434000D01*
X402122Y435281D02*
X401213Y432000D01*
X402122Y435281D02*
X403031Y432000D01*
X401554Y433094D02*
X402690D01*
X395213Y440000D02*
X403213D01*
X399213Y436000D02*
Y444000D01*
X402122Y445281D02*
X401213Y442000D01*
X402122Y445281D02*
X403031Y442000D01*
X401554Y443094D02*
X402690D01*
X395213Y450000D02*
X403213D01*
X399213Y446000D02*
Y454000D01*
X402122Y455281D02*
X401213Y452000D01*
X402122Y455281D02*
X403031Y452000D01*
X401554Y453094D02*
X402690D01*
X395213Y460000D02*
X403213D01*
X399213Y456000D02*
Y464000D01*
X402122Y465281D02*
X401213Y462000D01*
X402122Y465281D02*
X403031Y462000D01*
X401554Y463094D02*
X402690D01*
X395213Y470000D02*
X403213D01*
X399213Y466000D02*
Y474000D01*
X402122Y475281D02*
X401213Y472000D01*
X402122Y475281D02*
X403031Y472000D01*
X401554Y473094D02*
X402690D01*
X395213Y480000D02*
X403213D01*
X399213Y476000D02*
Y484000D01*
X402122Y485281D02*
X401213Y482000D01*
X402122Y485281D02*
X403031Y482000D01*
X401554Y483094D02*
X402690D01*
X395213Y490000D02*
X403213D01*
X399213Y486000D02*
Y494000D01*
X402122Y495281D02*
X401213Y492000D01*
X402122Y495281D02*
X403031Y492000D01*
X401554Y493094D02*
X402690D01*
X395213Y500000D02*
X403213D01*
X399213Y496000D02*
Y504000D01*
X402122Y505281D02*
X401213Y502000D01*
X402122Y505281D02*
X403031Y502000D01*
X401554Y503094D02*
X402690D01*
X395213Y510000D02*
X403213D01*
X399213Y506000D02*
Y514000D01*
X402122Y515281D02*
X401213Y512000D01*
X402122Y515281D02*
X403031Y512000D01*
X401554Y513094D02*
X402690D01*
X395213Y520000D02*
X403213D01*
X399213Y516000D02*
Y524000D01*
X402122Y525281D02*
X401213Y522000D01*
X402122Y525281D02*
X403031Y522000D01*
X401554Y523094D02*
X402690D01*
X395213Y530000D02*
X403213D01*
X399213Y526000D02*
Y534000D01*
X402122Y535281D02*
X401213Y532000D01*
X402122Y535281D02*
X403031Y532000D01*
X401554Y533094D02*
X402690D01*
X395213Y540000D02*
X403213D01*
X399213Y536000D02*
Y544000D01*
X402122Y545281D02*
X401213Y542000D01*
X402122Y545281D02*
X403031Y542000D01*
X401554Y543094D02*
X402690D01*
X395213Y550000D02*
X403213D01*
X399213Y546000D02*
Y554000D01*
X402122Y555281D02*
X401213Y552000D01*
X402122Y555281D02*
X403031Y552000D01*
X401554Y553094D02*
X402690D01*
X395213Y560000D02*
X403213D01*
X399213Y556000D02*
Y564000D01*
X402122Y565281D02*
X401213Y562000D01*
X402122Y565281D02*
X403031Y562000D01*
X401554Y563094D02*
X402690D01*
X395213Y570000D02*
X403213D01*
X399213Y566000D02*
Y574000D01*
X402122Y575281D02*
X401213Y572000D01*
X402122Y575281D02*
X403031Y572000D01*
X401554Y573094D02*
X402690D01*
X395213Y580000D02*
X403213D01*
X399213Y576000D02*
Y584000D01*
X402122Y585281D02*
X401213Y582000D01*
X402122Y585281D02*
X403031Y582000D01*
X401554Y583094D02*
X402690D01*
X395213Y590000D02*
X403213D01*
X399213Y586000D02*
Y594000D01*
X402122Y595281D02*
X401213Y592000D01*
X402122Y595281D02*
X403031Y592000D01*
X401554Y593094D02*
X402690D01*
X314504Y509921D02*
X322504D01*
X318504Y505921D02*
Y513921D01*
X321413Y515203D02*
X320504Y511921D01*
X321413Y515203D02*
X322322Y511921D01*
X320845Y513015D02*
X321981D01*
X314504Y549921D02*
X322504D01*
X318504Y545921D02*
Y553921D01*
X321413Y555203D02*
X320504Y551921D01*
X321413Y555203D02*
X322322Y551921D01*
X320845Y553015D02*
X321981D01*
X314504Y499921D02*
X322504D01*
X318504Y495921D02*
Y503921D01*
X321413Y505203D02*
X320504Y501921D01*
X321413Y505203D02*
X322322Y501921D01*
X320845Y503015D02*
X321981D01*
X314504Y459921D02*
X322504D01*
X318504Y455921D02*
Y463921D01*
X321413Y465203D02*
X320504Y461921D01*
X321413Y465203D02*
X322322Y461921D01*
X320845Y463015D02*
X321981D01*
X314268Y178386D02*
X322268D01*
X318268Y174386D02*
Y182386D01*
X321177Y183667D02*
X320268Y180386D01*
X321177Y183667D02*
X322086Y180386D01*
X320609Y181480D02*
X321745D01*
X314268Y168386D02*
X322268D01*
X318268Y164386D02*
Y172386D01*
X321177Y173667D02*
X320268Y170386D01*
X321177Y173667D02*
X322086Y170386D01*
X320609Y171480D02*
X321745D01*
X314268Y158386D02*
X322268D01*
X318268Y154386D02*
Y162386D01*
X321177Y163667D02*
X320268Y160386D01*
X321177Y163667D02*
X322086Y160386D01*
X320609Y161480D02*
X321745D01*
X314268Y148386D02*
X322268D01*
X318268Y144386D02*
Y152386D01*
X321177Y153667D02*
X320268Y150386D01*
X321177Y153667D02*
X322086Y150386D01*
X320609Y151480D02*
X321745D01*
X344268Y148386D02*
X352268D01*
X348268Y144386D02*
Y152386D01*
X351177Y153667D02*
X350268Y150386D01*
X351177Y153667D02*
X352086Y150386D01*
X350609Y151480D02*
X351745D01*
X344268Y158386D02*
X352268D01*
X348268Y154386D02*
Y162386D01*
X351177Y163667D02*
X350268Y160386D01*
X351177Y163667D02*
X352086Y160386D01*
X350609Y161480D02*
X351745D01*
X344268Y168386D02*
X352268D01*
X348268Y164386D02*
Y172386D01*
X351177Y173667D02*
X350268Y170386D01*
X351177Y173667D02*
X352086Y170386D01*
X350609Y171480D02*
X351745D01*
X344268Y178386D02*
X352268D01*
X348268Y174386D02*
Y182386D01*
X351177Y183667D02*
X350268Y180386D01*
X351177Y183667D02*
X352086Y180386D01*
X350609Y181480D02*
X351745D01*
X268165Y344094D02*
X276165D01*
X272165Y340094D02*
Y348094D01*
X275074Y349376D02*
X274165Y346094D01*
X275074Y349376D02*
X275984Y346094D01*
X274506Y347188D02*
X275643D01*
X278165Y344094D02*
X286165D01*
X282165Y340094D02*
Y348094D01*
X285074Y349376D02*
X284165Y346094D01*
X285074Y349376D02*
X285984Y346094D01*
X284506Y347188D02*
X285643D01*
X268165Y300787D02*
X276165D01*
X272165Y296787D02*
Y304787D01*
X275074Y306069D02*
X274165Y302787D01*
X275074Y306069D02*
X275984Y302787D01*
X274506Y303881D02*
X275643D01*
X278165Y300787D02*
X286165D01*
X282165Y296787D02*
Y304787D01*
X285074Y306069D02*
X284165Y302787D01*
X285074Y306069D02*
X285984Y302787D01*
X284506Y303881D02*
X285643D01*
X257063Y600000D02*
X265063D01*
X261063Y596000D02*
Y604000D01*
X263972Y605281D02*
X263063Y602000D01*
X263972Y605281D02*
X264881Y602000D01*
X263404Y603094D02*
X264540D01*
X267063Y600000D02*
X275063D01*
X271063Y596000D02*
Y604000D01*
X273972Y605281D02*
X273063Y602000D01*
X273972Y605281D02*
X274881Y602000D01*
X273404Y603094D02*
X274540D01*
X257063Y590000D02*
X265063D01*
X261063Y586000D02*
Y594000D01*
X263972Y595281D02*
X263063Y592000D01*
X263972Y595281D02*
X264881Y592000D01*
X263404Y593094D02*
X264540D01*
X267063Y590000D02*
X275063D01*
X271063Y586000D02*
Y594000D01*
X273972Y595281D02*
X273063Y592000D01*
X273972Y595281D02*
X274881Y592000D01*
X273404Y593094D02*
X274540D01*
X257063Y580000D02*
X265063D01*
X261063Y576000D02*
Y584000D01*
X263972Y585281D02*
X263063Y582000D01*
X263972Y585281D02*
X264881Y582000D01*
X263404Y583094D02*
X264540D01*
X267063Y580000D02*
X275063D01*
X271063Y576000D02*
Y584000D01*
X273972Y585281D02*
X273063Y582000D01*
X273972Y585281D02*
X274881Y582000D01*
X273404Y583094D02*
X274540D01*
X257063Y570000D02*
X265063D01*
X261063Y566000D02*
Y574000D01*
X263972Y575281D02*
X263063Y572000D01*
X263972Y575281D02*
X264881Y572000D01*
X263404Y573094D02*
X264540D01*
X267063Y570000D02*
X275063D01*
X271063Y566000D02*
Y574000D01*
X273972Y575281D02*
X273063Y572000D01*
X273972Y575281D02*
X274881Y572000D01*
X273404Y573094D02*
X274540D01*
X257063Y560000D02*
X265063D01*
X261063Y556000D02*
Y564000D01*
X263972Y565281D02*
X263063Y562000D01*
X263972Y565281D02*
X264881Y562000D01*
X263404Y563094D02*
X264540D01*
X267063Y560000D02*
X275063D01*
X271063Y556000D02*
Y564000D01*
X273972Y565281D02*
X273063Y562000D01*
X273972Y565281D02*
X274881Y562000D01*
X273404Y563094D02*
X274540D01*
X252299Y427244D02*
X260299D01*
X256299Y423244D02*
Y431244D01*
X259208Y432525D02*
X258299Y429244D01*
X259208Y432525D02*
X260117Y429244D01*
X258640Y430338D02*
X259776D01*
X252299Y467244D02*
X260299D01*
X256299Y463244D02*
Y471244D01*
X259208Y472525D02*
X258299Y469244D01*
X259208Y472525D02*
X260117Y469244D01*
X258640Y470338D02*
X259776D01*
X248480Y170866D02*
X256480D01*
X252480Y166866D02*
Y174866D01*
X255389Y176147D02*
X254480Y172866D01*
X255389Y176147D02*
X256298Y172866D01*
X254821Y173960D02*
X255958D01*
X258480Y170866D02*
X266480D01*
X262480Y166866D02*
Y174866D01*
X265389Y176147D02*
X264480Y172866D01*
X265389Y176147D02*
X266298Y172866D01*
X264821Y173960D02*
X265958D01*
X247063Y540000D02*
X255063D01*
X251063Y536000D02*
Y544000D01*
X253972Y545281D02*
X253063Y542000D01*
X253972Y545281D02*
X254881Y542000D01*
X253404Y543094D02*
X254540D01*
X257063Y540000D02*
X265063D01*
X261063Y536000D02*
Y544000D01*
X263972Y545281D02*
X263063Y542000D01*
X263972Y545281D02*
X264881Y542000D01*
X263404Y543094D02*
X264540D01*
X239031Y489764D02*
X247031D01*
X243031Y485764D02*
Y493764D01*
X245941Y495045D02*
X245031Y491764D01*
X245941Y495045D02*
X246850Y491764D01*
X245372Y492858D02*
X246509D01*
X249031Y489764D02*
X257031D01*
X253031Y485764D02*
Y493764D01*
X255941Y495045D02*
X255031Y491764D01*
X255941Y495045D02*
X256850Y491764D01*
X255372Y492858D02*
X256509D01*
X238480Y221299D02*
X246480D01*
X242480Y217299D02*
Y225299D01*
X245389Y226580D02*
X244480Y223299D01*
X245389Y226580D02*
X246298Y223299D01*
X244821Y224393D02*
X245958D01*
X238480Y211299D02*
X246480D01*
X242480Y207299D02*
Y215299D01*
X245389Y216580D02*
X244480Y213299D01*
X245389Y216580D02*
X246298Y213299D01*
X244821Y214393D02*
X245958D01*
X238480Y201299D02*
X246480D01*
X242480Y197299D02*
Y205299D01*
X245389Y206580D02*
X244480Y203299D01*
X245389Y206580D02*
X246298Y203299D01*
X244821Y204393D02*
X245958D01*
X238480Y191299D02*
X246480D01*
X242480Y187299D02*
Y195299D01*
X245389Y196580D02*
X244480Y193299D01*
X245389Y196580D02*
X246298Y193299D01*
X244821Y194393D02*
X245958D01*
X268480Y191299D02*
X276480D01*
X272480Y187299D02*
Y195299D01*
X275389Y196580D02*
X274480Y193299D01*
X275389Y196580D02*
X276298Y193299D01*
X274821Y194393D02*
X275958D01*
X268480Y201299D02*
X276480D01*
X272480Y197299D02*
Y205299D01*
X275389Y206580D02*
X274480Y203299D01*
X275389Y206580D02*
X276298Y203299D01*
X274821Y204393D02*
X275958D01*
X268480Y211299D02*
X276480D01*
X272480Y207299D02*
Y215299D01*
X275389Y216580D02*
X274480Y213299D01*
X275389Y216580D02*
X276298Y213299D01*
X274821Y214393D02*
X275958D01*
X268480Y221299D02*
X276480D01*
X272480Y217299D02*
Y225299D01*
X275389Y226580D02*
X274480Y223299D01*
X275389Y226580D02*
X276298Y223299D01*
X274821Y224393D02*
X275958D01*
X236669Y344094D02*
X244669D01*
X240669Y340094D02*
Y348094D01*
X243578Y349376D02*
X242669Y346094D01*
X243578Y349376D02*
X244487Y346094D01*
X243010Y347188D02*
X244147D01*
X246669Y344094D02*
X254669D01*
X250669Y340094D02*
Y348094D01*
X253578Y349376D02*
X252669Y346094D01*
X253578Y349376D02*
X254487Y346094D01*
X253010Y347188D02*
X254147D01*
X233795Y115748D02*
X241795D01*
X237795Y111748D02*
Y119748D01*
X240704Y121029D02*
X239795Y117748D01*
X240704Y121029D02*
X241613Y117748D01*
X240136Y118842D02*
X241273D01*
X243795Y115748D02*
X251795D01*
X247795Y111748D02*
Y119748D01*
X250704Y121029D02*
X249795Y117748D01*
X250704Y121029D02*
X251613Y117748D01*
X250136Y118842D02*
X251273D01*
X253795Y115748D02*
X261795D01*
X257795Y111748D02*
Y119748D01*
X260704Y121029D02*
X259795Y117748D01*
X260704Y121029D02*
X261613Y117748D01*
X260136Y118842D02*
X261273D01*
X263795Y115748D02*
X271795D01*
X267795Y111748D02*
Y119748D01*
X270704Y121029D02*
X269795Y117748D01*
X270704Y121029D02*
X271613Y117748D01*
X270136Y118842D02*
X271273D01*
X273795Y115748D02*
X281795D01*
X277795Y111748D02*
Y119748D01*
X280704Y121029D02*
X279795Y117748D01*
X280704Y121029D02*
X281613Y117748D01*
X280136Y118842D02*
X281273D01*
X228992Y467717D02*
X236992D01*
X232992Y463717D02*
Y471717D01*
X235901Y472998D02*
X234992Y469717D01*
X235901Y472998D02*
X236810Y469717D01*
X235333Y470810D02*
X236469D01*
X238992Y467717D02*
X246992D01*
X242992Y463717D02*
Y471717D01*
X245901Y472998D02*
X244992Y469717D01*
X245901Y472998D02*
X246810Y469717D01*
X245333Y470810D02*
X246469D01*
X213047Y206299D02*
X221047D01*
X217047Y202299D02*
Y210299D01*
X219956Y211580D02*
X219047Y208299D01*
X219956Y211580D02*
X220865Y208299D01*
X219388Y209393D02*
X220525D01*
X223047Y206299D02*
X231047D01*
X227047Y202299D02*
Y210299D01*
X229956Y211580D02*
X229047Y208299D01*
X229956Y211580D02*
X230865Y208299D01*
X229388Y209393D02*
X230525D01*
X213047Y170866D02*
X221047D01*
X217047Y166866D02*
Y174866D01*
X219956Y176147D02*
X219047Y172866D01*
X219956Y176147D02*
X220865Y172866D01*
X219388Y173960D02*
X220525D01*
X223047Y170866D02*
X231047D01*
X227047Y166866D02*
Y174866D01*
X229956Y176147D02*
X229047Y172866D01*
X229956Y176147D02*
X230865Y172866D01*
X229388Y173960D02*
X230525D01*
X203205Y344094D02*
X211205D01*
X207205Y340094D02*
Y348094D01*
X210114Y349376D02*
X209205Y346094D01*
X210114Y349376D02*
X211023Y346094D01*
X209546Y347188D02*
X210682D01*
X213205Y344094D02*
X221205D01*
X217205Y340094D02*
Y348094D01*
X220114Y349376D02*
X219205Y346094D01*
X220114Y349376D02*
X221023Y346094D01*
X219546Y347188D02*
X220682D01*
X192811Y240157D02*
X200811D01*
X196811Y236157D02*
Y244157D01*
X199720Y245439D02*
X198811Y242157D01*
X199720Y245439D02*
X200629Y242157D01*
X199152Y243251D02*
X200288D01*
X222811Y240157D02*
X230811D01*
X226811Y236157D02*
Y244157D01*
X229720Y245439D02*
X228811Y242157D01*
X229720Y245439D02*
X230629Y242157D01*
X229152Y243251D02*
X230288D01*
X192811Y227559D02*
X200811D01*
X196811Y223559D02*
Y231559D01*
X199720Y232840D02*
X198811Y229559D01*
X199720Y232840D02*
X200629Y229559D01*
X199152Y230653D02*
X200288D01*
X222811Y227559D02*
X230811D01*
X226811Y223559D02*
Y231559D01*
X229720Y232840D02*
X228811Y229559D01*
X229720Y232840D02*
X230629Y229559D01*
X229152Y230653D02*
X230288D01*
X249110Y315787D02*
X257110D01*
X253110Y311787D02*
Y319787D01*
X256019Y321069D02*
X255110Y317787D01*
X256019Y321069D02*
X256928Y317787D01*
X255451Y318881D02*
X256588D01*
X239110Y315787D02*
X247110D01*
X243110Y311787D02*
Y319787D01*
X246019Y321069D02*
X245110Y317787D01*
X246019Y321069D02*
X246928Y317787D01*
X245451Y318881D02*
X246588D01*
X229110Y315787D02*
X237110D01*
X233110Y311787D02*
Y319787D01*
X236019Y321069D02*
X235110Y317787D01*
X236019Y321069D02*
X236928Y317787D01*
X235451Y318881D02*
X236588D01*
X219110Y315787D02*
X227110D01*
X223110Y311787D02*
Y319787D01*
X226019Y321069D02*
X225110Y317787D01*
X226019Y321069D02*
X226928Y317787D01*
X225451Y318881D02*
X226588D01*
X209110Y315787D02*
X217110D01*
X213110Y311787D02*
Y319787D01*
X216019Y321069D02*
X215110Y317787D01*
X216019Y321069D02*
X216928Y317787D01*
X215451Y318881D02*
X216588D01*
X199110Y315787D02*
X207110D01*
X203110Y311787D02*
Y319787D01*
X206019Y321069D02*
X205110Y317787D01*
X206019Y321069D02*
X206928Y317787D01*
X205451Y318881D02*
X206588D01*
X189110Y315787D02*
X197110D01*
X193110Y311787D02*
Y319787D01*
X196019Y321069D02*
X195110Y317787D01*
X196019Y321069D02*
X196928Y317787D01*
X195451Y318881D02*
X196588D01*
X179110Y315787D02*
X187110D01*
X183110Y311787D02*
Y319787D01*
X186019Y321069D02*
X185110Y317787D01*
X186019Y321069D02*
X186928Y317787D01*
X185451Y318881D02*
X186588D01*
X179110Y285787D02*
X187110D01*
X183110Y281787D02*
Y289787D01*
X186019Y291069D02*
X185110Y287787D01*
X186019Y291069D02*
X186928Y287787D01*
X185451Y288881D02*
X186588D01*
X189110Y285787D02*
X197110D01*
X193110Y281787D02*
Y289787D01*
X196019Y291069D02*
X195110Y287787D01*
X196019Y291069D02*
X196928Y287787D01*
X195451Y288881D02*
X196588D01*
X199110Y285787D02*
X207110D01*
X203110Y281787D02*
Y289787D01*
X206019Y291069D02*
X205110Y287787D01*
X206019Y291069D02*
X206928Y287787D01*
X205451Y288881D02*
X206588D01*
X209110Y285787D02*
X217110D01*
X213110Y281787D02*
Y289787D01*
X216019Y291069D02*
X215110Y287787D01*
X216019Y291069D02*
X216928Y287787D01*
X215451Y288881D02*
X216588D01*
X219110Y285787D02*
X227110D01*
X223110Y281787D02*
Y289787D01*
X226019Y291069D02*
X225110Y287787D01*
X226019Y291069D02*
X226928Y287787D01*
X225451Y288881D02*
X226588D01*
X229110Y285787D02*
X237110D01*
X233110Y281787D02*
Y289787D01*
X236019Y291069D02*
X235110Y287787D01*
X236019Y291069D02*
X236928Y287787D01*
X235451Y288881D02*
X236588D01*
X239110Y285787D02*
X247110D01*
X243110Y281787D02*
Y289787D01*
X246019Y291069D02*
X245110Y287787D01*
X246019Y291069D02*
X246928Y287787D01*
X245451Y288881D02*
X246588D01*
X249110Y285787D02*
X257110D01*
X253110Y281787D02*
Y289787D01*
X256019Y291069D02*
X255110Y287787D01*
X256019Y291069D02*
X256928Y287787D01*
X255451Y288881D02*
X256588D01*
X169740Y344094D02*
X177740D01*
X173740Y340094D02*
Y348094D01*
X176649Y349376D02*
X175740Y346094D01*
X176649Y349376D02*
X177558Y346094D01*
X176081Y347188D02*
X177217D01*
X179740Y344094D02*
X187740D01*
X183740Y340094D02*
Y348094D01*
X186649Y349376D02*
X185740Y346094D01*
X186649Y349376D02*
X187558Y346094D01*
X186081Y347188D02*
X187217D01*
X167614Y475630D02*
X175614D01*
X171614Y471630D02*
Y479630D01*
X174523Y480911D02*
X173614Y477630D01*
X174523Y480911D02*
X175432Y477630D01*
X173955Y478724D02*
X175091D01*
X167614Y465630D02*
X175614D01*
X171614Y461630D02*
Y469630D01*
X174523Y470911D02*
X173614Y467630D01*
X174523Y470911D02*
X175432Y467630D01*
X173955Y468724D02*
X175091D01*
X167614Y455630D02*
X175614D01*
X171614Y451630D02*
Y459630D01*
X174523Y460911D02*
X173614Y457630D01*
X174523Y460911D02*
X175432Y457630D01*
X173955Y458724D02*
X175091D01*
X167614Y445630D02*
X175614D01*
X171614Y441630D02*
Y449630D01*
X174523Y450911D02*
X173614Y447630D01*
X174523Y450911D02*
X175432Y447630D01*
X173955Y448724D02*
X175091D01*
X197614Y445630D02*
X205614D01*
X201614Y441630D02*
Y449630D01*
X204523Y450911D02*
X203614Y447630D01*
X204523Y450911D02*
X205432Y447630D01*
X203955Y448724D02*
X205091D01*
X197614Y455630D02*
X205614D01*
X201614Y451630D02*
Y459630D01*
X204523Y460911D02*
X203614Y457630D01*
X204523Y460911D02*
X205432Y457630D01*
X203955Y458724D02*
X205091D01*
X197614Y465630D02*
X205614D01*
X201614Y461630D02*
Y469630D01*
X204523Y470911D02*
X203614Y467630D01*
X204523Y470911D02*
X205432Y467630D01*
X203955Y468724D02*
X205091D01*
X197614Y475630D02*
X205614D01*
X201614Y471630D02*
Y479630D01*
X204523Y480911D02*
X203614Y477630D01*
X204523Y480911D02*
X205432Y477630D01*
X203955Y478724D02*
X205091D01*
X197496Y430709D02*
X205496D01*
X201496Y426709D02*
Y434709D01*
X204405Y435990D02*
X203496Y432709D01*
X204405Y435990D02*
X205314Y432709D01*
X203837Y433802D02*
X204973D01*
X157496Y430709D02*
X165496D01*
X161496Y426709D02*
Y434709D01*
X164405Y435990D02*
X163496Y432709D01*
X164405Y435990D02*
X165314Y432709D01*
X163837Y433802D02*
X164973D01*
X151118Y115748D02*
X159118D01*
X155118Y111748D02*
Y119748D01*
X158027Y121029D02*
X157118Y117748D01*
X158027Y121029D02*
X158936Y117748D01*
X157459Y118842D02*
X158595D01*
X161118Y115748D02*
X169118D01*
X165118Y111748D02*
Y119748D01*
X168027Y121029D02*
X167118Y117748D01*
X168027Y121029D02*
X168936Y117748D01*
X167459Y118842D02*
X168595D01*
X171118Y115748D02*
X179118D01*
X175118Y111748D02*
Y119748D01*
X178027Y121029D02*
X177118Y117748D01*
X178027Y121029D02*
X178936Y117748D01*
X177459Y118842D02*
X178595D01*
X181118Y115748D02*
X189118D01*
X185118Y111748D02*
Y119748D01*
X188027Y121029D02*
X187118Y117748D01*
X188027Y121029D02*
X188936Y117748D01*
X187459Y118842D02*
X188595D01*
X105921Y477953D02*
X113921D01*
X109921Y473953D02*
Y481953D01*
X112830Y483234D02*
X111921Y479953D01*
X112830Y483234D02*
X113739Y479953D01*
X112262Y481047D02*
X113399D01*
X145921Y477953D02*
X153921D01*
X149921Y473953D02*
Y481953D01*
X152830Y483234D02*
X151921Y479953D01*
X152830Y483234D02*
X153739Y479953D01*
X152262Y481047D02*
X153399D01*
X105921Y466142D02*
X113921D01*
X109921Y462142D02*
Y470142D01*
X112830Y471423D02*
X111921Y468142D01*
X112830Y471423D02*
X113739Y468142D01*
X112262Y469235D02*
X113399D01*
X145921Y466142D02*
X153921D01*
X149921Y462142D02*
Y470142D01*
X152830Y471423D02*
X151921Y468142D01*
X152830Y471423D02*
X153739Y468142D01*
X152262Y469235D02*
X153399D01*
X145921Y454331D02*
X153921D01*
X149921Y450331D02*
Y458331D01*
X152830Y459612D02*
X151921Y456331D01*
X152830Y459612D02*
X153739Y456331D01*
X152262Y457424D02*
X153399D01*
X105921Y454331D02*
X113921D01*
X109921Y450331D02*
Y458331D01*
X112830Y459612D02*
X111921Y456331D01*
X112830Y459612D02*
X113739Y456331D01*
X112262Y457424D02*
X113399D01*
X145921Y442520D02*
X153921D01*
X149921Y438520D02*
Y446520D01*
X152830Y447801D02*
X151921Y444520D01*
X152830Y447801D02*
X153739Y444520D01*
X152262Y445613D02*
X153399D01*
X105921Y442520D02*
X113921D01*
X109921Y438520D02*
Y446520D01*
X112830Y447801D02*
X111921Y444520D01*
X112830Y447801D02*
X113739Y444520D01*
X112262Y445613D02*
X113399D01*
X145921Y430709D02*
X153921D01*
X149921Y426709D02*
Y434709D01*
X152830Y435990D02*
X151921Y432709D01*
X152830Y435990D02*
X153739Y432709D01*
X152262Y433802D02*
X153399D01*
X105921Y430709D02*
X113921D01*
X109921Y426709D02*
Y434709D01*
X112830Y435990D02*
X111921Y432709D01*
X112830Y435990D02*
X113739Y432709D01*
X112262Y433802D02*
X113399D01*
X105921Y418898D02*
X113921D01*
X109921Y414898D02*
Y422898D01*
X112830Y424179D02*
X111921Y420898D01*
X112830Y424179D02*
X113739Y420898D01*
X112262Y421991D02*
X113399D01*
X145921Y418898D02*
X153921D01*
X149921Y414898D02*
Y422898D01*
X152830Y424179D02*
X151921Y420898D01*
X152830Y424179D02*
X153739Y420898D01*
X152262Y421991D02*
X153399D01*
X105961Y489764D02*
X113961D01*
X109961Y485764D02*
Y493764D01*
X112870Y495045D02*
X111961Y491764D01*
X112870Y495045D02*
X113779Y491764D01*
X112302Y492858D02*
X113438D01*
X115961Y489764D02*
X123961D01*
X119961Y485764D02*
Y493764D01*
X122870Y495045D02*
X121961Y491764D01*
X122870Y495045D02*
X123779Y491764D01*
X122302Y492858D02*
X123438D01*
X130331Y309291D02*
X138331D01*
X134331Y305291D02*
Y313291D01*
X136331Y314573D02*
Y311291D01*
Y314573D02*
X137808D01*
X136331Y313010D02*
X137240D01*
X136331Y311291D02*
X137808D01*
X130331Y320197D02*
X138331D01*
X134331Y316197D02*
Y324197D01*
X136331Y325478D02*
Y322197D01*
Y325478D02*
X137808D01*
X136331Y323916D02*
X137240D01*
X136331Y322197D02*
X137808D01*
X130331Y331102D02*
X138331D01*
X134331Y327102D02*
Y335102D01*
X136331Y336384D02*
Y333102D01*
Y336384D02*
X137808D01*
X136331Y334821D02*
X137240D01*
X136331Y333102D02*
X137808D01*
X130331Y342008D02*
X138331D01*
X134331Y338008D02*
Y346008D01*
X136331Y347289D02*
Y344008D01*
Y347289D02*
X137808D01*
X136331Y345727D02*
X137240D01*
X136331Y344008D02*
X137808D01*
X130331Y352913D02*
X138331D01*
X134331Y348913D02*
Y356913D01*
X136331Y358195D02*
Y354913D01*
Y358195D02*
X137808D01*
X136331Y356632D02*
X137240D01*
X136331Y354913D02*
X137808D01*
X119150Y314744D02*
X127150D01*
X123150Y310744D02*
Y318744D01*
X125150Y320025D02*
Y316744D01*
Y320025D02*
X126627D01*
X125150Y318463D02*
X126059D01*
X125150Y316744D02*
X126627D01*
X119150Y325650D02*
X127150D01*
X123150Y321650D02*
Y329650D01*
X125150Y330931D02*
Y327650D01*
Y330931D02*
X126627D01*
X125150Y329368D02*
X126059D01*
X125150Y327650D02*
X126627D01*
X119150Y336555D02*
X127150D01*
X123150Y332555D02*
Y340555D01*
X125150Y341836D02*
Y338555D01*
Y341836D02*
X126627D01*
X125150Y340274D02*
X126059D01*
X125150Y338555D02*
X126627D01*
X119150Y347461D02*
X127150D01*
X123150Y343461D02*
Y351461D01*
X125150Y352742D02*
Y349461D01*
Y352742D02*
X126627D01*
X125150Y351179D02*
X126059D01*
X125150Y349461D02*
X126627D01*
X124740Y380709D02*
X132740D01*
X128740Y376709D02*
Y384709D01*
X130740Y385990D02*
Y382709D01*
Y385990D02*
X131536D01*
X131877Y385834*
X132104Y385521*
X132217Y385209*
X132331Y384740*
Y383959*
X132217Y383490*
X132104Y383177*
X131877Y382865*
X131536Y382709*
X130740*
X124740Y281496D02*
X132740D01*
X128740Y277496D02*
Y285496D01*
X130740Y286777D02*
Y283496D01*
Y286777D02*
X131536D01*
X131877Y286621*
X132104Y286309*
X132217Y285996*
X132331Y285527*
Y284746*
X132217Y284277*
X132104Y283965*
X131877Y283652*
X131536Y283496*
X130740*
X196000Y200000D02*
X204000D01*
X200000Y196000D02*
Y204000D01*
X203705Y204500D02*
X203591Y204813D01*
X203591D02*
X203364Y205125D01*
X203136Y205281*
X202682*
X202455Y205125*
X202227Y204813*
X202227D02*
X202114Y204500D01*
X202000Y204031*
Y203250*
X202114Y202781*
X202227Y202469*
X202455Y202156*
X202682Y202000*
X203136*
X203364Y202156*
X203591Y202469*
X203705Y202781*
X116866Y200000D02*
X124866D01*
X120866Y196000D02*
Y204000D01*
X124571Y204500D02*
X124457Y204813D01*
X124457D02*
X124230Y205125D01*
X124003Y205281*
X123548*
X123321Y205125*
X123093Y204813*
X123093D02*
X122980Y204500D01*
X122866Y204031*
Y203250*
X122980Y202781*
X123093Y202469*
X123321Y202156*
X123548Y202000*
X124003*
X124230Y202156*
X124457Y202469*
X124571Y202781*
X111748Y111748D02*
X119748Y119748D01*
Y111748*
X111748Y119748*
Y111748*
Y123622D02*
X119748D01*
X115748Y119622D02*
Y127622D01*
X117315Y121315D02*
X125315D01*
X121315Y117315D02*
Y125315D01*
X119622Y115748D02*
X127622D01*
X123622Y111748D02*
Y119748D01*
X117315Y110181D02*
X125315D01*
X121315Y106181D02*
Y114181D01*
X111748Y107874D02*
X119748D01*
X115748Y103874D02*
Y111874D01*
X106181Y110181D02*
X114181D01*
X110181Y106181D02*
Y114181D01*
X103874Y115748D02*
X111874D01*
X107874Y111748D02*
Y119748D01*
X106181Y121315D02*
X114181D01*
X110181Y117315D02*
Y125315D01*
X111748Y611748D02*
X119748Y619748D01*
Y611748*
X111748Y619748*
Y611748*
Y623622D02*
X119748D01*
X115748Y619622D02*
Y627622D01*
X117315Y621315D02*
X125315D01*
X121315Y617315D02*
Y625315D01*
X119622Y615748D02*
X127622D01*
X123622Y611748D02*
Y619748D01*
X117315Y610181D02*
X125315D01*
X121315Y606181D02*
Y614181D01*
X111748Y607874D02*
X119748D01*
X115748Y603874D02*
Y611874D01*
X106181Y610181D02*
X114181D01*
X110181Y606181D02*
Y614181D01*
X103874Y615748D02*
X111874D01*
X107874Y611748D02*
Y619748D01*
X106181Y621315D02*
X114181D01*
X110181Y617315D02*
Y625315D01*
X808598Y611748D02*
X816598Y619748D01*
Y611748*
X808598Y619748*
Y611748*
Y623622D02*
X816598D01*
X812598Y619622D02*
Y627622D01*
X814165Y621315D02*
X822165D01*
X818165Y617315D02*
Y625315D01*
X816472Y615748D02*
X824472D01*
X820472Y611748D02*
Y619748D01*
X814165Y610181D02*
X822165D01*
X818165Y606181D02*
Y614181D01*
X808598Y607874D02*
X816598D01*
X812598Y603874D02*
Y611874D01*
X803031Y610181D02*
X811031D01*
X807031Y606181D02*
Y614181D01*
X800724Y615748D02*
X808724D01*
X804724Y611748D02*
Y619748D01*
X803031Y621315D02*
X811031D01*
X807031Y617315D02*
Y625315D01*
X808598Y111748D02*
X816598Y119748D01*
Y111748*
X808598Y119748*
Y111748*
Y123622D02*
X816598D01*
X812598Y119622D02*
Y127622D01*
X814165Y121315D02*
X822165D01*
X818165Y117315D02*
Y125315D01*
X816472Y115748D02*
X824472D01*
X820472Y111748D02*
Y119748D01*
X814165Y110181D02*
X822165D01*
X818165Y106181D02*
Y114181D01*
X808598Y107874D02*
X816598D01*
X812598Y103874D02*
Y111874D01*
X803031Y110181D02*
X811031D01*
X807031Y106181D02*
Y114181D01*
X800724Y115748D02*
X808724D01*
X804724Y111748D02*
Y119748D01*
X803031Y121315D02*
X811031D01*
X807031Y117315D02*
Y125315D01*
X145906Y586382D02*
X153906D01*
X149906Y582382D02*
Y590382D01*
X152815Y591663D02*
X151906Y588382D01*
X152815Y591663D02*
X153724Y588382D01*
X152246Y589476D02*
X153383D01*
X145906Y576382D02*
X153906D01*
X149906Y572382D02*
Y580382D01*
X152815Y581663D02*
X151906Y578382D01*
X152815Y581663D02*
X153724Y578382D01*
X152246Y579476D02*
X153383D01*
X145906Y566382D02*
X153906D01*
X149906Y562382D02*
Y570382D01*
X152815Y571663D02*
X151906Y568382D01*
X152815Y571663D02*
X153724Y568382D01*
X152246Y569476D02*
X153383D01*
X145906Y556382D02*
X153906D01*
X149906Y552382D02*
Y560382D01*
X152815Y561663D02*
X151906Y558382D01*
X152815Y561663D02*
X153724Y558382D01*
X152246Y559476D02*
X153383D01*
X145906Y546382D02*
X153906D01*
X149906Y542382D02*
Y550382D01*
X152815Y551663D02*
X151906Y548382D01*
X152815Y551663D02*
X153724Y548382D01*
X152246Y549476D02*
X153383D01*
X215906Y586382D02*
X223906D01*
X219906Y582382D02*
Y590382D01*
X222815Y591663D02*
X221906Y588382D01*
X222815Y591663D02*
X223724Y588382D01*
X222246Y589476D02*
X223383D01*
X215906Y576382D02*
X223906D01*
X219906Y572382D02*
Y580382D01*
X222815Y581663D02*
X221906Y578382D01*
X222815Y581663D02*
X223724Y578382D01*
X222246Y579476D02*
X223383D01*
X215906Y566382D02*
X223906D01*
X219906Y562382D02*
Y570382D01*
X222815Y571663D02*
X221906Y568382D01*
X222815Y571663D02*
X223724Y568382D01*
X222246Y569476D02*
X223383D01*
X215906Y556382D02*
X223906D01*
X219906Y552382D02*
Y560382D01*
X222815Y561663D02*
X221906Y558382D01*
X222815Y561663D02*
X223724Y558382D01*
X222246Y559476D02*
X223383D01*
X215906Y546382D02*
X223906D01*
X219906Y542382D02*
Y550382D01*
X222815Y551663D02*
X221906Y548382D01*
X222815Y551663D02*
X223724Y548382D01*
X222246Y549476D02*
X223383D01*
X155906Y596382D02*
X163906D01*
X159906Y592382D02*
Y600382D01*
X162815Y601663D02*
X161906Y598382D01*
X162815Y601663D02*
X163724Y598382D01*
X162246Y599476D02*
X163383D01*
X165906Y596382D02*
X173906D01*
X169906Y592382D02*
Y600382D01*
X172815Y601663D02*
X171906Y598382D01*
X172815Y601663D02*
X173724Y598382D01*
X172246Y599476D02*
X173383D01*
X175906Y596382D02*
X183906D01*
X179906Y592382D02*
Y600382D01*
X182815Y601663D02*
X181906Y598382D01*
X182815Y601663D02*
X183724Y598382D01*
X182246Y599476D02*
X183383D01*
X185906Y596382D02*
X193906D01*
X189906Y592382D02*
Y600382D01*
X192815Y601663D02*
X191906Y598382D01*
X192815Y601663D02*
X193724Y598382D01*
X192246Y599476D02*
X193383D01*
X195906Y596382D02*
X203906D01*
X199906Y592382D02*
Y600382D01*
X202815Y601663D02*
X201906Y598382D01*
X202815Y601663D02*
X203724Y598382D01*
X202246Y599476D02*
X203383D01*
X205906Y596382D02*
X213906D01*
X209906Y592382D02*
Y600382D01*
X212815Y601663D02*
X211906Y598382D01*
X212815Y601663D02*
X213724Y598382D01*
X212246Y599476D02*
X213383D01*
X155906Y586382D02*
X163906D01*
X159906Y582382D02*
Y590382D01*
X162815Y591663D02*
X161906Y588382D01*
X162815Y591663D02*
X163724Y588382D01*
X162246Y589476D02*
X163383D01*
X165906Y586382D02*
X173906D01*
X169906Y582382D02*
Y590382D01*
X172815Y591663D02*
X171906Y588382D01*
X172815Y591663D02*
X173724Y588382D01*
X172246Y589476D02*
X173383D01*
X175906Y586382D02*
X183906D01*
X179906Y582382D02*
Y590382D01*
X182815Y591663D02*
X181906Y588382D01*
X182815Y591663D02*
X183724Y588382D01*
X182246Y589476D02*
X183383D01*
X185906Y586382D02*
X193906D01*
X189906Y582382D02*
Y590382D01*
X192815Y591663D02*
X191906Y588382D01*
X192815Y591663D02*
X193724Y588382D01*
X192246Y589476D02*
X193383D01*
X195906Y586382D02*
X203906D01*
X199906Y582382D02*
Y590382D01*
X202815Y591663D02*
X201906Y588382D01*
X202815Y591663D02*
X203724Y588382D01*
X202246Y589476D02*
X203383D01*
X205906Y586382D02*
X213906D01*
X209906Y582382D02*
Y590382D01*
X212815Y591663D02*
X211906Y588382D01*
X212815Y591663D02*
X213724Y588382D01*
X212246Y589476D02*
X213383D01*
X155906Y576382D02*
X163906D01*
X159906Y572382D02*
Y580382D01*
X162815Y581663D02*
X161906Y578382D01*
X162815Y581663D02*
X163724Y578382D01*
X162246Y579476D02*
X163383D01*
X165906Y576382D02*
X173906D01*
X169906Y572382D02*
Y580382D01*
X172815Y581663D02*
X171906Y578382D01*
X172815Y581663D02*
X173724Y578382D01*
X172246Y579476D02*
X173383D01*
X175906Y576382D02*
X183906D01*
X179906Y572382D02*
Y580382D01*
X182815Y581663D02*
X181906Y578382D01*
X182815Y581663D02*
X183724Y578382D01*
X182246Y579476D02*
X183383D01*
X185906Y576382D02*
X193906D01*
X189906Y572382D02*
Y580382D01*
X192815Y581663D02*
X191906Y578382D01*
X192815Y581663D02*
X193724Y578382D01*
X192246Y579476D02*
X193383D01*
X195906Y576382D02*
X203906D01*
X199906Y572382D02*
Y580382D01*
X202815Y581663D02*
X201906Y578382D01*
X202815Y581663D02*
X203724Y578382D01*
X202246Y579476D02*
X203383D01*
X205906Y576382D02*
X213906D01*
X209906Y572382D02*
Y580382D01*
X212815Y581663D02*
X211906Y578382D01*
X212815Y581663D02*
X213724Y578382D01*
X212246Y579476D02*
X213383D01*
X155906Y566382D02*
X163906D01*
X159906Y562382D02*
Y570382D01*
X162815Y571663D02*
X161906Y568382D01*
X162815Y571663D02*
X163724Y568382D01*
X162246Y569476D02*
X163383D01*
X165906Y566382D02*
X173906D01*
X169906Y562382D02*
Y570382D01*
X172815Y571663D02*
X171906Y568382D01*
X172815Y571663D02*
X173724Y568382D01*
X172246Y569476D02*
X173383D01*
X175906Y566382D02*
X183906D01*
X179906Y562382D02*
Y570382D01*
X182815Y571663D02*
X181906Y568382D01*
X182815Y571663D02*
X183724Y568382D01*
X182246Y569476D02*
X183383D01*
X185906Y566382D02*
X193906D01*
X189906Y562382D02*
Y570382D01*
X192815Y571663D02*
X191906Y568382D01*
X192815Y571663D02*
X193724Y568382D01*
X192246Y569476D02*
X193383D01*
X195906Y566382D02*
X203906D01*
X199906Y562382D02*
Y570382D01*
X202815Y571663D02*
X201906Y568382D01*
X202815Y571663D02*
X203724Y568382D01*
X202246Y569476D02*
X203383D01*
X205906Y566382D02*
X213906D01*
X209906Y562382D02*
Y570382D01*
X212815Y571663D02*
X211906Y568382D01*
X212815Y571663D02*
X213724Y568382D01*
X212246Y569476D02*
X213383D01*
X155906Y556382D02*
X163906D01*
X159906Y552382D02*
Y560382D01*
X162815Y561663D02*
X161906Y558382D01*
X162815Y561663D02*
X163724Y558382D01*
X162246Y559476D02*
X163383D01*
X165906Y556382D02*
X173906D01*
X169906Y552382D02*
Y560382D01*
X172815Y561663D02*
X171906Y558382D01*
X172815Y561663D02*
X173724Y558382D01*
X172246Y559476D02*
X173383D01*
X175906Y556382D02*
X183906D01*
X179906Y552382D02*
Y560382D01*
X182815Y561663D02*
X181906Y558382D01*
X182815Y561663D02*
X183724Y558382D01*
X182246Y559476D02*
X183383D01*
X185906Y556382D02*
X193906D01*
X189906Y552382D02*
Y560382D01*
X192815Y561663D02*
X191906Y558382D01*
X192815Y561663D02*
X193724Y558382D01*
X192246Y559476D02*
X193383D01*
X195906Y556382D02*
X203906D01*
X199906Y552382D02*
Y560382D01*
X202815Y561663D02*
X201906Y558382D01*
X202815Y561663D02*
X203724Y558382D01*
X202246Y559476D02*
X203383D01*
X205906Y556382D02*
X213906D01*
X209906Y552382D02*
Y560382D01*
X212815Y561663D02*
X211906Y558382D01*
X212815Y561663D02*
X213724Y558382D01*
X212246Y559476D02*
X213383D01*
X155906Y546382D02*
X163906D01*
X159906Y542382D02*
Y550382D01*
X162815Y551663D02*
X161906Y548382D01*
X162815Y551663D02*
X163724Y548382D01*
X162246Y549476D02*
X163383D01*
X165906Y546382D02*
X173906D01*
X169906Y542382D02*
Y550382D01*
X172815Y551663D02*
X171906Y548382D01*
X172815Y551663D02*
X173724Y548382D01*
X172246Y549476D02*
X173383D01*
X175906Y546382D02*
X183906D01*
X179906Y542382D02*
Y550382D01*
X182815Y551663D02*
X181906Y548382D01*
X182815Y551663D02*
X183724Y548382D01*
X182246Y549476D02*
X183383D01*
X185906Y546382D02*
X193906D01*
X189906Y542382D02*
Y550382D01*
X192815Y551663D02*
X191906Y548382D01*
X192815Y551663D02*
X193724Y548382D01*
X192246Y549476D02*
X193383D01*
X195906Y546382D02*
X203906D01*
X199906Y542382D02*
Y550382D01*
X202815Y551663D02*
X201906Y548382D01*
X202815Y551663D02*
X203724Y548382D01*
X202246Y549476D02*
X203383D01*
X205906Y546382D02*
X213906D01*
X209906Y542382D02*
Y550382D01*
X212815Y551663D02*
X211906Y548382D01*
X212815Y551663D02*
X213724Y548382D01*
X212246Y549476D02*
X213383D01*
X155906Y536382D02*
X163906D01*
X159906Y532382D02*
Y540382D01*
X162815Y541663D02*
X161906Y538382D01*
X162815Y541663D02*
X163724Y538382D01*
X162246Y539476D02*
X163383D01*
X165906Y536382D02*
X173906D01*
X169906Y532382D02*
Y540382D01*
X172815Y541663D02*
X171906Y538382D01*
X172815Y541663D02*
X173724Y538382D01*
X172246Y539476D02*
X173383D01*
X175906Y536382D02*
X183906D01*
X179906Y532382D02*
Y540382D01*
X182815Y541663D02*
X181906Y538382D01*
X182815Y541663D02*
X183724Y538382D01*
X182246Y539476D02*
X183383D01*
X185906Y536382D02*
X193906D01*
X189906Y532382D02*
Y540382D01*
X192815Y541663D02*
X191906Y538382D01*
X192815Y541663D02*
X193724Y538382D01*
X192246Y539476D02*
X193383D01*
X195906Y536382D02*
X203906D01*
X199906Y532382D02*
Y540382D01*
X202815Y541663D02*
X201906Y538382D01*
X202815Y541663D02*
X203724Y538382D01*
X202246Y539476D02*
X203383D01*
X205906Y536382D02*
X213906D01*
X209906Y532382D02*
Y540382D01*
X212815Y541663D02*
X211906Y538382D01*
X212815Y541663D02*
X213724Y538382D01*
X212246Y539476D02*
X213383D01*
X137151Y135433D02*
X145151D01*
X141151Y131433D02*
Y139433D01*
X176521Y135433D02*
X184521D01*
X180521Y131433D02*
Y139433D01*
X215891Y135433D02*
X223891D01*
X219891Y131433D02*
Y139433D01*
X255261Y135433D02*
X263261D01*
X259261Y131433D02*
Y139433D01*
X294631Y135433D02*
X302631D01*
X298631Y131433D02*
Y139433D01*
X334002Y135433D02*
X342002D01*
X338002Y131433D02*
Y139433D01*
X328283Y124016D02*
X336283D01*
X332283Y120016D02*
Y128016D01*
X326315Y126378D02*
X334315D01*
X330315Y122378D02*
Y130378D01*
X323953Y128346D02*
X331953D01*
X327953Y124346D02*
Y132346D01*
X319622Y132677D02*
X327622D01*
X323622Y128677D02*
Y136677D01*
X321984Y130709D02*
X329984D01*
X325984Y126709D02*
Y134709D01*
X373372Y135433D02*
X381372D01*
X377372Y131433D02*
Y139433D01*
X412742Y135433D02*
X420742D01*
X416742Y131433D02*
Y139433D01*
X452112Y135433D02*
X460112D01*
X456112Y131433D02*
Y139433D01*
X491482Y135433D02*
X499482D01*
X495482Y131433D02*
Y139433D01*
X530852Y135433D02*
X538852D01*
X534852Y131433D02*
Y139433D01*
X570222Y135433D02*
X578222D01*
X574222Y131433D02*
Y139433D01*
X609592Y135433D02*
X617592D01*
X613592Y131433D02*
Y139433D01*
X648962Y135433D02*
X656962D01*
X652962Y131433D02*
Y139433D01*
X688332Y135433D02*
X696332D01*
X692332Y131433D02*
Y139433D01*
X727702Y135433D02*
X735702D01*
X731702Y131433D02*
Y139433D01*
X767072Y135433D02*
X775072D01*
X771072Y131433D02*
Y139433D01*
X806443Y135433D02*
X814443D01*
X810443Y131433D02*
Y139433D01*
X558205Y145276D02*
X566205D01*
X562205Y141276D02*
Y149276D01*
X584189Y148756D02*
X592189Y156756D01*
X584189D02*
X592189Y148756D01*
X621197Y145276D02*
X629197D01*
X625197Y141276D02*
Y149276D01*
X684189Y145276D02*
X692189D01*
X688189Y141276D02*
Y149276D01*
X747181Y145276D02*
X755181D01*
X751181Y141276D02*
Y149276D01*
X137151Y174803D02*
X145151D01*
X141151Y170803D02*
Y178803D01*
X176521Y174803D02*
X184521D01*
X180521Y170803D02*
Y178803D01*
X294631Y174803D02*
X302631D01*
X298631Y170803D02*
Y178803D01*
X334002Y174803D02*
X342002D01*
X338002Y170803D02*
Y178803D01*
X373372Y174803D02*
X381372D01*
X377372Y170803D02*
Y178803D01*
X452112Y174803D02*
X460112D01*
X456112Y170803D02*
Y178803D01*
X491482Y174803D02*
X499482D01*
X495482Y170803D02*
Y178803D01*
X530852Y174803D02*
X538852D01*
X534852Y170803D02*
Y178803D01*
X570222Y174803D02*
X578222D01*
X574222Y170803D02*
Y178803D01*
X609592Y174803D02*
X617592D01*
X613592Y170803D02*
Y178803D01*
X648962Y174803D02*
X656962D01*
X652962Y170803D02*
Y178803D01*
X688332Y174803D02*
X696332D01*
X692332Y170803D02*
Y178803D01*
X767072Y174803D02*
X775072D01*
X771072Y170803D02*
Y178803D01*
X806443Y174803D02*
X814443D01*
X810443Y170803D02*
Y178803D01*
X308205Y190945D02*
X316205D01*
X312205Y186945D02*
Y194945D01*
X303874Y187795D02*
X311874D01*
X307874Y183795D02*
Y191795D01*
X314110Y187795D02*
X322110D01*
X318110Y183795D02*
Y191795D01*
X396000Y190551D02*
X404000D01*
X400000Y186551D02*
Y194551D01*
X392850Y187795D02*
X400850D01*
X396850Y183795D02*
Y191795D01*
X137151Y214173D02*
X145151D01*
X141151Y210173D02*
Y218173D01*
X176521Y214173D02*
X184521D01*
X180521Y210173D02*
Y218173D01*
X215891Y214173D02*
X223891D01*
X219891Y210173D02*
Y218173D01*
X255261Y214173D02*
X263261D01*
X259261Y210173D02*
Y218173D01*
X294631Y214173D02*
X302631D01*
X298631Y210173D02*
Y218173D01*
X334002Y214173D02*
X342002D01*
X338002Y210173D02*
Y218173D01*
X373372Y214173D02*
X381372D01*
X377372Y210173D02*
Y218173D01*
X570222Y214173D02*
X578222D01*
X574222Y210173D02*
Y218173D01*
X558205Y200394D02*
X566205D01*
X562205Y196394D02*
Y204394D01*
X609592Y214173D02*
X617592D01*
X613592Y210173D02*
Y218173D01*
X621197Y200394D02*
X629197D01*
X625197Y196394D02*
Y204394D01*
X648962Y214173D02*
X656962D01*
X652962Y210173D02*
Y218173D01*
X688332Y214173D02*
X696332D01*
X692332Y210173D02*
Y218173D01*
X684189Y200394D02*
X692189D01*
X688189Y196394D02*
Y204394D01*
X727702Y214173D02*
X735702D01*
X731702Y210173D02*
Y218173D01*
X747181Y200394D02*
X755181D01*
X751181Y196394D02*
Y204394D01*
X767072Y214173D02*
X775072D01*
X771072Y210173D02*
Y218173D01*
X806443Y214173D02*
X814443D01*
X810443Y210173D02*
Y218173D01*
X363717Y224740D02*
X371717Y232740D01*
X363717D02*
X371717Y224740D01*
X137151Y253543D02*
X145151D01*
X141151Y249543D02*
Y257543D01*
X176521Y253543D02*
X184521D01*
X180521Y249543D02*
Y257543D01*
X192850Y244425D02*
X200850Y252425D01*
X192850D02*
X200850Y244425D01*
X215891Y253543D02*
X223891D01*
X219891Y249543D02*
Y257543D01*
X255261Y253543D02*
X263261D01*
X259261Y249543D02*
Y257543D01*
X294631Y253543D02*
X302631D01*
X298631Y249543D02*
Y257543D01*
X278283Y244425D02*
X286283Y252425D01*
X278283D02*
X286283Y244425D01*
X334002Y253543D02*
X342002D01*
X338002Y249543D02*
Y257543D01*
X344425Y244425D02*
X352425Y252425D01*
X344425D02*
X352425Y244425D01*
X373372Y253543D02*
X381372D01*
X377372Y249543D02*
Y257543D01*
X452112Y253543D02*
X460112D01*
X456112Y249543D02*
Y257543D01*
X479071Y242126D02*
X487071D01*
X483071Y238126D02*
Y246126D01*
X530852Y253543D02*
X538852D01*
X534852Y249543D02*
Y257543D01*
X558205Y255512D02*
X566205D01*
X562205Y251512D02*
Y259512D01*
X621197Y255512D02*
X629197D01*
X625197Y251512D02*
Y259512D01*
X684189Y255512D02*
X692189D01*
X688189Y251512D02*
Y259512D01*
X747181Y255512D02*
X755181D01*
X751181Y251512D02*
Y259512D01*
X806443Y253543D02*
X814443D01*
X810443Y249543D02*
Y257543D01*
X295213Y273228D02*
X303213D01*
X299213Y269228D02*
Y277228D01*
X319622Y264173D02*
X327622D01*
X323622Y260173D02*
Y268173D01*
X321984Y261811D02*
X329984D01*
X325984Y257811D02*
Y265811D01*
X137151Y292913D02*
X145151D01*
X141151Y288913D02*
Y296913D01*
X176521Y292913D02*
X184521D01*
X180521Y288913D02*
Y296913D01*
X255261Y292913D02*
X263261D01*
X259261Y288913D02*
Y296913D01*
X294631Y292913D02*
X302631D01*
X298631Y288913D02*
Y296913D01*
X315291Y273559D02*
X323291Y281559D01*
X315291D02*
X323291Y273559D01*
X299543Y277165D02*
X307543D01*
X303543Y273165D02*
Y281165D01*
X334002Y292913D02*
X342002D01*
X338002Y288913D02*
Y296913D01*
X358205Y273559D02*
X366205Y281559D01*
X358205D02*
X366205Y273559D01*
X413323D02*
X421323Y281559D01*
X413323D02*
X421323Y273559D01*
X530852Y292913D02*
X538852D01*
X534852Y288913D02*
Y296913D01*
X806443Y292913D02*
X814443D01*
X810443Y288913D02*
Y296913D01*
X155449Y312205D02*
X163449D01*
X159449Y308205D02*
Y316205D01*
X386945Y312598D02*
X394945D01*
X390945Y308598D02*
Y316598D01*
X429465Y307417D02*
X437465Y315417D01*
X429465D02*
X437465Y307417D01*
X558205Y310630D02*
X566205D01*
X562205Y306630D02*
Y314630D01*
X621197Y310630D02*
X629197D01*
X625197Y306630D02*
Y314630D01*
X684189Y310630D02*
X692189D01*
X688189Y306630D02*
Y314630D01*
X747181Y310630D02*
X755181D01*
X751181Y306630D02*
Y314630D01*
X176521Y332283D02*
X184521D01*
X180521Y328283D02*
Y336283D01*
X215891Y332283D02*
X223891D01*
X219891Y328283D02*
Y336283D01*
X255261Y332283D02*
X263261D01*
X259261Y328283D02*
Y336283D01*
X384583Y319291D02*
X392583D01*
X388583Y315291D02*
Y323291D01*
X448362Y329921D02*
X456362D01*
X452362Y325921D02*
Y333921D01*
X451118Y327165D02*
X459118D01*
X455118Y323165D02*
Y331165D01*
X453874Y324409D02*
X461874D01*
X457874Y320409D02*
Y328409D01*
X456630Y321654D02*
X464630D01*
X460630Y317654D02*
Y325654D01*
X505055Y329921D02*
X513055D01*
X509055Y325921D02*
Y333921D01*
X501906Y327165D02*
X509906D01*
X505906Y323165D02*
Y331165D01*
X507811Y321654D02*
X515811D01*
X511811Y317654D02*
Y325654D01*
X539701Y334646D02*
X547701D01*
X543701Y330646D02*
Y338646D01*
X570222Y332283D02*
X578222D01*
X574222Y328283D02*
Y336283D01*
X609592Y332283D02*
X617592D01*
X613592Y328283D02*
Y336283D01*
X648962Y332283D02*
X656962D01*
X652962Y328283D02*
Y336283D01*
X767072Y332283D02*
X775072D01*
X771072Y328283D02*
Y336283D01*
X806443Y332283D02*
X814443D01*
X810443Y328283D02*
Y336283D01*
X411748Y356299D02*
X419748D01*
X415748Y352299D02*
Y360299D01*
X438913Y341669D02*
X446913Y349669D01*
X438913D02*
X446913Y341669D01*
X493638Y350787D02*
X501638D01*
X497638Y346787D02*
Y354787D01*
X503874Y353150D02*
X511874D01*
X507874Y349150D02*
Y357150D01*
X534976Y338976D02*
X542976D01*
X538976Y334976D02*
Y342976D01*
X537339Y337008D02*
X545339D01*
X541339Y333008D02*
Y341008D01*
X570409Y356299D02*
X578409D01*
X574409Y352299D02*
Y360299D01*
X137151Y371654D02*
X145151D01*
X141151Y367654D02*
Y375654D01*
X176521Y371654D02*
X184521D01*
X180521Y367654D02*
Y375654D01*
X215891Y371654D02*
X223891D01*
X219891Y367654D02*
Y375654D01*
X255261Y371654D02*
X263261D01*
X259261Y367654D02*
Y375654D01*
X412742Y371654D02*
X420742D01*
X416742Y367654D02*
Y375654D01*
X414504Y359449D02*
X422504D01*
X418504Y355449D02*
Y363449D01*
X420409Y364961D02*
X428409D01*
X424409Y360961D02*
Y368961D01*
X417654Y362205D02*
X425654D01*
X421654Y358205D02*
Y366205D01*
X423165Y367717D02*
X431165D01*
X427165Y363717D02*
Y371717D01*
X452112Y371654D02*
X460112D01*
X456112Y367654D02*
Y375654D01*
X491482Y371654D02*
X499482D01*
X495482Y367654D02*
Y375654D01*
X530852Y371654D02*
X538852D01*
X534852Y367654D02*
Y375654D01*
X562142Y359449D02*
X570142D01*
X566142Y355449D02*
Y363449D01*
X566079Y359449D02*
X574079D01*
X570079Y355449D02*
Y363449D01*
X590094Y364961D02*
X598094D01*
X594094Y360961D02*
Y368961D01*
X579858Y367717D02*
X587858D01*
X583858Y363717D02*
Y371717D01*
X610173Y362205D02*
X618173D01*
X614173Y358205D02*
Y366205D01*
X629465Y367717D02*
X637465D01*
X633465Y363717D02*
Y371717D01*
X620016Y359449D02*
X628016D01*
X624016Y355449D02*
Y363449D01*
X639701Y364961D02*
X647701D01*
X643701Y360961D02*
Y368961D01*
X659386Y362205D02*
X667386D01*
X663386Y358205D02*
Y366205D01*
X669622Y359449D02*
X677622D01*
X673622Y355449D02*
Y363449D01*
X689307Y364961D02*
X697307D01*
X693307Y360961D02*
Y368961D01*
X679071Y367717D02*
X687071D01*
X683071Y363717D02*
Y371717D01*
X709386Y362205D02*
X717386D01*
X713386Y358205D02*
Y366205D01*
X728677Y367717D02*
X736677D01*
X732677Y363717D02*
Y371717D01*
X719228Y359449D02*
X727228D01*
X723228Y355449D02*
Y363449D01*
X738913Y364961D02*
X746913D01*
X742913Y360961D02*
Y368961D01*
X758992Y362205D02*
X766992D01*
X762992Y358205D02*
Y366205D01*
X768835Y359449D02*
X776835D01*
X772835Y355449D02*
Y363449D01*
X806443Y371654D02*
X814443D01*
X810443Y367654D02*
Y375654D01*
X137151Y411024D02*
X145151D01*
X141151Y407024D02*
Y415024D01*
X176521Y411024D02*
X184521D01*
X180521Y407024D02*
Y415024D01*
X210173Y396787D02*
X218173Y404787D01*
X210173D02*
X218173Y396787D01*
X255261Y411024D02*
X263261D01*
X259261Y407024D02*
Y415024D01*
X272772Y412992D02*
X280772D01*
X276772Y408992D02*
Y416992D01*
X275134Y415748D02*
X283134D01*
X279134Y411748D02*
Y419748D01*
X284583Y396000D02*
X292583Y404000D01*
X284583D02*
X292583Y396000D01*
X315291D02*
X323291Y404000D01*
X315291D02*
X323291Y396000D01*
X353874Y397638D02*
X361874D01*
X357874Y393638D02*
Y401638D01*
X351118Y401575D02*
X359118D01*
X355118Y397575D02*
Y405575D01*
X346394Y401575D02*
X354394D01*
X350394Y397575D02*
Y405575D01*
X348756Y397638D02*
X356756D01*
X352756Y393638D02*
Y401638D01*
X495606Y410236D02*
X503606D01*
X499606Y406236D02*
Y414236D01*
X486157Y406693D02*
X494157D01*
X490157Y402693D02*
Y410693D01*
X476709Y403543D02*
X484709D01*
X480709Y399543D02*
Y407543D01*
X505843Y413780D02*
X513843D01*
X509843Y409780D02*
Y417780D01*
X595213Y403543D02*
X603213D01*
X599213Y399543D02*
Y407543D01*
X645606Y406693D02*
X653606D01*
X649606Y402693D02*
Y410693D01*
X694819Y410236D02*
X702819D01*
X698819Y406236D02*
Y414236D01*
X727702Y411024D02*
X735702D01*
X731702Y407024D02*
Y415024D01*
X745213Y413780D02*
X753213D01*
X749213Y409780D02*
Y417780D01*
X767072Y411024D02*
X775072D01*
X771072Y407024D02*
Y415024D01*
X806443Y411024D02*
X814443D01*
X810443Y407024D02*
Y415024D01*
X280252Y420866D02*
X288252D01*
X284252Y416866D02*
Y424866D01*
X277890Y418504D02*
X285890D01*
X281890Y414504D02*
Y422504D01*
X137151Y450394D02*
X145151D01*
X141151Y446394D02*
Y454394D01*
X255261Y450394D02*
X263261D01*
X259261Y446394D02*
Y454394D01*
X373372Y450394D02*
X381372D01*
X377372Y446394D02*
Y454394D01*
X491276Y452299D02*
X499276Y460299D01*
X491276D02*
X499276Y452299D01*
X530852Y450394D02*
X538852D01*
X534852Y446394D02*
Y454394D01*
X562142Y455512D02*
X570142D01*
X566142Y451512D02*
Y459512D01*
X566079Y440157D02*
X574079D01*
X570079Y436157D02*
Y444157D01*
X590094Y451181D02*
X598094D01*
X594094Y447181D02*
Y455181D01*
X579858Y453543D02*
X587858D01*
X583858Y449543D02*
Y457543D01*
X620016Y455906D02*
X628016D01*
X624016Y451906D02*
Y459906D01*
X629465Y453543D02*
X637465D01*
X633465Y449543D02*
Y457543D01*
X639701Y451181D02*
X647701D01*
X643701Y447181D02*
Y455181D01*
X669622Y455906D02*
X677622D01*
X673622Y451906D02*
Y459906D01*
X689307Y451181D02*
X697307D01*
X693307Y447181D02*
Y455181D01*
X679071Y453543D02*
X687071D01*
X683071Y449543D02*
Y457543D01*
X719228Y455906D02*
X727228D01*
X723228Y451906D02*
Y459906D01*
X728677Y453543D02*
X736677D01*
X732677Y449543D02*
Y457543D01*
X738520Y451181D02*
X746520D01*
X742520Y447181D02*
Y455181D01*
X768835Y455906D02*
X776835D01*
X772835Y451906D02*
Y459906D01*
X806443Y450394D02*
X814443D01*
X810443Y446394D02*
Y454394D01*
X292850Y455843D02*
X300850Y463843D01*
X292850D02*
X300850Y455843D01*
X353874Y459843D02*
X361874D01*
X357874Y455843D02*
Y463843D01*
X351118Y470079D02*
X359118D01*
X355118Y466079D02*
Y474079D01*
X570409Y458268D02*
X578409D01*
X574409Y454268D02*
Y462268D01*
X610173Y458268D02*
X618173D01*
X614173Y454268D02*
Y462268D01*
X659386Y458268D02*
X667386D01*
X663386Y454268D02*
Y462268D01*
X708992Y458268D02*
X716992D01*
X712992Y454268D02*
Y462268D01*
X758992Y458268D02*
X766992D01*
X762992Y454268D02*
Y462268D01*
X137151Y489764D02*
X145151D01*
X141151Y485764D02*
Y493764D01*
X294819Y486220D02*
X302819D01*
X298819Y482220D02*
Y490220D01*
X373372Y489764D02*
X381372D01*
X377372Y485764D02*
Y493764D01*
X412742Y489764D02*
X420742D01*
X416742Y485764D02*
Y493764D01*
X491482Y489764D02*
X499482D01*
X495482Y485764D02*
Y493764D01*
X530852Y489764D02*
X538852D01*
X534852Y485764D02*
Y493764D01*
X570222Y489764D02*
X578222D01*
X574222Y485764D02*
Y493764D01*
X609592Y489764D02*
X617592D01*
X613592Y485764D02*
Y493764D01*
X648962Y489764D02*
X656962D01*
X652962Y485764D02*
Y493764D01*
X688332Y489764D02*
X696332D01*
X692332Y485764D02*
Y493764D01*
X727702Y489764D02*
X735702D01*
X731702Y485764D02*
Y493764D01*
X767072Y489764D02*
X775072D01*
X771072Y485764D02*
Y493764D01*
X806443Y489764D02*
X814443D01*
X810443Y485764D02*
Y493764D01*
X290882Y501181D02*
X298882D01*
X294882Y497181D02*
Y505181D01*
X137151Y529134D02*
X145151D01*
X141151Y525134D02*
Y533134D01*
X176521Y529134D02*
X184521D01*
X180521Y525134D02*
Y533134D01*
X215891Y529134D02*
X223891D01*
X219891Y525134D02*
Y533134D01*
X255261Y529134D02*
X263261D01*
X259261Y525134D02*
Y533134D01*
X272772Y533858D02*
X280772D01*
X276772Y529858D02*
Y537858D01*
X275134Y531102D02*
X283134D01*
X279134Y527102D02*
Y535102D01*
X277496Y527953D02*
X285496D01*
X281496Y523953D02*
Y531953D01*
X277496Y518898D02*
X285496D01*
X281496Y514898D02*
Y522898D01*
X373372Y529134D02*
X381372D01*
X377372Y525134D02*
Y533134D01*
X412742Y529134D02*
X420742D01*
X416742Y525134D02*
Y533134D01*
X491482Y529134D02*
X499482D01*
X495482Y525134D02*
Y533134D01*
X530852Y529134D02*
X538852D01*
X534852Y525134D02*
Y533134D01*
X570222Y529134D02*
X578222D01*
X574222Y525134D02*
Y533134D01*
X609592Y529134D02*
X617592D01*
X613592Y525134D02*
Y533134D01*
X648962Y529134D02*
X656962D01*
X652962Y525134D02*
Y533134D01*
X688332Y529134D02*
X696332D01*
X692332Y525134D02*
Y533134D01*
X727702Y529134D02*
X735702D01*
X731702Y525134D02*
Y533134D01*
X767072Y529134D02*
X775072D01*
X771072Y525134D02*
Y533134D01*
X806443Y529134D02*
X814443D01*
X810443Y525134D02*
Y533134D01*
X438913Y544819D02*
X446913Y552819D01*
X438913D02*
X446913Y544819D01*
X137151Y568504D02*
X145151D01*
X141151Y564504D02*
Y572504D01*
X373372Y568504D02*
X381372D01*
X377372Y564504D02*
Y572504D01*
X452112Y568504D02*
X460112D01*
X456112Y564504D02*
Y572504D01*
X491482Y568504D02*
X499482D01*
X495482Y564504D02*
Y572504D01*
X530852Y568504D02*
X538852D01*
X534852Y564504D02*
Y572504D01*
X570222Y568504D02*
X578222D01*
X574222Y564504D02*
Y572504D01*
X609592Y568504D02*
X617592D01*
X613592Y564504D02*
Y572504D01*
X648962Y568504D02*
X656962D01*
X652962Y564504D02*
Y572504D01*
X688332Y568504D02*
X696332D01*
X692332Y564504D02*
Y572504D01*
X727702Y568504D02*
X735702D01*
X731702Y564504D02*
Y572504D01*
X767072Y568504D02*
X775072D01*
X771072Y564504D02*
Y572504D01*
X806443Y568504D02*
X814443D01*
X810443Y564504D02*
Y572504D01*
X137151Y607874D02*
X145151D01*
X141151Y603874D02*
Y611874D01*
X176521Y607874D02*
X184521D01*
X180521Y603874D02*
Y611874D01*
X215891Y607874D02*
X223891D01*
X219891Y603874D02*
Y611874D01*
X294631Y607874D02*
X302631D01*
X298631Y603874D02*
Y611874D01*
X412742Y607874D02*
X420742D01*
X416742Y603874D02*
Y611874D01*
X430252Y596787D02*
X438252Y604787D01*
X430252D02*
X438252Y596787D01*
X452112Y607874D02*
X460112D01*
X456112Y603874D02*
Y611874D01*
X491482Y607874D02*
X499482D01*
X495482Y603874D02*
Y611874D01*
X688332Y607874D02*
X696332D01*
X692332Y603874D02*
Y611874D01*
X727702Y607874D02*
X735702D01*
X731702Y603874D02*
Y611874D01*
X767072Y607874D02*
X775072D01*
X771072Y603874D02*
Y611874D01*
X887402Y316000D02*
X1145402D01*
X887402Y292000D02*
X1145402D01*
X887402Y268000D02*
X1145402D01*
X887402Y244000D02*
X1145402D01*
X887402Y220000D02*
X1145402D01*
X887402Y196000D02*
X1145402D01*
X887402Y172000D02*
X1145402D01*
X887402Y148000D02*
X1145402D01*
X887402Y124000D02*
X1145402D01*
X887402Y100000D02*
X1145402D01*
X887402Y316000D02*
Y100000D01*
X971402Y316000D02*
Y100000D01*
X1007402Y316000D02*
Y100000D01*
X1043402Y316000D02*
Y100000D01*
X1097402Y316000D02*
Y100000D01*
X1145402Y316000D02*
Y100000D01*
X922902Y304750D02*
X922356Y305500D01*
X921538Y305875*
X920447*
X919629Y305500*
X919083Y304750*
Y304000*
X919356Y303250*
X919629Y302875*
X920174Y302500*
X921811Y301750*
X922356Y301375*
X922629Y301000*
X922902Y300250*
Y299125*
X922356Y298375*
X921538Y298000*
X920447*
X919629Y298375*
X919083Y299125*
X925356Y305875D02*
Y298000D01*
X931629Y305875D02*
X927811Y298000D01*
Y305875D02*
X931629D01*
X927811Y298000D02*
X931629D01*
X934083Y305875D02*
Y298000D01*
Y305875D02*
X937629D01*
X934083Y302125D02*
X936265D01*
X934083Y298000D02*
X937629D01*
X981265Y305875D02*
X980720Y305500D01*
X980174Y304750*
X979902Y304000*
X979629Y302875*
Y301000*
X979902Y299875*
X980174Y299125*
X980720Y298375*
X981265Y298000*
X982356*
X982902Y298375*
X983447Y299125*
X983720Y299875*
X983992Y301000*
Y302875*
X983720Y304000*
X983447Y304750*
X982902Y305500*
X982356Y305875*
X981265*
X982083Y299500D02*
X983720Y297250D01*
X988356Y305875D02*
Y298000D01*
X986447Y305875D02*
X990265D01*
X992720D02*
X994902Y302125D01*
Y298000*
X997083Y305875D02*
X994902Y302125D01*
X1019447Y304750D02*
X1018902Y305500D01*
X1018083Y305875*
X1016992*
X1016174Y305500*
X1015629Y304750*
Y304000*
X1015902Y303250*
X1016174Y302875*
X1016720Y302500*
X1018356Y301750*
X1018902Y301375*
X1019174Y301000*
X1019447Y300250*
Y299125*
X1018902Y298375*
X1018083Y298000*
X1016992*
X1016174Y298375*
X1015629Y299125*
X1021902Y305875D02*
X1024083Y302125D01*
Y298000*
X1026265Y305875D02*
X1024083Y302125D01*
X1028720Y305875D02*
Y298000D01*
Y305875D02*
X1030902Y298000D01*
X1033083Y305875D02*
X1030902Y298000D01*
X1033083Y305875D02*
Y298000D01*
X1054902Y305875D02*
Y298000D01*
Y305875D02*
X1057356D01*
X1058174Y305500*
X1058447Y305125*
X1058720Y304375*
Y303250*
X1058447Y302500*
X1058174Y302125*
X1057356Y301750*
X1054902*
X1061174Y305875D02*
Y298000D01*
X1064447*
X1069083Y305875D02*
X1066902Y298000D01*
X1069083Y305875D02*
X1071265Y298000D01*
X1067720Y300625D02*
X1070447D01*
X1075629Y305875D02*
Y298000D01*
X1073720Y305875D02*
X1077538D01*
X1079992D02*
Y298000D01*
Y305875D02*
X1083538D01*
X1079992Y302125D02*
X1082174D01*
X1079992Y298000D02*
X1083538D01*
X1085992Y305875D02*
Y298000D01*
Y305875D02*
X1087902D01*
X1088720Y305500*
X1089265Y304750*
X1089538Y304000*
X1089811Y302875*
Y301000*
X1089538Y299875*
X1089265Y299125*
X1088720Y298375*
X1087902Y298000*
X1085992*
X1114083Y305875D02*
Y298000D01*
X1112174Y305875D02*
X1115992D01*
X1120083D02*
X1119538Y305500D01*
X1118992Y304750*
X1118720Y304000*
X1118447Y302875*
Y301000*
X1118720Y299875*
X1118992Y299125*
X1119538Y298375*
X1120083Y298000*
X1121174*
X1121720Y298375*
X1122265Y299125*
X1122538Y299875*
X1122811Y301000*
Y302875*
X1122538Y304000*
X1122265Y304750*
X1121720Y305500*
X1121174Y305875*
X1120083*
X1125265D02*
Y298000D01*
X1128538*
X895038Y281875D02*
X894220Y281500D01*
X893674Y280375*
X893402Y278500*
Y277375*
X893674Y275500*
X894220Y274375*
X895038Y274000*
X895583*
X896402Y274375*
X896947Y275500*
X897220Y277375*
Y278500*
X896947Y280375*
X896402Y281500*
X895583Y281875*
X895038*
X899947Y274750D02*
X899674Y274375D01*
X899947Y274000*
X900220Y274375*
X899947Y274750*
X903220Y281875D02*
X906220D01*
X904583Y278875*
X905402*
X905947Y278500*
X906220Y278125*
X906492Y277000*
Y276250*
X906220Y275125*
X905674Y274375*
X904856Y274000*
X904038*
X903220Y274375*
X902947Y274750*
X902674Y275500*
X980311Y280000D02*
Y280375D01*
X980583Y281125*
X980856Y281500*
X981402Y281875*
X982492*
X983038Y281500*
X983311Y281125*
X983583Y280375*
Y279625*
X983311Y278875*
X982765Y277750*
X980038Y274000*
X983856*
X987674Y281875D02*
X986856Y281500D01*
X986583Y280750*
Y280000*
X986856Y279250*
X987402Y278875*
X988492Y278500*
X989311Y278125*
X989856Y277375*
X990129Y276625*
Y275500*
X989856Y274750*
X989583Y274375*
X988765Y274000*
X987674*
X986856Y274375*
X986583Y274750*
X986311Y275500*
Y276625*
X986583Y277375*
X987129Y278125*
X987947Y278500*
X989038Y278875*
X989583Y279250*
X989856Y280000*
Y280750*
X989583Y281500*
X988765Y281875*
X987674*
X996129D02*
X993402D01*
X993129Y278500*
X993402Y278875*
X994220Y279250*
X995038*
X995856Y278875*
X996402Y278125*
X996674Y277000*
X996402Y276250*
X996129Y275125*
X995583Y274375*
X994765Y274000*
X993947*
X993129Y274375*
X992856Y274750*
X992583Y275500*
X1019402Y280000D02*
X1031402D01*
X1025402Y274000D02*
Y286000D01*
X1052038Y281875D02*
X1054220Y278125D01*
Y274000*
X1056402Y281875D02*
X1054220Y278125D01*
X1058856Y281875D02*
Y274000D01*
Y281875D02*
X1062402D01*
X1058856Y278125D02*
X1061038D01*
X1058856Y274000D02*
X1062402D01*
X1068674Y280750D02*
X1068129Y281500D01*
X1067311Y281875*
X1066220*
X1065402Y281500*
X1064856Y280750*
Y280000*
X1065129Y279250*
X1065402Y278875*
X1065947Y278500*
X1067583Y277750*
X1068129Y277375*
X1068402Y277000*
X1068674Y276250*
Y275125*
X1068129Y274375*
X1067311Y274000*
X1066220*
X1065402Y274375*
X1064856Y275125*
X1105220Y280750D02*
Y274000D01*
X1102765Y277375D02*
X1107674D01*
X1115038Y283375D02*
X1110129Y271375D01*
X1117492Y277375D02*
X1122402D01*
X1126492Y281875D02*
X1125674Y281500D01*
X1125129Y280375*
X1124856Y278500*
Y277375*
X1125129Y275500*
X1125674Y274375*
X1126492Y274000*
X1127038*
X1127856Y274375*
X1128402Y275500*
X1128674Y277375*
Y278500*
X1128402Y280375*
X1127856Y281500*
X1127038Y281875*
X1126492*
X1131402Y274750D02*
X1131129Y274375D01*
X1131402Y274000*
X1131674Y274375*
X1131402Y274750*
X1135765Y281875D02*
X1134947Y281500D01*
X1134402Y280375*
X1134129Y278500*
Y277375*
X1134402Y275500*
X1134947Y274375*
X1135765Y274000*
X1136311*
X1137129Y274375*
X1137674Y275500*
X1137947Y277375*
Y278500*
X1137674Y280375*
X1137129Y281500*
X1136311Y281875*
X1135765*
X895038Y257875D02*
X894220Y257500D01*
X893674Y256375*
X893402Y254500*
Y253375*
X893674Y251500*
X894220Y250375*
X895038Y250000*
X895583*
X896402Y250375*
X896947Y251500*
X897220Y253375*
Y254500*
X896947Y256375*
X896402Y257500*
X895583Y257875*
X895038*
X899947Y250750D02*
X899674Y250375D01*
X899947Y250000*
X900220Y250375*
X899947Y250750*
X905947Y256750D02*
X905674Y257500D01*
X904856Y257875*
X904311*
X903492Y257500*
X902947Y256375*
X902674Y254500*
Y252625*
X902947Y251125*
X903492Y250375*
X904311Y250000*
X904583*
X905402Y250375*
X905947Y251125*
X906220Y252250*
Y252625*
X905947Y253750*
X905402Y254500*
X904583Y254875*
X904311*
X903492Y254500*
X902947Y253750*
X902674Y252625*
X984538Y256375D02*
X985083Y256750D01*
X985902Y257875*
Y250000*
X992174Y257875D02*
X989447Y250000D01*
X988356Y257875D02*
X992174D01*
X1019402Y250000D02*
X1031402Y262000D01*
X1019402D02*
X1031402Y250000D01*
X1052038Y257875D02*
X1054220Y254125D01*
Y250000*
X1056402Y257875D02*
X1054220Y254125D01*
X1058856Y257875D02*
Y250000D01*
Y257875D02*
X1062402D01*
X1058856Y254125D02*
X1061038D01*
X1058856Y250000D02*
X1062402D01*
X1068674Y256750D02*
X1068129Y257500D01*
X1067311Y257875*
X1066220*
X1065402Y257500*
X1064856Y256750*
Y256000*
X1065129Y255250*
X1065402Y254875*
X1065947Y254500*
X1067583Y253750*
X1068129Y253375*
X1068402Y253000*
X1068674Y252250*
Y251125*
X1068129Y250375*
X1067311Y250000*
X1066220*
X1065402Y250375*
X1064856Y251125*
X1105220Y256750D02*
Y250000D01*
X1102765Y253375D02*
X1107674D01*
X1115038Y259375D02*
X1110129Y247375D01*
X1117492Y253375D02*
X1122402D01*
X1126492Y257875D02*
X1125674Y257500D01*
X1125129Y256375*
X1124856Y254500*
Y253375*
X1125129Y251500*
X1125674Y250375*
X1126492Y250000*
X1127038*
X1127856Y250375*
X1128402Y251500*
X1128674Y253375*
Y254500*
X1128402Y256375*
X1127856Y257500*
X1127038Y257875*
X1126492*
X1131402Y250750D02*
X1131129Y250375D01*
X1131402Y250000*
X1131674Y250375*
X1131402Y250750*
X1135765Y257875D02*
X1134947Y257500D01*
X1134402Y256375*
X1134129Y254500*
Y253375*
X1134402Y251500*
X1134947Y250375*
X1135765Y250000*
X1136311*
X1137129Y250375*
X1137674Y251500*
X1137947Y253375*
Y254500*
X1137674Y256375*
X1137129Y257500*
X1136311Y257875*
X1135765*
X893947Y233875D02*
X896947D01*
X895311Y230875*
X896129*
X896674Y230500*
X896947Y230125*
X897220Y229000*
Y228250*
X896947Y227125*
X896402Y226375*
X895583Y226000*
X894765*
X893947Y226375*
X893674Y226750*
X893402Y227500*
X989038Y233875D02*
X986311Y228625D01*
X990402*
X989038Y233875D02*
Y226000D01*
X1019402D02*
X1031402Y238000D01*
Y226000*
X1019402Y238000*
Y226000*
X1052038Y233875D02*
X1054220Y230125D01*
Y226000*
X1056402Y233875D02*
X1054220Y230125D01*
X1058856Y233875D02*
Y226000D01*
Y233875D02*
X1062402D01*
X1058856Y230125D02*
X1061038D01*
X1058856Y226000D02*
X1062402D01*
X1068674Y232750D02*
X1068129Y233500D01*
X1067311Y233875*
X1066220*
X1065402Y233500*
X1064856Y232750*
Y232000*
X1065129Y231250*
X1065402Y230875*
X1065947Y230500*
X1067583Y229750*
X1068129Y229375*
X1068402Y229000*
X1068674Y228250*
Y227125*
X1068129Y226375*
X1067311Y226000*
X1066220*
X1065402Y226375*
X1064856Y227125*
X1105220Y232750D02*
Y226000D01*
X1102765Y229375D02*
X1107674D01*
X1115038Y235375D02*
X1110129Y223375D01*
X1117492Y229375D02*
X1122402D01*
X1126492Y233875D02*
X1125674Y233500D01*
X1125129Y232375*
X1124856Y230500*
Y229375*
X1125129Y227500*
X1125674Y226375*
X1126492Y226000*
X1127038*
X1127856Y226375*
X1128402Y227500*
X1128674Y229375*
Y230500*
X1128402Y232375*
X1127856Y233500*
X1127038Y233875*
X1126492*
X1131402Y226750D02*
X1131129Y226375D01*
X1131402Y226000*
X1131674Y226375*
X1131402Y226750*
X1135765Y233875D02*
X1134947Y233500D01*
X1134402Y232375*
X1134129Y230500*
Y229375*
X1134402Y227500*
X1134947Y226375*
X1135765Y226000*
X1136311*
X1137129Y226375*
X1137674Y227500*
X1137947Y229375*
Y230500*
X1137674Y232375*
X1137129Y233500*
X1136311Y233875*
X1135765*
X895038Y209875D02*
X894220Y209500D01*
X893674Y208375*
X893402Y206500*
Y205375*
X893674Y203500*
X894220Y202375*
X895038Y202000*
X895583*
X896402Y202375*
X896947Y203500*
X897220Y205375*
Y206500*
X896947Y208375*
X896402Y209500*
X895583Y209875*
X895038*
X899947Y202750D02*
X899674Y202375D01*
X899947Y202000*
X900220Y202375*
X899947Y202750*
X904038Y209875D02*
X903220Y209500D01*
X902947Y208750*
Y208000*
X903220Y207250*
X903765Y206875*
X904856Y206500*
X905674Y206125*
X906220Y205375*
X906492Y204625*
Y203500*
X906220Y202750*
X905947Y202375*
X905129Y202000*
X904038*
X903220Y202375*
X902947Y202750*
X902674Y203500*
Y204625*
X902947Y205375*
X903492Y206125*
X904311Y206500*
X905402Y206875*
X905947Y207250*
X906220Y208000*
Y208750*
X905947Y209500*
X905129Y209875*
X904038*
X910311D02*
X909492Y209500D01*
X909220Y208750*
Y208000*
X909492Y207250*
X910038Y206875*
X911129Y206500*
X911947Y206125*
X912492Y205375*
X912765Y204625*
Y203500*
X912492Y202750*
X912220Y202375*
X911402Y202000*
X910311*
X909492Y202375*
X909220Y202750*
X908947Y203500*
Y204625*
X909220Y205375*
X909765Y206125*
X910583Y206500*
X911674Y206875*
X912220Y207250*
X912492Y208000*
Y208750*
X912220Y209500*
X911402Y209875*
X910311*
X918765Y207250D02*
X918492Y206125D01*
X917947Y205375*
X917129Y205000*
X916856*
X916038Y205375*
X915492Y206125*
X915220Y207250*
Y207625*
X915492Y208750*
X916038Y209500*
X916856Y209875*
X917129*
X917947Y209500*
X918492Y208750*
X918765Y207250*
Y205375*
X918492Y203500*
X917947Y202375*
X917129Y202000*
X916583*
X915765Y202375*
X915492Y203125*
X980856Y209875D02*
X983856D01*
X982220Y206875*
X983038*
X983583Y206500*
X983856Y206125*
X984129Y205000*
Y204250*
X983856Y203125*
X983311Y202375*
X982492Y202000*
X981674*
X980856Y202375*
X980583Y202750*
X980311Y203500*
X989856Y208750D02*
X989583Y209500D01*
X988765Y209875*
X988220*
X987402Y209500*
X986856Y208375*
X986583Y206500*
Y204625*
X986856Y203125*
X987402Y202375*
X988220Y202000*
X988492*
X989311Y202375*
X989856Y203125*
X990129Y204250*
Y204625*
X989856Y205750*
X989311Y206500*
X988492Y206875*
X988220*
X987402Y206500*
X986856Y205750*
X986583Y204625*
X994220Y209875D02*
X993402Y209500D01*
X992856Y208375*
X992583Y206500*
Y205375*
X992856Y203500*
X993402Y202375*
X994220Y202000*
X994765*
X995583Y202375*
X996129Y203500*
X996402Y205375*
Y206500*
X996129Y208375*
X995583Y209500*
X994765Y209875*
X994220*
X1019402Y208000D02*
X1031402D01*
X1025402Y202000D02*
Y214000D01*
X1030147Y217300D02*
X1028402Y211000D01*
X1030147Y217300D02*
X1031892Y211000D01*
X1029056Y213100D02*
X1031238D01*
X1052038Y209875D02*
X1054220Y206125D01*
Y202000*
X1056402Y209875D02*
X1054220Y206125D01*
X1058856Y209875D02*
Y202000D01*
Y209875D02*
X1062402D01*
X1058856Y206125D02*
X1061038D01*
X1058856Y202000D02*
X1062402D01*
X1068674Y208750D02*
X1068129Y209500D01*
X1067311Y209875*
X1066220*
X1065402Y209500*
X1064856Y208750*
Y208000*
X1065129Y207250*
X1065402Y206875*
X1065947Y206500*
X1067583Y205750*
X1068129Y205375*
X1068402Y205000*
X1068674Y204250*
Y203125*
X1068129Y202375*
X1067311Y202000*
X1066220*
X1065402Y202375*
X1064856Y203125*
X1105220Y208750D02*
Y202000D01*
X1102765Y205375D02*
X1107674D01*
X1115038Y211375D02*
X1110129Y199375D01*
X1117492Y205375D02*
X1122402D01*
X1126492Y209875D02*
X1125674Y209500D01*
X1125129Y208375*
X1124856Y206500*
Y205375*
X1125129Y203500*
X1125674Y202375*
X1126492Y202000*
X1127038*
X1127856Y202375*
X1128402Y203500*
X1128674Y205375*
Y206500*
X1128402Y208375*
X1127856Y209500*
X1127038Y209875*
X1126492*
X1131402Y202750D02*
X1131129Y202375D01*
X1131402Y202000*
X1131674Y202375*
X1131402Y202750*
X1135765Y209875D02*
X1134947Y209500D01*
X1134402Y208375*
X1134129Y206500*
Y205375*
X1134402Y203500*
X1134947Y202375*
X1135765Y202000*
X1136311*
X1137129Y202375*
X1137674Y203500*
X1137947Y205375*
Y206500*
X1137674Y208375*
X1137129Y209500*
X1136311Y209875*
X1135765*
X893402Y184375D02*
X893947Y184750D01*
X894765Y185875*
Y178000*
X897492Y178750D02*
X897220Y178375D01*
X897492Y178000*
X897765Y178375*
X897492Y178750*
X900492Y184000D02*
Y184375D01*
X900765Y185125*
X901038Y185500*
X901583Y185875*
X902674*
X903220Y185500*
X903492Y185125*
X903765Y184375*
Y183625*
X903492Y182875*
X902947Y181750*
X900220Y178000*
X904038*
X986720Y184750D02*
X986447Y185500D01*
X985629Y185875*
X985083*
X984265Y185500*
X983720Y184375*
X983447Y182500*
Y180625*
X983720Y179125*
X984265Y178375*
X985083Y178000*
X985356*
X986174Y178375*
X986720Y179125*
X986992Y180250*
Y180625*
X986720Y181750*
X986174Y182500*
X985356Y182875*
X985083*
X984265Y182500*
X983720Y181750*
X983447Y180625*
X990811Y185875D02*
X989992Y185500D01*
X989720Y184750*
Y184000*
X989992Y183250*
X990538Y182875*
X991629Y182500*
X992447Y182125*
X992992Y181375*
X993265Y180625*
Y179500*
X992992Y178750*
X992720Y178375*
X991902Y178000*
X990811*
X989992Y178375*
X989720Y178750*
X989447Y179500*
Y180625*
X989720Y181375*
X990265Y182125*
X991083Y182500*
X992174Y182875*
X992720Y183250*
X992992Y184000*
Y184750*
X992720Y185500*
X991902Y185875*
X990811*
X1019402Y184000D02*
X1031402D01*
X1025402Y178000D02*
Y190000D01*
X1028402Y193300D02*
Y187000D01*
Y193300D02*
X1030365D01*
X1031020Y193000*
X1031238Y192700*
X1031456Y192100*
Y191500*
X1031238Y190900*
X1031020Y190600*
X1030365Y190300*
X1028402D02*
X1030365D01*
X1031020Y190000*
X1031238Y189700*
X1031456Y189100*
Y188200*
X1031238Y187600*
X1031020Y187300*
X1030365Y187000*
X1028402*
X1052038Y185875D02*
X1054220Y182125D01*
Y178000*
X1056402Y185875D02*
X1054220Y182125D01*
X1058856Y185875D02*
Y178000D01*
Y185875D02*
X1062402D01*
X1058856Y182125D02*
X1061038D01*
X1058856Y178000D02*
X1062402D01*
X1068674Y184750D02*
X1068129Y185500D01*
X1067311Y185875*
X1066220*
X1065402Y185500*
X1064856Y184750*
Y184000*
X1065129Y183250*
X1065402Y182875*
X1065947Y182500*
X1067583Y181750*
X1068129Y181375*
X1068402Y181000*
X1068674Y180250*
Y179125*
X1068129Y178375*
X1067311Y178000*
X1066220*
X1065402Y178375*
X1064856Y179125*
X1105220Y184750D02*
Y178000D01*
X1102765Y181375D02*
X1107674D01*
X1115038Y187375D02*
X1110129Y175375D01*
X1117492Y181375D02*
X1122402D01*
X1126492Y185875D02*
X1125674Y185500D01*
X1125129Y184375*
X1124856Y182500*
Y181375*
X1125129Y179500*
X1125674Y178375*
X1126492Y178000*
X1127038*
X1127856Y178375*
X1128402Y179500*
X1128674Y181375*
Y182500*
X1128402Y184375*
X1127856Y185500*
X1127038Y185875*
X1126492*
X1131402Y178750D02*
X1131129Y178375D01*
X1131402Y178000*
X1131674Y178375*
X1131402Y178750*
X1135765Y185875D02*
X1134947Y185500D01*
X1134402Y184375*
X1134129Y182500*
Y181375*
X1134402Y179500*
X1134947Y178375*
X1135765Y178000*
X1136311*
X1137129Y178375*
X1137674Y179500*
X1137947Y181375*
Y182500*
X1137674Y184375*
X1137129Y185500*
X1136311Y185875*
X1135765*
X893402Y160375D02*
X893947Y160750D01*
X894765Y161875*
Y154000*
X897492Y154750D02*
X897220Y154375D01*
X897492Y154000*
X897765Y154375*
X897492Y154750*
X903765Y161875D02*
X901038D01*
X900765Y158500*
X901038Y158875*
X901856Y159250*
X902674*
X903492Y158875*
X904038Y158125*
X904311Y157000*
X904038Y156250*
X903765Y155125*
X903220Y154375*
X902402Y154000*
X901583*
X900765Y154375*
X900492Y154750*
X900220Y155500*
X986720Y160000D02*
Y160375D01*
X986992Y161125*
X987265Y161500*
X987811Y161875*
X988902*
X989447Y161500*
X989720Y161125*
X989992Y160375*
Y159625*
X989720Y158875*
X989174Y157750*
X986447Y154000*
X990265*
X1019402Y160000D02*
X1031402D01*
X1025402Y154000D02*
Y166000D01*
X1031674Y167800D02*
X1031456Y168400D01*
X1031020Y169000*
X1030583Y169300*
X1029711*
X1029274Y169000*
X1028838Y168400*
X1028620Y167800*
X1028402Y166900*
Y165400*
X1028620Y164500*
X1028838Y163900*
X1029274Y163300*
X1029711Y163000*
X1030583*
X1031020Y163300*
X1031456Y163900*
X1031674Y164500*
X1052038Y161875D02*
X1054220Y158125D01*
Y154000*
X1056402Y161875D02*
X1054220Y158125D01*
X1058856Y161875D02*
Y154000D01*
Y161875D02*
X1062402D01*
X1058856Y158125D02*
X1061038D01*
X1058856Y154000D02*
X1062402D01*
X1068674Y160750D02*
X1068129Y161500D01*
X1067311Y161875*
X1066220*
X1065402Y161500*
X1064856Y160750*
Y160000*
X1065129Y159250*
X1065402Y158875*
X1065947Y158500*
X1067583Y157750*
X1068129Y157375*
X1068402Y157000*
X1068674Y156250*
Y155125*
X1068129Y154375*
X1067311Y154000*
X1066220*
X1065402Y154375*
X1064856Y155125*
X1105220Y160750D02*
Y154000D01*
X1102765Y157375D02*
X1107674D01*
X1115038Y163375D02*
X1110129Y151375D01*
X1117492Y157375D02*
X1122402D01*
X1126492Y161875D02*
X1125674Y161500D01*
X1125129Y160375*
X1124856Y158500*
Y157375*
X1125129Y155500*
X1125674Y154375*
X1126492Y154000*
X1127038*
X1127856Y154375*
X1128402Y155500*
X1128674Y157375*
Y158500*
X1128402Y160375*
X1127856Y161500*
X1127038Y161875*
X1126492*
X1131402Y154750D02*
X1131129Y154375D01*
X1131402Y154000*
X1131674Y154375*
X1131402Y154750*
X1135765Y161875D02*
X1134947Y161500D01*
X1134402Y160375*
X1134129Y158500*
Y157375*
X1134402Y155500*
X1134947Y154375*
X1135765Y154000*
X1136311*
X1137129Y154375*
X1137674Y155500*
X1137947Y157375*
Y158500*
X1137674Y160375*
X1137129Y161500*
X1136311Y161875*
X1135765*
X896129Y137875D02*
X893402Y132625D01*
X897492*
X896129Y137875D02*
Y130000D01*
X986720Y136000D02*
Y136375D01*
X986992Y137125*
X987265Y137500*
X987811Y137875*
X988902*
X989447Y137500*
X989720Y137125*
X989992Y136375*
Y135625*
X989720Y134875*
X989174Y133750*
X986447Y130000*
X990265*
X1019402Y136000D02*
X1031402D01*
X1025402Y130000D02*
Y142000D01*
X1028402Y145300D02*
Y139000D01*
Y145300D02*
X1029929D01*
X1030583Y145000*
X1031020Y144400*
X1031238Y143800*
X1031456Y142900*
Y141400*
X1031238Y140500*
X1031020Y139900*
X1030583Y139300*
X1029929Y139000*
X1028402*
X1052038Y137875D02*
X1054220Y134125D01*
Y130000*
X1056402Y137875D02*
X1054220Y134125D01*
X1058856Y137875D02*
Y130000D01*
Y137875D02*
X1062402D01*
X1058856Y134125D02*
X1061038D01*
X1058856Y130000D02*
X1062402D01*
X1068674Y136750D02*
X1068129Y137500D01*
X1067311Y137875*
X1066220*
X1065402Y137500*
X1064856Y136750*
Y136000*
X1065129Y135250*
X1065402Y134875*
X1065947Y134500*
X1067583Y133750*
X1068129Y133375*
X1068402Y133000*
X1068674Y132250*
Y131125*
X1068129Y130375*
X1067311Y130000*
X1066220*
X1065402Y130375*
X1064856Y131125*
X1105220Y136750D02*
Y130000D01*
X1102765Y133375D02*
X1107674D01*
X1115038Y139375D02*
X1110129Y127375D01*
X1117492Y133375D02*
X1122402D01*
X1126492Y137875D02*
X1125674Y137500D01*
X1125129Y136375*
X1124856Y134500*
Y133375*
X1125129Y131500*
X1125674Y130375*
X1126492Y130000*
X1127038*
X1127856Y130375*
X1128402Y131500*
X1128674Y133375*
Y134500*
X1128402Y136375*
X1127856Y137500*
X1127038Y137875*
X1126492*
X1131402Y130750D02*
X1131129Y130375D01*
X1131402Y130000*
X1131674Y130375*
X1131402Y130750*
X1135765Y137875D02*
X1134947Y137500D01*
X1134402Y136375*
X1134129Y134500*
Y133375*
X1134402Y131500*
X1134947Y130375*
X1135765Y130000*
X1136311*
X1137129Y130375*
X1137674Y131500*
X1137947Y133375*
Y134500*
X1137674Y136375*
X1137129Y137500*
X1136311Y137875*
X1135765*
X893402Y112375D02*
X893947Y112750D01*
X894765Y113875*
Y106000*
X897492Y106750D02*
X897220Y106375D01*
X897492Y106000*
X897765Y106375*
X897492Y106750*
X900220Y112375D02*
X900765Y112750D01*
X901583Y113875*
Y106000*
X990129Y111250D02*
X989856Y110125D01*
X989311Y109375*
X988492Y109000*
X988220*
X987402Y109375*
X986856Y110125*
X986583Y111250*
Y111625*
X986856Y112750*
X987402Y113500*
X988220Y113875*
X988492*
X989311Y113500*
X989856Y112750*
X990129Y111250*
Y109375*
X989856Y107500*
X989311Y106375*
X988492Y106000*
X987947*
X987129Y106375*
X986856Y107125*
X1019402Y112000D02*
X1031402D01*
X1025402Y106000D02*
Y118000D01*
X1028402Y121300D02*
Y115000D01*
Y121300D02*
X1031238D01*
X1028402Y118300D02*
X1030147D01*
X1028402Y115000D02*
X1031238D01*
X1052038Y113875D02*
X1054220Y110125D01*
Y106000*
X1056402Y113875D02*
X1054220Y110125D01*
X1058856Y113875D02*
Y106000D01*
Y113875D02*
X1062402D01*
X1058856Y110125D02*
X1061038D01*
X1058856Y106000D02*
X1062402D01*
X1068674Y112750D02*
X1068129Y113500D01*
X1067311Y113875*
X1066220*
X1065402Y113500*
X1064856Y112750*
Y112000*
X1065129Y111250*
X1065402Y110875*
X1065947Y110500*
X1067583Y109750*
X1068129Y109375*
X1068402Y109000*
X1068674Y108250*
Y107125*
X1068129Y106375*
X1067311Y106000*
X1066220*
X1065402Y106375*
X1064856Y107125*
X1105220Y112750D02*
Y106000D01*
X1102765Y109375D02*
X1107674D01*
X1115038Y115375D02*
X1110129Y103375D01*
X1117492Y109375D02*
X1122402D01*
X1126492Y113875D02*
X1125674Y113500D01*
X1125129Y112375*
X1124856Y110500*
Y109375*
X1125129Y107500*
X1125674Y106375*
X1126492Y106000*
X1127038*
X1127856Y106375*
X1128402Y107500*
X1128674Y109375*
Y110500*
X1128402Y112375*
X1127856Y113500*
X1127038Y113875*
X1126492*
X1131402Y106750D02*
X1131129Y106375D01*
X1131402Y106000*
X1131674Y106375*
X1131402Y106750*
X1135765Y113875D02*
X1134947Y113500D01*
X1134402Y112375*
X1134129Y110500*
Y109375*
X1134402Y107500*
X1134947Y106375*
X1135765Y106000*
X1136311*
X1137129Y106375*
X1137674Y107500*
X1137947Y109375*
Y110500*
X1137674Y112375*
X1137129Y113500*
X1136311Y113875*
X1135765*
X0Y0D02*
M02*
