%
T1C.01181F095S3
X011575Y010787
X012131Y011018
X011018Y011018
X012362Y011575
X010787Y011575
X012131Y012131
X011018Y012131
X011575Y012362
X014115Y013543
X014115Y01748
X014115Y021417
X014115Y025354
X014115Y029291
X014115Y037165
X014115Y041102
X014115Y045039
X014115Y048976
X014115Y052913
X014115Y05685
X011575Y060787
X014115Y060787
X011018Y061018
X012131Y061018
X012362Y061575
X010787Y061575
X012131Y062131
X011018Y062131
X011575Y062362
X018052Y060787
X018052Y052913
X018052Y041102
X018052Y037165
X018052Y033228
X015945Y03122
X018052Y029291
X018052Y025354
X018052Y021417
X018052Y01748
X018052Y013543
X021989Y013543
X025926Y013543
X021989Y021417
X025926Y021417
X025926Y025354
X021989Y025354
X025926Y029291
X021989Y033228
X025926Y033228
X021989Y037165
X025926Y037165
X025926Y041102
X027677Y041299
X027913Y041575
X028189Y04185
X025926Y045039
X02815Y05189
X02815Y052795
X025926Y052913
X021989Y052913
X027913Y05311
X027677Y053386
X021989Y060787
X029863Y060787
X029488Y050118
X029882Y048622
X028425Y042087
X029863Y029291
X030354Y027717
X029921Y027323
X032362Y026417
X032598Y026181
X029863Y025354
X029863Y021417
X03122Y019094
X030787Y01878
X031811Y01878
X029863Y01748
X029863Y013543
X032362Y013268
X032598Y013071
X032795Y012835
X033031Y012638
X033228Y012402
X0338Y013543
X037737Y013543
X0338Y01748
X037737Y01748
X0338Y021417
X037737Y021417
X037737Y025354
X0338Y025354
X0338Y029291
X035276Y039764
X035787Y039764
X035039Y040157
X035512Y040157
X037737Y045039
X035787Y045984
X035512Y047008
X037737Y048976
X037737Y052913
X037737Y05685
X041674Y060787
X041674Y052913
X041674Y048976
X041674Y037165
X042717Y036772
X042441Y036496
X042165Y03622
X04185Y035945
X041575Y03563
X038858Y031929
X039094Y03126
X04Y019055
X039685Y01878
X041674Y013543
X045611Y013543
X045611Y01748
X045611Y025354
X046063Y032165
X045787Y032441
X045512Y032717
X045236Y032992
X045611Y037165
X048071Y040354
X045611Y05685
X045611Y060787
X049548Y060787
X049548Y05685
X049548Y052913
X049548Y048976
X050984Y041378
X049961Y041024
X049016Y040669
X049548Y037165
X050787Y035315
X049764Y035079
X050906Y032992
X050591Y032717
X051181Y032165
X048307Y024213
X049548Y01748
X049548Y013543
X053485Y013543
X057422Y013543
X05622Y014528
X053485Y01748
X057422Y01748
X05622Y020039
X057422Y021417
X053485Y025354
X05622Y025551
X053485Y029291
X05622Y031063
X057422Y033228
X05437Y033465
X054134Y033701
X053898Y033898
X057441Y03563
X056614Y035945
X057008Y035945
X053485Y037165
X057008Y044016
X053485Y045039
X056614Y045551
X057441Y045827
X053485Y048976
X057422Y048976
X053485Y052913
X057422Y052913
X053485Y05685
X057422Y05685
X061359Y05685
X061359Y052913
X061359Y048976
X061417Y045827
X062402Y045591
X058386Y045354
X059409Y045118
X059921Y040354
X058386Y036772
X059409Y036496
X061417Y03622
X062402Y035945
X061359Y033228
X06252Y031063
X06252Y025551
X061359Y021417
X06252Y020039
X061359Y01748
X06252Y014528
X061359Y013543
X065296Y013543
X065296Y01748
X065296Y021417
X065296Y033228
X067362Y035945
X066339Y03622
X06437Y036496
X063346Y036772
X064961Y040669
X06437Y045118
X063346Y045354
X067362Y045591
X066339Y045827
X065296Y048976
X065296Y052913
X065296Y05685
X069233Y060787
X07317Y060787
X069233Y05685
X07317Y05685
X069233Y052913
X07317Y052913
X069233Y048976
X07317Y048976
X071299Y045827
X072323Y045591
X068307Y045354
X073268Y045354
X069331Y045118
X07317Y041102
X069882Y041024
X073268Y036772
X068307Y036772
X069331Y036496
X071339Y03622
X072323Y035945
X068819Y031063
X068819Y025551
X07317Y021417
X069233Y021417
X068819Y020039
X069233Y01748
X068819Y014528
X069233Y013543
X07317Y013543
X077107Y013543
X075118Y014528
X077107Y01748
X075118Y020039
X077107Y021417
X075118Y025551
X075118Y031063
X077107Y033228
X077283Y035945
X076299Y03622
X074291Y036496
X077107Y041102
X074921Y041378
X074252Y045118
X077283Y045591
X076299Y045827
X077107Y048976
X077107Y052913
X077107Y05685
X077107Y060787
X08126Y062362
X080703Y062131
X081817Y062131
X080472Y061575
X082047Y061575
X081817Y061018
X080703Y061018
X08126Y060787
X081044Y05685
X081044Y052913
X081044Y048976
X081044Y045039
X081044Y041102
X081044Y037165
X081044Y033228
X081044Y029291
X081044Y025354
X081044Y021417
X081044Y01748
X081044Y013543
X08126Y012362
X080703Y012131
X081817Y012131
X080472Y011575
X082047Y011575
X081817Y011018
X080703Y011018
X08126Y010787
T2C.02362F197S55
X019685Y024843
X028228Y024843
X021417Y040079
X029685Y045984
X028858Y04
X031929Y04
X031929Y027756
X03622Y027756
X034843Y024843
X036772Y022874
X041732Y027756
X043346Y031142
X044291Y034567
X049528Y04563
X044291Y054882
X043425Y060079
X058819Y015276
T3C.035F197S55
X015512Y011575
X010992Y04189
X014992Y04189
X010992Y043071
X014992Y043071
X014992Y044252
X010992Y044252
X014992Y045433
X010992Y045433
X014992Y046614
X010992Y046614
X014992Y047795
X010992Y047795
X010996Y048976
X011996Y048976
X014991Y054638
X014991Y055638
X014991Y056638
X014991Y057638
X014991Y058638
X015991Y059638
X016991Y059638
X017991Y059638
X015991Y058638
X016991Y058638
X017991Y058638
X015991Y057638
X016991Y057638
X017991Y057638
X015991Y056638
X016991Y056638
X017991Y056638
X015991Y055638
X016991Y055638
X017991Y055638
X015991Y054638
X016991Y054638
X017991Y054638
X015991Y053638
X016991Y053638
X017991Y053638
X017161Y047563
X017161Y046563
X017161Y045563
X017161Y044563
X01615Y043071
X017374Y034409
X017512Y011575
X016512Y011575
X018512Y011575
X019681Y022756
X019681Y024016
X018311Y028579
X019311Y028579
X020311Y028579
X020311Y031579
X019311Y031579
X018311Y031579
X018374Y034409
X02072Y034409
X02015Y043071
X020161Y044563
X020161Y045563
X020161Y046563
X020161Y047563
X018991Y053638
X019991Y053638
X018991Y054638
X019991Y054638
X018991Y055638
X019991Y055638
X018991Y056638
X019991Y056638
X018991Y057638
X019991Y057638
X018991Y058638
X019991Y058638
X018991Y059638
X019991Y059638
X020991Y059638
X021991Y058638
X020991Y058638
X021991Y057638
X020991Y057638
X021991Y056638
X020991Y056638
X021991Y055638
X020991Y055638
X021991Y054638
X020991Y054638
X020991Y053638
X02172Y034409
X022311Y031579
X021311Y031579
X021311Y028579
X022311Y028579
X022681Y024016
X022681Y022756
X021705Y02063
X022705Y02063
X022705Y017087
X021705Y017087
X02378Y011575
X02478Y011575
X02578Y011575
X025248Y017087
X024248Y01913
X024248Y02013
X024248Y02113
X024248Y02213
X023311Y028579
X024311Y028579
X025311Y028579
X025311Y031579
X024311Y031579
X023311Y031579
X025067Y034409
X024067Y034409
X02563Y042724
X02563Y046724
X024299Y046772
X023299Y046772
X025303Y048976
X024303Y048976
X025106Y054
X026106Y06
X027106Y06
X026106Y059
X027106Y059
X026106Y058
X027106Y058
X026106Y057
X027106Y057
X026106Y056
X027106Y056
X026106Y054
X027217Y034409
X028217Y034409
X028217Y030079
X027217Y030079
X027248Y02213
X027248Y02113
X027248Y02013
X027248Y01913
X026248Y017087
X02678Y011575
X02778Y011575
X031827Y014839
X034827Y014839
X031827Y015839
X034827Y015839
X031827Y016839
X034827Y016839
X031827Y017839
X034827Y017839
X033831Y02063
X034831Y02063
X034016Y032
X034016Y033
X034016Y034
X034016Y035
X034016Y036
X034016Y037
X034016Y038
X034016Y039
X034016Y04
X034016Y041
X034016Y042
X034016Y043
X034016Y044
X034016Y045
X03185Y045992
X034016Y046
X034016Y047
X034016Y048
X034016Y049
X03185Y049992
X034016Y05
X03185Y050992
X034016Y051
X034016Y052
X034016Y053
X034016Y054
X03185Y054992
X034016Y055
X034016Y056
X034016Y057
X034016Y058
X034016Y059
X039921Y059
X039921Y058
X039921Y057
X039921Y056
X039921Y055
X039921Y054
X039921Y053
X039921Y052
X039921Y051
X039921Y05
X039921Y049
X039921Y048
X039921Y047
X039921Y046
X039921Y045
X039921Y044
X039921Y043
X039921Y042
X039921Y041
X039921Y04
X039921Y039
X039921Y038
X039921Y037
X039921Y036
X039921Y035
X039921Y034
X039921Y033
X039921Y032
X04072Y02063
X038717Y017823
X038717Y016823
X038717Y015823
X038717Y014823
X041717Y014823
X041717Y015823
X045835Y016772
X041717Y016823
X041717Y017823
X046925Y018461
X046925Y019461
X046925Y020461
X04172Y02063
X046925Y021461
X046925Y022461
X046925Y023461
X046925Y024461
X046925Y025461
X046925Y026461
X046925Y027461
X046925Y028461
X046925Y029461
X046925Y030461
X046925Y031461
X047787Y0395
X047787Y0425
X041469Y054882
X042469Y054882
X047205Y058016
X045236Y058016
X042469Y058031
X041469Y058031
X04622Y059
X051055Y061
X052055Y061
X053055Y061
X049787Y0425
X048787Y0425
X052787Y0425
X051787Y0425
X050787Y0425
X052787Y0395
X048787Y0395
X049787Y0395
X050787Y0395
X051787Y0395
X052126Y031579
X049925Y031461
X049925Y030461
X049925Y029461
X052126Y028579
X049925Y028461
X049925Y027461
X052126Y027248
X049925Y026461
X049925Y025461
X049925Y024461
X052126Y024248
X049925Y023461
X049925Y022461
X052571Y021811
X049925Y021461
X049925Y020461
X049925Y019461
X052126Y019283
X049925Y018461
X049835Y016772
X052126Y015283
X053583Y015283
X053583Y019283
X053571Y021811
X053583Y024248
X053583Y027248
X053583Y028579
X053583Y031579
X056228Y033425
X054787Y0395
X053787Y0395
X055787Y0395
X054787Y0425
X055787Y0425
X053787Y0425
X057055Y061
X058055Y061
X054055Y061
X055055Y061
X056055Y061
X059055Y061
X060055Y061
X061055Y061
X062055Y061
X063055Y061
X060394Y043992
X059394Y043992
X058394Y043992
X062394Y043992
X061394Y043992
X061394Y037992
X059394Y037992
X062394Y037992
X060394Y037992
X058394Y037992
X060228Y033425
X062528Y033425
X066528Y033425
X065354Y037992
X063354Y037992
X064354Y037992
X066354Y037992
X067354Y037992
X067354Y043992
X066354Y043992
X063354Y043992
X065354Y043992
X064354Y043992
X065055Y061
X064055Y061
X066055Y061
X068315Y043992
X069315Y043992
X070315Y043992
X072315Y043992
X071315Y043992
X073276Y043992
X070315Y037992
X073276Y037992
X071315Y037992
X072315Y037992
X068315Y037992
X069315Y037992
X072827Y033425
X068827Y033425
X075126Y033425
X079126Y033425
X075276Y037992
X076276Y037992
X077276Y037992
X074276Y037992
X077276Y043992
X075276Y043992
X074276Y043992
X076276Y043992
T4C.04331F139S55
X013433Y030929
X012315Y031474
X013433Y03202
X012315Y032565
X013433Y03311
X012315Y033656
X013433Y034201
X012315Y034746
X013433Y035291
T5C.04724F139S55
X045846Y012441
X045846Y014409
X055453Y031063
X055453Y029094
X055453Y025551
X055453Y023583
X055453Y020039
X055453Y018071
X055453Y014528
X050768Y014409
X055453Y012559
X050768Y012441
X060374Y012559
X061752Y012559
X060374Y014528
X061752Y014528
X060374Y018071
X061752Y018071
X061752Y020039
X060374Y020039
X061752Y023583
X060374Y023583
X061752Y025551
X060374Y025551
X061752Y029094
X060374Y029094
X061752Y031063
X060374Y031063
X066673Y031063
X068051Y031063
X066673Y029094
X068051Y029094
X068051Y025551
X066673Y025551
X068051Y023583
X066673Y023583
X068051Y020039
X066673Y020039
X066673Y018071
X068051Y018071
X066673Y014528
X068051Y014528
X068051Y012559
X066673Y012559
X072972Y012559
X07435Y012559
X072972Y014528
X07435Y014528
X072972Y018071
X07435Y018071
X072972Y020039
X07435Y020039
X07435Y023583
X072972Y023583
X07435Y025551
X072972Y025551
X072972Y029094
X07435Y029094
X07435Y031063
X072972Y031063
X079272Y031063
X079272Y029094
X079272Y025551
X079272Y023583
X079272Y020039
X079272Y018071
X079272Y014528
X079272Y012559
T6C.05906F107S55
X012087Y02
X02Y02
T7C.11811F069S658
X011575Y011575
X011575Y061575
X08126Y061575
X08126Y011575
T8C.15748F035S9
X012874Y02815
X012874Y038071
M30
