*
*
G04 PADS 9.5 Build Number: 522968 generated Gerber (RS-274-X) file*
G04 PC Version=2.1*
*
%IN "ATMEGA4809.pcb"*%
*
%MOIN*%
*
%FSLAX35Y35*%
*
*
*
*
G04 PC Standard Apertures*
*
*
G04 Thermal Relief Aperture macro.*
%AMTER*
1,1,$1,0,0*
1,0,$1-$2,0,0*
21,0,$3,$4,0,0,45*
21,0,$3,$4,0,0,135*
%
*
*
G04 Annular Aperture macro.*
%AMANN*
1,1,$1,0,0*
1,0,$2,0,0*
%
*
*
G04 Odd Aperture macro.*
%AMODD*
1,1,$1,0,0*
1,0,$1-0.005,0,0*
%
*
*
G04 PC Custom Aperture Macros*
*
*
*
*
*
*
G04 PC Aperture Table*
*
%ADD010C,0.001*%
%ADD021C,0.00394*%
%ADD022C,0.005*%
%ADD023C,0.01*%
%ADD024C,0.01969*%
*
*
*
*
G04 PC Circuitry*
G04 Layer Name ATMEGA4809.pcb - circuitry*
%LPD*%
*
*
G04 PC Custom Flashes*
G04 Layer Name ATMEGA4809.pcb - flashes*
%LPD*%
*
*
G04 PC Circuitry*
G04 Layer Name ATMEGA4809.pcb - circuitry*
%LPD*%
*
G54D10*
G54D21*
G01X756260Y339370D02*
X786260D01*
Y329134*
X756260*
Y339370*
X744488Y324409D02*
X791732D01*
Y277165*
X744488*
Y324409*
Y269291D02*
X791732D01*
Y222047*
X744488*
Y269291*
Y214173D02*
X791732D01*
Y166929*
X744488*
Y214173*
Y159055D02*
X791732D01*
Y111811*
X744488*
Y159055*
X727953Y372598D02*
X777559D01*
Y447402*
X727953*
Y372598*
X693268Y339370D02*
X723268D01*
Y329134*
X693268*
Y339370*
X681496Y324409D02*
X728740D01*
Y277165*
X681496*
Y324409*
Y269291D02*
X728740D01*
Y222047*
X681496*
Y269291*
Y214173D02*
X728740D01*
Y166929*
X681496*
Y214173*
Y159055D02*
X728740D01*
Y111811*
X681496*
Y159055*
X678346Y372598D02*
X727953D01*
Y447402*
X678346*
Y372598*
X630276Y339370D02*
X660276D01*
Y329134*
X630276*
Y339370*
X628740Y372598D02*
X678346D01*
Y447402*
X628740*
Y372598*
X618504Y324409D02*
X665748D01*
Y277165*
X618504*
Y324409*
Y269291D02*
X665748D01*
Y222047*
X618504*
Y269291*
Y214173D02*
X665748D01*
Y166929*
X618504*
Y214173*
Y159055D02*
X665748D01*
Y111811*
X618504*
Y159055*
X579134Y372598D02*
X628740D01*
Y447402*
X579134*
Y372598*
X567283Y339370D02*
X597283D01*
Y329134*
X567283*
Y339370*
X555512Y324409D02*
X602756D01*
Y277165*
X555512*
Y324409*
Y269291D02*
X602756D01*
Y222047*
X555512*
Y269291*
Y214173D02*
X602756D01*
Y166929*
X555512*
Y214173*
Y159055D02*
X602756D01*
Y111811*
X555512*
Y159055*
X530827Y290787D02*
Y310787D01*
X540827*
Y290787*
X530827*
X540787Y306890D02*
X530787D01*
X530827Y247480D02*
Y267480D01*
X540827*
Y247480*
X530827*
X540787Y263583D02*
X530787D01*
X530709Y157835D02*
Y187835D01*
X540945*
Y157835*
X530709*
X540709Y218110D02*
G75*
G03X540709I-10000J0D01*
G01X530709D02*
Y228110D01*
Y218110D02*
Y208110D01*
X520709Y218110D02*
X530709Y228110D01*
Y218110D02*
X523638Y211039D01*
X530709Y225197D02*
X521043Y215531D01*
X530709Y215748D02*
X524917Y209957D01*
X530693Y213386D02*
X526394Y209087D01*
X530709Y211024D02*
X528130Y208445D01*
X530709Y220472D02*
X522555Y212319D01*
X530709Y222835D02*
X521681Y213807D01*
X521295Y221500D02*
X527303Y227508D01*
X516260Y290787D02*
Y310787D01*
X526260*
Y290787*
X516260*
X526220Y306890D02*
X516220D01*
X516260Y247480D02*
Y267480D01*
X526260*
Y247480*
X516260*
X526220Y263583D02*
X516220D01*
X516142Y157835D02*
Y187835D01*
X526378*
Y157835*
X516142*
X794961Y619843D02*
Y478110D01*
X480000*
Y619843*
X794961*
X472874Y390000D02*
Y430000D01*
X562874*
Y390000*
X472874*
X464252Y320606D02*
X504252D01*
Y179606*
X464252*
Y320606*
X493346Y162598D02*
X463346D01*
Y172835*
X493346*
Y162598*
X459449Y157874D02*
X506693D01*
Y110630*
X459449*
Y157874*
X479921Y562441D02*
X444488D01*
Y597874*
X479921*
Y562441*
X429685Y580315D02*
G03X429685I-10000J0D01*
G01X419685D02*
Y590315D01*
Y580315D02*
Y570315D01*
X409685Y580315D02*
X419685Y590315D01*
Y580315D02*
X412614Y573244D01*
X419685Y587402D02*
X410020Y577736D01*
X419685Y577953D02*
X413894Y572161D01*
X419669Y575591D02*
X415370Y571291D01*
X419685Y573228D02*
X417106Y570650D01*
X419685Y582677D02*
X411531Y574524D01*
X419685Y585039D02*
X410657Y576012D01*
X410272Y583705D02*
X416280Y589713D01*
X429685Y548819D02*
G03X429685I-10000J0D01*
G01X419685D02*
Y558819D01*
Y548819D02*
Y538819D01*
X409685Y548819D02*
X419685Y558819D01*
Y548819D02*
X412614Y541748D01*
X419685Y555906D02*
X410020Y546240D01*
X419685Y546457D02*
X413894Y540665D01*
X419669Y544094D02*
X415370Y539795D01*
X419685Y541732D02*
X417106Y539154D01*
X419685Y551181D02*
X411531Y543028D01*
X419685Y553543D02*
X410657Y544516D01*
X410272Y552209D02*
X416280Y558217D01*
X422205Y206299D02*
G03X422205I-10000J0D01*
G01X412205D02*
Y216299D01*
Y206299D02*
Y196299D01*
X402205Y206299D02*
X412205Y216299D01*
Y206299D02*
X405134Y199228D01*
X412205Y213386D02*
X402539Y203720D01*
X412205Y203937D02*
X406413Y198146D01*
X412189Y201575D02*
X407890Y197276D01*
X412205Y199213D02*
X409626Y196634D01*
X412205Y208661D02*
X404051Y200508D01*
X412205Y211024D02*
X403177Y201996D01*
X402791Y209689D02*
X408799Y215697D01*
X382165Y185728D02*
X422165D01*
Y140728*
X382165*
Y185728*
X353307Y206299D02*
G03X353307I-10000J0D01*
G01X343307D02*
Y216299D01*
Y206299D02*
Y196299D01*
X333307Y206299D02*
X343307Y216299D01*
Y206299D02*
X336236Y199228D01*
X343307Y213386D02*
X333642Y203720D01*
X343307Y203937D02*
X337516Y198146D01*
X343291Y201575D02*
X338992Y197276D01*
X343307Y199213D02*
X340728Y196634D01*
X343307Y208661D02*
X335154Y200508D01*
X343307Y211024D02*
X334280Y201996D01*
X333894Y209689D02*
X339902Y215697D01*
X330315Y619134D02*
X409055D01*
Y288425*
X330315*
Y619134*
X359843D02*
X379528D01*
Y607717*
X359843*
Y619134*
Y308110D02*
X379528D01*
Y288425*
X359843*
Y308110*
X373622Y298268D02*
G03X373622I-3937J0D01*
G01X313386Y514921D02*
Y544921D01*
X323622*
Y514921*
X313386*
X323622Y494921D02*
Y464921D01*
X313386*
Y494921*
X323622*
X313268Y185886D02*
X353268D01*
Y140886*
X313268*
Y185886*
X287165Y344094D02*
G03X287165I-10000J0D01*
G01X277165D02*
Y354094D01*
Y344094D02*
Y334094D01*
X267165Y344094D02*
X277165Y354094D01*
Y344094D02*
X270094Y337024D01*
X277165Y351181D02*
X267500Y341516D01*
X277165Y341732D02*
X271374Y335941D01*
X277150Y339370D02*
X272850Y335071D01*
X277165Y337008D02*
X274587Y334429D01*
X277165Y346457D02*
X269012Y338303D01*
X277165Y348819D02*
X268138Y339791D01*
X267752Y347484D02*
X273760Y353492D01*
X287165Y300787D02*
G03X287165I-10000J0D01*
G01X277165D02*
Y310787D01*
Y300787D02*
Y290787D01*
X267165Y300787D02*
X277165Y310787D01*
Y300787D02*
X270094Y293717D01*
X277165Y307874D02*
X267500Y298209D01*
X277165Y298425D02*
X271374Y292634D01*
X277150Y296063D02*
X272850Y291764D01*
X277165Y293701D02*
X274587Y291122D01*
X277165Y303150D02*
X269012Y294996D01*
X277165Y305512D02*
X268138Y296484D01*
X267752Y304177D02*
X273760Y310185D01*
X255157Y605906D02*
X276969D01*
Y554094*
X255157*
Y605906*
X251181Y432244D02*
Y462244D01*
X261417*
Y432244*
X251181*
X247559Y175787D02*
X267402D01*
Y165945*
X247559*
Y175787*
X266063Y540000D02*
G03X266063I-10000J0D01*
G01X256063D02*
Y550000D01*
Y540000D02*
Y530000D01*
X246063Y540000D02*
X256063Y550000D01*
Y540000D02*
X248992Y532929D01*
X256063Y547087D02*
X246398Y537421D01*
X256063Y537638D02*
X250272Y531846D01*
X256047Y535276D02*
X251748Y530976D01*
X256063Y532913D02*
X253484Y530335D01*
X256063Y542362D02*
X247909Y534209D01*
X256063Y544724D02*
X247035Y535697D01*
X246650Y543390D02*
X252657Y549398D01*
X238110Y494685D02*
X257953D01*
Y484843*
X238110*
Y494685*
X237480Y228799D02*
X277480D01*
Y183799*
X237480*
Y228799*
X255669Y344094D02*
G03X255669I-10000J0D01*
G01X245669D02*
Y354094D01*
Y344094D02*
Y334094D01*
X235669Y344094D02*
X245669Y354094D01*
Y344094D02*
X238598Y337024D01*
X245669Y351181D02*
X236004Y341516D01*
X245669Y341732D02*
X239878Y335941D01*
X245654Y339370D02*
X241354Y335071D01*
X245669Y337008D02*
X243091Y334429D01*
X245669Y346457D02*
X237516Y338303D01*
X245669Y348819D02*
X236642Y339791D01*
X236256Y347484D02*
X242264Y353492D01*
X232677Y110630D02*
Y120866D01*
X282913*
Y110630*
X232677*
X247992Y467717D02*
G03X247992I-10000J0D01*
G01X237992D02*
Y477717D01*
Y467717D02*
Y457717D01*
X227992Y467717D02*
X237992Y477717D01*
Y467717D02*
X230921Y460646D01*
X237992Y474803D02*
X228327Y465138D01*
X237992Y465354D02*
X232201Y459563D01*
X237976Y462992D02*
X233677Y458693D01*
X237992Y460630D02*
X235413Y458051D01*
X237992Y470079D02*
X229839Y461925D01*
X237992Y472441D02*
X228965Y463413D01*
X228579Y471106D02*
X234587Y477114D01*
X232047Y206299D02*
G03X232047I-10000J0D01*
G01X222047D02*
Y216299D01*
Y206299D02*
Y196299D01*
X212047Y206299D02*
X222047Y216299D01*
Y206299D02*
X214976Y199228D01*
X222047Y213386D02*
X212382Y203720D01*
X222047Y203937D02*
X216256Y198146D01*
X222031Y201575D02*
X217732Y197276D01*
X222047Y199213D02*
X219469Y196634D01*
X222047Y208661D02*
X213894Y200508D01*
X222047Y211024D02*
X213020Y201996D01*
X212634Y209689D02*
X218642Y215697D01*
X232047Y170866D02*
G03X232047I-10000J0D01*
G01X222047D02*
Y180866D01*
Y170866D02*
Y160866D01*
X212047Y170866D02*
X222047Y180866D01*
Y170866D02*
X214976Y163795D01*
X222047Y177953D02*
X212382Y168287D01*
X222047Y168504D02*
X216256Y162713D01*
X222031Y166142D02*
X217732Y161843D01*
X222047Y163780D02*
X219469Y161201D01*
X222047Y173228D02*
X213894Y165075D01*
X222047Y175591D02*
X213020Y166563D01*
X212634Y174256D02*
X218642Y180264D01*
X222205Y344094D02*
G03X222205I-10000J0D01*
G01X212205D02*
Y354094D01*
Y344094D02*
Y334094D01*
X202205Y344094D02*
X212205Y354094D01*
Y344094D02*
X205134Y337024D01*
X212205Y351181D02*
X202539Y341516D01*
X212205Y341732D02*
X206413Y335941D01*
X212189Y339370D02*
X207890Y335071D01*
X212205Y337008D02*
X209626Y334429D01*
X212205Y346457D02*
X204051Y338303D01*
X212205Y348819D02*
X203177Y339791D01*
X202791Y347484D02*
X208799Y353492D01*
X201811Y245157D02*
X221811D01*
Y235157*
X201811*
Y245157*
X217913Y235197D02*
Y245197D01*
X201811Y232559D02*
X221811D01*
Y222559*
X201811*
Y232559*
X217913Y222598D02*
Y232598D01*
X258110Y320787D02*
Y280787D01*
X178110*
Y320787*
X258110*
X188740Y344094D02*
G03X188740I-10000J0D01*
G01X178740D02*
Y354094D01*
Y344094D02*
Y334094D01*
X168740Y344094D02*
X178740Y354094D01*
Y344094D02*
X171669Y337024D01*
X178740Y351181D02*
X169075Y341516D01*
X178740Y341732D02*
X172949Y335941D01*
X178724Y339370D02*
X174425Y335071D01*
X178740Y337008D02*
X176161Y334429D01*
X178740Y346457D02*
X170587Y338303D01*
X178740Y348819D02*
X169713Y339791D01*
X169327Y347484D02*
X175335Y353492D01*
X166614Y483130D02*
X206614D01*
Y438130*
X166614*
Y483130*
X196496Y425591D02*
X166496D01*
Y435827*
X196496*
Y425591*
X150000Y110630D02*
Y120866D01*
X190236*
Y110630*
X150000*
X114921Y483071D02*
X144921D01*
Y472835*
X114921*
Y483071*
Y471260D02*
X144921D01*
Y461024*
X114921*
Y471260*
X144921Y449213D02*
X114921D01*
Y459449*
X144921*
Y449213*
Y437402D02*
X114921D01*
Y447638*
X144921*
Y437402*
Y425591D02*
X114921D01*
Y435827*
X144921*
Y425591*
X114921Y424016D02*
X144921D01*
Y413780*
X114921*
Y424016*
X105039Y494685D02*
X124882D01*
Y484843*
X105039*
Y494685*
X153543Y270472D02*
X103937D01*
Y298819*
X153543*
Y270472*
X103937*
Y394094*
X153543*
Y270472*
Y363386D02*
X103937D01*
Y394094*
X153543*
Y363386*
X200000Y185433D02*
Y214567D01*
X192913Y200000D02*
G03X192913I-45275J0D01*
G01X200000Y185433D02*
X190551D01*
X200000Y214567D02*
X190551D01*
G54D22*
X509913Y603408D02*
X510141Y603564D01*
X510482Y604033*
Y600752*
X552028Y603966D02*
X550892D01*
X550778Y602560*
X550892Y602716*
X551233Y602873*
X551574*
X551915Y602716*
X552142Y602404*
X552256Y601935*
X552142Y601623*
X552028Y601154*
X551801Y600841*
X551460Y600685*
X551119*
X550778Y600841*
X550665Y600998*
X550551Y601310*
X600551Y603030D02*
X600778Y603187D01*
X601119Y603655*
Y600374*
X602824Y603655D02*
X602483Y603499D01*
X602256Y603030*
X602142Y602249*
Y601780*
X602256Y600999*
X602483Y600530*
X602824Y600374*
X603051*
X603392Y600530*
X603619Y600999*
X603733Y601780*
Y602249*
X603619Y603030*
X603392Y603499*
X603051Y603655*
X602824*
X650551Y602483D02*
X650778Y602639D01*
X651119Y603108*
Y599827*
X653619Y603108D02*
X652483D01*
X652369Y601702*
X652483Y601858*
X652824Y602014*
X653165*
X653506Y601858*
X653733Y601546*
X653847Y601077*
X653733Y600764*
X653619Y600296*
X653392Y599983*
X653051Y599827*
X652710*
X652369Y599983*
X652256Y600139*
X652142Y600452*
X740157Y335565D02*
Y332283D01*
Y335565D02*
X741180D01*
X741521Y335408*
X741635Y335252*
X741748Y334940*
Y334627*
X741635Y334315*
X741521Y334158*
X741180Y334002*
X740157*
X740953D02*
X741748Y332283D01*
X742771Y334940D02*
X742998Y335096D01*
X743339Y335565*
Y332283*
X744930Y335565D02*
X744589Y335408D01*
X744476Y335096*
Y334783*
X744589Y334471*
X744817Y334315*
X745271Y334158*
X745612Y334002*
X745839Y333690*
X745953Y333377*
Y332908*
X745839Y332596*
X745726Y332440*
X745385Y332283*
X744930*
X744589Y332440*
X744476Y332596*
X744362Y332908*
Y333377*
X744476Y333690*
X744703Y334002*
X745044Y334158*
X745498Y334315*
X745726Y334471*
X745839Y334783*
Y335096*
X745726Y335408*
X745385Y335565*
X744930*
X738992Y302025D02*
X738765Y302338D01*
X738424Y302494*
X737970*
X737629Y302338*
X737402Y302025*
Y301713*
X737515Y301400*
X737629Y301244*
X737856Y301088*
X738538Y300775*
X738765Y300619*
X738879Y300463*
X738992Y300150*
Y299681*
X738765Y299369*
X738424Y299213*
X737970*
X737629Y299369*
X737402Y299681*
X741152Y302494D02*
X740015Y300306D01*
X741720*
X741152Y302494D02*
Y299213D01*
X738992Y247301D02*
X738765Y247613D01*
X738424Y247769*
X737970*
X737629Y247613*
X737402Y247301*
Y246988*
X737515Y246676*
X737629Y246519*
X737856Y246363*
X738538Y246051*
X738765Y245894*
X738879Y245738*
X738992Y245426*
Y244957*
X738765Y244644*
X738424Y244488*
X737970*
X737629Y244644*
X737402Y244957*
X740583Y247769D02*
X740242Y247613D01*
X740129Y247301*
Y246988*
X740242Y246676*
X740470Y246519*
X740924Y246363*
X741265Y246207*
X741492Y245894*
X741606Y245582*
Y245113*
X741492Y244801*
X741379Y244644*
X741038Y244488*
X740583*
X740242Y244644*
X740129Y244801*
X740015Y245113*
Y245582*
X740129Y245894*
X740356Y246207*
X740697Y246363*
X741152Y246519*
X741379Y246676*
X741492Y246988*
Y247301*
X741379Y247613*
X741038Y247769*
X740583*
X738992Y192183D02*
X738765Y192495D01*
X738424Y192651*
X737970*
X737629Y192495*
X737402Y192183*
Y191870*
X737515Y191558*
X737629Y191401*
X737856Y191245*
X738538Y190933*
X738765Y190776*
X738879Y190620*
X738992Y190308*
Y189839*
X738765Y189526*
X738424Y189370*
X737970*
X737629Y189526*
X737402Y189839*
X740015Y192026D02*
X740242Y192183D01*
X740583Y192651*
Y189370*
X741720Y191870D02*
Y192026D01*
X741833Y192339*
X741947Y192495*
X742174Y192651*
X742629*
X742856Y192495*
X742970Y192339*
X743083Y192026*
Y191714*
X742970Y191401*
X742742Y190933*
X741606Y189370*
X743197*
X739386Y136277D02*
X739159Y136590D01*
X738818Y136746*
X738363*
X738023Y136590*
X737795Y136277*
Y135965*
X737909Y135652*
X738023Y135496*
X738250Y135340*
X738932Y135027*
X739159Y134871*
X739273Y134715*
X739386Y134402*
Y133933*
X739159Y133621*
X738818Y133465*
X738363*
X738023Y133621*
X737795Y133933*
X740409Y136121D02*
X740636Y136277D01*
X740977Y136746*
Y133465*
X743363Y136277D02*
X743250Y136590D01*
X742909Y136746*
X742682*
X742341Y136590*
X742113Y136121*
X742000Y135340*
Y134558*
X742113Y133933*
X742341Y133621*
X742682Y133465*
X742795*
X743136Y133621*
X743363Y133933*
X743477Y134402*
Y134558*
X743363Y135027*
X743136Y135340*
X742795Y135496*
X742682*
X742341Y135340*
X742113Y135027*
X742000Y134558*
X748819Y452494D02*
Y449213D01*
Y452494D02*
X750296D01*
X748819Y450931D02*
X749728D01*
X751319Y452494D02*
Y449213D01*
Y452494D02*
X752910Y449213D01*
Y452494D02*
Y449213D01*
X753933Y452494D02*
Y449213D01*
Y452494D02*
X754728D01*
X755069Y452338*
X755296Y452025*
X755410Y451713*
X755523Y451244*
Y450463*
X755410Y449994*
X755296Y449681*
X755069Y449369*
X754728Y449213*
X753933*
X757683Y452494D02*
X756546Y450306D01*
X758251*
X757683Y452494D02*
Y449213D01*
X677165Y335565D02*
Y332283D01*
Y335565D02*
X678188D01*
X678529Y335408*
X678643Y335252*
X678756Y334940*
Y334627*
X678643Y334315*
X678529Y334158*
X678188Y334002*
X677165*
X677961D02*
X678756Y332283D01*
X679779Y334940D02*
X680006Y335096D01*
X680347Y335565*
Y332283*
X682961Y335565D02*
X681824Y332283D01*
X681370Y335565D02*
X682961D01*
X676000Y302025D02*
X675773Y302338D01*
X675432Y302494*
X674978*
X674637Y302338*
X674409Y302025*
Y301713*
X674523Y301400*
X674637Y301244*
X674864Y301088*
X675546Y300775*
X675773Y300619*
X675887Y300463*
X676000Y300150*
Y299681*
X675773Y299369*
X675432Y299213*
X674978*
X674637Y299369*
X674409Y299681*
X677250Y302494D02*
X678500D01*
X677819Y301244*
X678159*
X678387Y301088*
X678500Y300931*
X678614Y300463*
Y300150*
X678500Y299681*
X678273Y299369*
X677932Y299213*
X677591*
X677250Y299369*
X677137Y299525*
X677023Y299838*
X676000Y247301D02*
X675773Y247613D01*
X675432Y247769*
X674978*
X674637Y247613*
X674409Y247301*
Y246988*
X674523Y246676*
X674637Y246519*
X674864Y246363*
X675546Y246051*
X675773Y245894*
X675887Y245738*
X676000Y245426*
Y244957*
X675773Y244644*
X675432Y244488*
X674978*
X674637Y244644*
X674409Y244957*
X678614Y247769D02*
X677478Y244488D01*
X677023Y247769D02*
X678614D01*
X676000Y192183D02*
X675773Y192495D01*
X675432Y192651*
X674978*
X674637Y192495*
X674409Y192183*
Y191870*
X674523Y191558*
X674637Y191401*
X674864Y191245*
X675546Y190933*
X675773Y190776*
X675887Y190620*
X676000Y190308*
Y189839*
X675773Y189526*
X675432Y189370*
X674978*
X674637Y189526*
X674409Y189839*
X677023Y192026D02*
X677250Y192183D01*
X677591Y192651*
Y189370*
X678614Y192026D02*
X678841Y192183D01*
X679182Y192651*
Y189370*
X676000Y136277D02*
X675773Y136590D01*
X675432Y136746*
X674978*
X674637Y136590*
X674409Y136277*
Y135965*
X674523Y135652*
X674637Y135496*
X674864Y135340*
X675546Y135027*
X675773Y134871*
X675887Y134715*
X676000Y134402*
Y133933*
X675773Y133621*
X675432Y133465*
X674978*
X674637Y133621*
X674409Y133933*
X677023Y136121D02*
X677250Y136277D01*
X677591Y136746*
Y133465*
X680091Y136746D02*
X678955D01*
X678841Y135340*
X678955Y135496*
X679296Y135652*
X679637*
X679978Y135496*
X680205Y135183*
X680319Y134715*
X680205Y134402*
X680091Y133933*
X679864Y133621*
X679523Y133465*
X679182*
X678841Y133621*
X678728Y133777*
X678614Y134090*
X699213Y452494D02*
Y449213D01*
Y452494D02*
X700690D01*
X699213Y450931D02*
X700122D01*
X701713Y452494D02*
Y449213D01*
Y452494D02*
X703304Y449213D01*
Y452494D02*
Y449213D01*
X704326Y452494D02*
Y449213D01*
Y452494D02*
X705122D01*
X705463Y452338*
X705690Y452025*
X705804Y451713*
X705917Y451244*
Y450463*
X705804Y449994*
X705690Y449681*
X705463Y449369*
X705122Y449213*
X704326*
X707167Y452494D02*
X708417D01*
X707735Y451244*
X708076*
X708304Y451088*
X708417Y450931*
X708531Y450463*
Y450150*
X708417Y449681*
X708190Y449369*
X707849Y449213*
X707508*
X707167Y449369*
X707054Y449525*
X706940Y449838*
X613780Y335565D02*
Y332283D01*
Y335565D02*
X614802D01*
X615143Y335408*
X615257Y335252*
X615370Y334940*
Y334627*
X615257Y334315*
X615143Y334158*
X614802Y334002*
X613780*
X614575D02*
X615370Y332283D01*
X616393Y334940D02*
X616620Y335096D01*
X616961Y335565*
Y332283*
X619348Y335096D02*
X619234Y335408D01*
X618893Y335565*
X618666*
X618325Y335408*
X618098Y334940*
X617984Y334158*
Y333377*
X618098Y332752*
X618325Y332440*
X618666Y332283*
X618780*
X619120Y332440*
X619348Y332752*
X619461Y333221*
Y333377*
X619348Y333846*
X619120Y334158*
X618780Y334315*
X618666*
X618325Y334158*
X618098Y333846*
X617984Y333377*
X649606Y452494D02*
Y449213D01*
Y452494D02*
X651084D01*
X649606Y450931D02*
X650515D01*
X652106Y452494D02*
Y449213D01*
Y452494D02*
X653697Y449213D01*
Y452494D02*
Y449213D01*
X654720Y452494D02*
Y449213D01*
Y452494D02*
X655515D01*
X655856Y452338*
X656084Y452025*
X656197Y451713*
X656311Y451244*
Y450463*
X656197Y449994*
X656084Y449681*
X655856Y449369*
X655515Y449213*
X654720*
X657447Y451713D02*
Y451869D01*
X657561Y452181*
X657674Y452338*
X657902Y452494*
X658356*
X658584Y452338*
X658697Y452181*
X658811Y451869*
Y451556*
X658697Y451244*
X658470Y450775*
X657334Y449213*
X658924*
X613402Y302025D02*
X613175Y302338D01*
X612834Y302494*
X612379*
X612038Y302338*
X611811Y302025*
Y301713*
X611925Y301400*
X612038Y301244*
X612266Y301088*
X612947Y300775*
X613175Y300619*
X613288Y300463*
X613402Y300150*
Y299681*
X613175Y299369*
X612834Y299213*
X612379*
X612038Y299369*
X611811Y299681*
X614538Y301713D02*
Y301869D01*
X614652Y302181*
X614766Y302338*
X614993Y302494*
X615447*
X615675Y302338*
X615788Y302181*
X615902Y301869*
Y301556*
X615788Y301244*
X615561Y300775*
X614425Y299213*
X616016*
X613402Y247301D02*
X613175Y247613D01*
X612834Y247769*
X612379*
X612038Y247613*
X611811Y247301*
Y246988*
X611925Y246676*
X612038Y246519*
X612266Y246363*
X612947Y246051*
X613175Y245894*
X613288Y245738*
X613402Y245426*
Y244957*
X613175Y244644*
X612834Y244488*
X612379*
X612038Y244644*
X611811Y244957*
X615788Y247301D02*
X615675Y247613D01*
X615334Y247769*
X615106*
X614766Y247613*
X614538Y247144*
X614425Y246363*
Y245582*
X614538Y244957*
X614766Y244644*
X615106Y244488*
X615220*
X615561Y244644*
X615788Y244957*
X615902Y245426*
Y245582*
X615788Y246051*
X615561Y246363*
X615220Y246519*
X615106*
X614766Y246363*
X614538Y246051*
X614425Y245582*
X613402Y192183D02*
X613175Y192495D01*
X612834Y192651*
X612379*
X612038Y192495*
X611811Y192183*
Y191870*
X611925Y191558*
X612038Y191401*
X612266Y191245*
X612947Y190933*
X613175Y190776*
X613288Y190620*
X613402Y190308*
Y189839*
X613175Y189526*
X612834Y189370*
X612379*
X612038Y189526*
X611811Y189839*
X614425Y192026D02*
X614652Y192183D01*
X614993Y192651*
Y189370*
X616697Y192651D02*
X616356Y192495D01*
X616129Y192026*
X616016Y191245*
Y190776*
X616129Y189995*
X616356Y189526*
X616697Y189370*
X616925*
X617266Y189526*
X617493Y189995*
X617606Y190776*
Y191245*
X617493Y192026*
X617266Y192495*
X616925Y192651*
X616697*
X613402Y136277D02*
X613175Y136590D01*
X612834Y136746*
X612379*
X612038Y136590*
X611811Y136277*
Y135965*
X611925Y135652*
X612038Y135496*
X612266Y135340*
X612947Y135027*
X613175Y134871*
X613288Y134715*
X613402Y134402*
Y133933*
X613175Y133621*
X612834Y133465*
X612379*
X612038Y133621*
X611811Y133933*
X614425Y136121D02*
X614652Y136277D01*
X614993Y136746*
Y133465*
X617152Y136746D02*
X616016Y134558D01*
X617720*
X617152Y136746D02*
Y133465D01*
X600000Y452494D02*
Y449213D01*
Y452494D02*
X601477D01*
X600000Y450931D02*
X600909D01*
X602500Y452494D02*
Y449213D01*
Y452494D02*
X604091Y449213D01*
Y452494D02*
Y449213D01*
X605114Y452494D02*
Y449213D01*
Y452494D02*
X605909D01*
X606250Y452338*
X606477Y452025*
X606591Y451713*
X606705Y451244*
Y450463*
X606591Y449994*
X606477Y449681*
X606250Y449369*
X605909Y449213*
X605114*
X607727Y451869D02*
X607955Y452025D01*
X608295Y452494*
Y449213*
X550394Y335565D02*
Y332283D01*
Y335565D02*
X551416D01*
X551757Y335408*
X551871Y335252*
X551985Y334940*
Y334627*
X551871Y334315*
X551757Y334158*
X551416Y334002*
X550394*
X551189D02*
X551985Y332283D01*
X553007Y334940D02*
X553235Y335096D01*
X553576Y335565*
Y332283*
X556076Y335565D02*
X554939D01*
X554826Y334158*
X554939Y334315*
X555280Y334471*
X555621*
X555962Y334315*
X556189Y334002*
X556303Y333533*
X556189Y333221*
X556076Y332752*
X555848Y332440*
X555507Y332283*
X555166*
X554826Y332440*
X554712Y332596*
X554598Y332908*
X550804Y302025D02*
X550576Y302338D01*
X550235Y302494*
X549781*
X549440Y302338*
X549213Y302025*
Y301713*
X549326Y301400*
X549440Y301244*
X549667Y301088*
X550349Y300775*
X550576Y300619*
X550690Y300463*
X550804Y300150*
Y299681*
X550576Y299369*
X550235Y299213*
X549781*
X549440Y299369*
X549213Y299681*
X551826Y301869D02*
X552054Y302025D01*
X552394Y302494*
Y299213*
X550804Y247301D02*
X550576Y247613D01*
X550235Y247769*
X549781*
X549440Y247613*
X549213Y247301*
Y246988*
X549326Y246676*
X549440Y246519*
X549667Y246363*
X550349Y246051*
X550576Y245894*
X550690Y245738*
X550804Y245426*
Y244957*
X550576Y244644*
X550235Y244488*
X549781*
X549440Y244644*
X549213Y244957*
X553304Y247769D02*
X552167D01*
X552054Y246363*
X552167Y246519*
X552508Y246676*
X552849*
X553190Y246519*
X553417Y246207*
X553531Y245738*
X553417Y245426*
X553304Y244957*
X553076Y244644*
X552735Y244488*
X552394*
X552054Y244644*
X551940Y244801*
X551826Y245113*
X550804Y192183D02*
X550576Y192495D01*
X550235Y192651*
X549781*
X549440Y192495*
X549213Y192183*
Y191870*
X549326Y191558*
X549440Y191401*
X549667Y191245*
X550349Y190933*
X550576Y190776*
X550690Y190620*
X550804Y190308*
Y189839*
X550576Y189526*
X550235Y189370*
X549781*
X549440Y189526*
X549213Y189839*
X553304Y191558D02*
X553190Y191089D01*
X552963Y190776*
X552622Y190620*
X552508*
X552167Y190776*
X551940Y191089*
X551826Y191558*
Y191714*
X551940Y192183*
X552167Y192495*
X552508Y192651*
X552622*
X552963Y192495*
X553190Y192183*
X553304Y191558*
Y190776*
X553190Y189995*
X552963Y189526*
X552622Y189370*
X552394*
X552054Y189526*
X551940Y189839*
X550804Y136277D02*
X550576Y136590D01*
X550235Y136746*
X549781*
X549440Y136590*
X549213Y136277*
Y135965*
X549326Y135652*
X549440Y135496*
X549667Y135340*
X550349Y135027*
X550576Y134871*
X550690Y134715*
X550804Y134402*
Y133933*
X550576Y133621*
X550235Y133465*
X549781*
X549440Y133621*
X549213Y133933*
X551826Y136121D02*
X552054Y136277D01*
X552394Y136746*
Y133465*
X553644Y136746D02*
X554894D01*
X554213Y135496*
X554554*
X554781Y135340*
X554894Y135183*
X555008Y134715*
Y134402*
X554894Y133933*
X554667Y133621*
X554326Y133465*
X553985*
X553644Y133621*
X553531Y133777*
X553417Y134090*
X533858Y281234D02*
Y277953D01*
Y281234D02*
X534654D01*
X534995Y281078*
X535222Y280765*
X535336Y280453*
X535449Y279984*
Y279203*
X535336Y278734*
X535222Y278422*
X534995Y278109*
X534654Y277953*
X533858*
X536699Y281234D02*
X537949D01*
X537267Y279984*
X537608*
X537836Y279828*
X537949Y279672*
X538063Y279203*
Y278890*
X537949Y278422*
X537722Y278109*
X537381Y277953*
X537040*
X536699Y278109*
X536586Y278265*
X536472Y278578*
X533858Y237533D02*
Y234252D01*
Y237533D02*
X534654D01*
X534995Y237377*
X535222Y237064*
X535336Y236752*
X535449Y236283*
Y235502*
X535336Y235033*
X535222Y234721*
X534995Y234408*
X534654Y234252*
X533858*
X537949Y237533D02*
X536813D01*
X536699Y236127*
X536813Y236283*
X537154Y236439*
X537495*
X537836Y236283*
X538063Y235971*
X538176Y235502*
X538063Y235189*
X537949Y234721*
X537722Y234408*
X537381Y234252*
X537040*
X536699Y234408*
X536586Y234564*
X536472Y234877*
X533858Y147376D02*
Y144094D01*
Y147376D02*
X534881D01*
X535222Y147219*
X535336Y147063*
X535449Y146751*
Y146438*
X535336Y146126*
X535222Y145969*
X534881Y145813*
X533858*
X534654D02*
X535449Y144094D01*
X536472Y146751D02*
X536699Y146907D01*
X537040Y147376*
Y144094*
X538176Y146594D02*
Y146751D01*
X538290Y147063*
X538404Y147219*
X538631Y147376*
X539086*
X539313Y147219*
X539426Y147063*
X539540Y146751*
Y146438*
X539426Y146126*
X539199Y145657*
X538063Y144094*
X539654*
X529657Y205256D02*
X529544Y205568D01*
X529316Y205881*
X529089Y206037*
X528635*
X528407Y205881*
X528180Y205568*
X528066Y205256*
X527953Y204787*
Y204006*
X528066Y203537*
X528180Y203225*
X528407Y202912*
X528635Y202756*
X529089*
X529316Y202912*
X529544Y203225*
X529657Y203537*
X530680Y205412D02*
X530907Y205568D01*
X531248Y206037*
Y202756*
X532498Y206037D02*
X533748D01*
X533066Y204787*
X533407*
X533635Y204631*
X533748Y204475*
X533862Y204006*
Y203693*
X533748Y203225*
X533521Y202912*
X533180Y202756*
X532839*
X532498Y202912*
X532385Y203068*
X532271Y203381*
X519291Y281234D02*
Y277953D01*
Y281234D02*
X520087D01*
X520428Y281078*
X520655Y280765*
X520769Y280453*
X520882Y279984*
Y279203*
X520769Y278734*
X520655Y278422*
X520428Y278109*
X520087Y277953*
X519291*
X523041Y281234D02*
X521905Y279047D01*
X523610*
X523041Y281234D02*
Y277953D01*
X519291Y237533D02*
Y234252D01*
Y237533D02*
X520087D01*
X520428Y237377*
X520655Y237064*
X520769Y236752*
X520882Y236283*
Y235502*
X520769Y235033*
X520655Y234721*
X520428Y234408*
X520087Y234252*
X519291*
X523269Y237064D02*
X523155Y237377D01*
X522814Y237533*
X522587*
X522246Y237377*
X522019Y236908*
X521905Y236127*
Y235346*
X522019Y234721*
X522246Y234408*
X522587Y234252*
X522700*
X523041Y234408*
X523269Y234721*
X523382Y235189*
Y235346*
X523269Y235814*
X523041Y236127*
X522700Y236283*
X522587*
X522246Y236127*
X522019Y235814*
X521905Y235346*
X518898Y147376D02*
Y144094D01*
Y147376D02*
X519920D01*
X520261Y147219*
X520375Y147063*
X520489Y146751*
Y146438*
X520375Y146126*
X520261Y145969*
X519920Y145813*
X518898*
X519693D02*
X520489Y144094D01*
X521511Y146751D02*
X521739Y146907D01*
X522079Y147376*
Y144094*
X523329Y147376D02*
X524579D01*
X523898Y146126*
X524239*
X524466Y145969*
X524579Y145813*
X524693Y145344*
Y145032*
X524579Y144563*
X524352Y144251*
X524011Y144094*
X523670*
X523329Y144251*
X523216Y144407*
X523102Y144719*
X474758Y546588D02*
Y544088D01*
X474645Y543620*
X474531Y543463*
X474304Y543307*
X474077*
X473849Y543463*
X473736Y543620*
X473622Y544088*
Y544401*
X476349Y546588D02*
X476008Y546432D01*
X475895Y546120*
Y545807*
X476008Y545495*
X476236Y545338*
X476690Y545182*
X477031Y545026*
X477258Y544713*
X477372Y544401*
Y543932*
X477258Y543620*
X477145Y543463*
X476804Y543307*
X476349*
X476008Y543463*
X475895Y543620*
X475781Y543932*
Y544401*
X475895Y544713*
X476122Y545026*
X476463Y545182*
X476918Y545338*
X477145Y545495*
X477258Y545807*
Y546120*
X477145Y546432*
X476804Y546588*
X476349*
X466535Y411943D02*
Y409599D01*
X466649Y409130*
X466876Y408818*
X467217Y408661*
X467445*
X467785Y408818*
X468013Y409130*
X468126Y409599*
Y411943*
X470513Y411474D02*
X470399Y411786D01*
X470058Y411943*
X469831*
X469490Y411786*
X469263Y411318*
X469149Y410536*
Y409755*
X469263Y409130*
X469490Y408818*
X469831Y408661*
X469945*
X470285Y408818*
X470513Y409130*
X470626Y409599*
Y409755*
X470513Y410224*
X470285Y410536*
X469945Y410693*
X469831*
X469490Y410536*
X469263Y410224*
X469149Y409755*
X483071Y326510D02*
Y324166D01*
X483185Y323697*
X483185D02*
X483412Y323385D01*
X483753Y323228*
X483980*
X484321Y323385*
X484548Y323697*
X484662Y324166*
Y326510*
X487162Y325416D02*
X487048Y324947D01*
X486821Y324635*
X486480Y324478*
X486366*
X486025Y324635*
X485798Y324947*
X485685Y325416*
X485685D02*
Y325572D01*
X485685D02*
X485798Y326041D01*
X486025Y326353*
X486366Y326510*
X486480*
X486821Y326353*
X487048Y326041*
X487162Y325416*
Y324635*
X487048Y323853*
X486821Y323385*
X486480Y323228*
X486253*
X485912Y323385*
X485798Y323697*
X446850Y169029D02*
Y165748D01*
Y169029D02*
X447873D01*
X448214Y168873*
X448328Y168717*
X448441Y168404*
Y168092*
X448328Y167779*
X448214Y167623*
X447873Y167467*
X446850*
X447646D02*
X448441Y165748D01*
X449464Y168404D02*
X449691Y168561D01*
X450032Y169029*
Y165748*
X452191Y169029D02*
X451055Y166842D01*
X452759*
X452191Y169029D02*
Y165748D01*
X451985Y135883D02*
X451757Y136196D01*
X451416Y136352*
X450962*
X450621Y136196*
X450394Y135883*
Y135571*
X450507Y135258*
X450621Y135102*
X450848Y134946*
X451530Y134633*
X451757Y134477*
X451871Y134321*
X451985Y134008*
Y133540*
X451757Y133227*
X451416Y133071*
X450962*
X450621Y133227*
X450394Y133540*
X453007Y135727D02*
X453235Y135883D01*
X453576Y136352*
Y133071*
X456189Y136352D02*
X455053Y133071D01*
X454598Y136352D02*
X456189D01*
X459843Y561155D02*
Y557874D01*
Y561155D02*
X460865D01*
X461206Y560999*
X461320Y560843*
X461433Y560530*
Y560218*
X461320Y559905*
X461206Y559749*
X460865Y559593*
X459843*
X460638D02*
X461433Y557874D01*
X462456Y560530D02*
X462683Y560687D01*
X463024Y561155*
Y557874*
X464047Y560530D02*
X464274Y560687D01*
X464615Y561155*
Y557874*
X419421Y595020D02*
X419307Y595332D01*
X419080Y595645*
X418853Y595801*
X418398*
X418171Y595645*
X417944Y595332*
X417830Y595020*
X417717Y594551*
Y593770*
X417830Y593301*
X417944Y592988*
X418171Y592676*
X418398Y592520*
X418853*
X419080Y592676*
X419307Y592988*
X419421Y593301*
X420444Y595176D02*
X420671Y595332D01*
X421012Y595801*
Y592520*
X419421Y563287D02*
X419307Y563600D01*
X419080Y563912*
X418853Y564069*
X418398*
X418171Y563912*
X417944Y563600*
X417830Y563287*
X417717Y562819*
Y562037*
X417830Y561569*
X417944Y561256*
X418171Y560944*
X418398Y560787*
X418853*
X419080Y560944*
X419307Y561256*
X419421Y561569*
X420557Y563287D02*
Y563444D01*
X420671Y563756*
X420785Y563912*
X421012Y564069*
X421467*
X421694Y563912*
X421807Y563756*
X421921Y563444*
Y563131*
X421807Y562819*
X421580Y562350*
X420444Y560787*
X422035*
X395602Y206831D02*
X395489Y207143D01*
X395261Y207456*
X395034Y207612*
X394579*
X394352Y207456*
X394125Y207143*
X394011Y206831*
X393898Y206362*
Y205581*
X394011Y205112*
X394125Y204799*
X394352Y204487*
X394579Y204331*
X395034*
X395261Y204487*
X395489Y204799*
X395602Y205112*
X396625Y206987D02*
X396852Y207143D01*
X397193Y207612*
Y204331*
X398329Y206831D02*
Y206987D01*
X398443Y207299*
X398557Y207456*
X398784Y207612*
X399239*
X399466Y207456*
X399579Y207299*
X399693Y206987*
Y206674*
X399579Y206362*
X399352Y205893*
X398216Y204331*
X399807*
X400394Y139108D02*
Y136764D01*
X400507Y136296*
X400735Y135983*
X401076Y135827*
X401303*
X401644Y135983*
X401871Y136296*
X401985Y136764*
Y139108*
X403576D02*
X403235Y138952D01*
X403121Y138639*
Y138327*
X403235Y138014*
X403462Y137858*
X403916Y137702*
X404257Y137546*
X404485Y137233*
X404598Y136921*
Y136452*
X404485Y136139*
X404371Y135983*
X404030Y135827*
X403576*
X403235Y135983*
X403121Y136139*
X403007Y136452*
Y136921*
X403121Y137233*
X403348Y137546*
X403689Y137702*
X404144Y137858*
X404371Y138014*
X404485Y138327*
Y138639*
X404371Y138952*
X404030Y139108*
X403576*
X328279Y206831D02*
X328166Y207143D01*
X327938Y207456*
X327711Y207612*
X327257*
X327029Y207456*
X326802Y207143*
X326688Y206831*
X326575Y206362*
Y205581*
X326688Y205112*
X326802Y204799*
X327029Y204487*
X327257Y204331*
X327711*
X327938Y204487*
X328166Y204799*
X328279Y205112*
X330438Y207612D02*
X329302Y205424D01*
X331007*
X330438Y207612D02*
Y204331D01*
X316535Y591077D02*
Y588733D01*
X316649Y588264*
X316876Y587952*
X317217Y587795*
X317445*
X317785Y587952*
X318013Y588264*
X318126Y588733*
Y591077*
X319149Y590452D02*
X319376Y590608D01*
X319717Y591077*
Y587795*
X316535Y558006D02*
Y554724D01*
Y558006D02*
X317558D01*
X317899Y557849*
X318013Y557693*
X318126Y557381*
Y557068*
X318013Y556756*
X317899Y556599*
X317558Y556443*
X316535*
X317331D02*
X318126Y554724D01*
X319149Y557381D02*
X319376Y557537D01*
X319717Y558006*
Y554724*
X316535Y455643D02*
Y452362D01*
Y455643D02*
X317558D01*
X317899Y455487*
X318013Y455331*
X318126Y455018*
Y454706*
X318013Y454393*
X317899Y454237*
X317558Y454081*
X316535*
X317331D02*
X318126Y452362D01*
X319263Y454862D02*
Y455018D01*
X319376Y455331*
X319490Y455487*
X319717Y455643*
X320172*
X320399Y455487*
X320513Y455331*
X320626Y455018*
Y454706*
X320513Y454393*
X320285Y453925*
X319149Y452362*
X320740*
X331890Y139108D02*
Y136764D01*
X332003Y136296*
X332231Y135983*
X332572Y135827*
X332799*
X333140Y135983*
X333367Y136296*
X333481Y136764*
Y139108*
X334731D02*
X335981D01*
X335299Y137858*
X335640*
X335867Y137702*
X335981Y137546*
X336094Y137077*
Y136764*
X335981Y136296*
X335753Y135983*
X335412Y135827*
X335072*
X334731Y135983*
X334617Y136139*
X334503Y136452*
X276508Y358799D02*
X276394Y359112D01*
X276167Y359424*
X275940Y359580*
X275485*
X275258Y359424*
X275030Y359112*
X274917Y358799*
X274803Y358330*
Y357549*
X274917Y357080*
X275030Y356768*
X275258Y356455*
X275485Y356299*
X275940*
X276167Y356455*
X276394Y356768*
X276508Y357080*
X279008Y359580D02*
X277871D01*
X277758Y358174*
X277871Y358330*
X278212Y358487*
X278553*
X278894Y358330*
X279121Y358018*
X279235Y357549*
X279121Y357237*
X279008Y356768*
X278780Y356455*
X278440Y356299*
X278099*
X277758Y356455*
X277644Y356612*
X277530Y356924*
X276508Y314705D02*
X276394Y315017D01*
X276167Y315330*
X275940Y315486*
X275485*
X275258Y315330*
X275030Y315017*
X274917Y314705*
X274803Y314236*
Y313455*
X274917Y312986*
X275030Y312673*
X275258Y312361*
X275485Y312205*
X275940*
X276167Y312361*
X276394Y312673*
X276508Y312986*
X279121Y315486D02*
X277985Y312205D01*
X277530Y315486D02*
X279121D01*
X264916Y609974D02*
Y607474D01*
X264802Y607005*
X264689Y606849*
X264461Y606693*
X264234*
X264007Y606849*
X263893Y607005*
X263780Y607474*
Y607787*
X265939Y609349D02*
X266166Y609505D01*
X266507Y609974*
Y606693*
X268211Y609974D02*
X267870Y609818D01*
X267643Y609349*
X267530Y608568*
Y608099*
X267643Y607318*
X267870Y606849*
X268211Y606693*
X268439*
X268780Y606849*
X269007Y607318*
X269120Y608099*
Y608568*
X269007Y609349*
X268780Y609818*
X268439Y609974*
X268211*
X262992Y449344D02*
Y446063D01*
Y449344D02*
X264015D01*
X264356Y449188*
X264469Y449032*
X264583Y448719*
Y448407*
X264469Y448094*
X264356Y447938*
X264015Y447782*
X262992*
X263788D02*
X264583Y446063D01*
X265833Y449344D02*
X267083D01*
X266401Y448094*
X266742*
X266969Y447938*
X267083Y447782*
X267197Y447313*
Y447000*
X267083Y446532*
X266856Y446219*
X266515Y446063*
X266174*
X265833Y446219*
X265719Y446375*
X265606Y446688*
X240681Y540689D02*
X240567Y541001D01*
X240340Y541314*
X240113Y541470*
X239658*
X239431Y541314*
X239204Y541001*
X239090Y540689*
X238976Y540220*
Y539439*
X239090Y538970*
X239204Y538658*
X239431Y538345*
X239658Y538189*
X240113*
X240340Y538345*
X240567Y538658*
X240681Y538970*
X241704Y540845D02*
X241931Y541001D01*
X242272Y541470*
Y538189*
X244431Y541470D02*
X243295Y539283D01*
X244999*
X244431Y541470D02*
Y538189D01*
X231496Y491470D02*
Y489126D01*
X231610Y488658*
X231837Y488345*
X232178Y488189*
X232405*
X232746Y488345*
X232973Y488658*
X233087Y489126*
Y491470*
X234223Y490689D02*
Y490845D01*
X234337Y491158*
X234451Y491314*
X234678Y491470*
X235132*
X235360Y491314*
X235473Y491158*
X235587Y490845*
Y490533*
X235473Y490220*
X235246Y489751*
X234110Y488189*
X235701*
X254724Y233990D02*
Y231646D01*
X254838Y231177*
X255065Y230865*
X255406Y230709*
X255634*
X255634D02*
X255974Y230865D01*
X256202Y231177*
X256315Y231646*
Y233990*
X258929D02*
X257793Y230709D01*
X257338Y233990D02*
X258929D01*
X245012Y358799D02*
X244898Y359112D01*
X244671Y359424*
X244443Y359580*
X243989*
X243762Y359424*
X243534Y359112*
X243421Y358799*
X243307Y358330*
Y357549*
X243421Y357080*
X243534Y356768*
X243762Y356455*
X243989Y356299*
X244443*
X244671Y356455*
X244898Y356768*
X245012Y357080*
X246603Y359580D02*
X246262Y359424D01*
X246148Y359112*
Y358799*
X246262Y358487*
X246489Y358330*
X246943Y358174*
X247284Y358018*
X247512Y357705*
X247625Y357393*
Y356924*
X247512Y356612*
X247398Y356455*
X247057Y356299*
X246603*
X246262Y356455*
X246148Y356612*
X246034Y356924*
Y357393*
X246148Y357705*
X246375Y358018*
X246716Y358174*
X247171Y358330*
X247398Y358487*
X247512Y358799*
Y359112*
X247398Y359424*
X247057Y359580*
X246603*
X227908Y117454D02*
Y114954D01*
X227794Y114486*
X227681Y114329*
X227453Y114173*
X227226*
X226999Y114329*
X226885Y114486*
X226772Y114954*
Y115267*
X230522Y117454D02*
X229385Y114173D01*
X228931Y117454D02*
X230522D01*
X237728Y455256D02*
X237615Y455568D01*
X237387Y455881*
X237160Y456037*
X236705*
X236478Y455881*
X236251Y455568*
X236137Y455256*
X236024Y454787*
Y454006*
X236137Y453537*
X236251Y453225*
X236478Y452912*
X236705Y452756*
X237160*
X237387Y452912*
X237615Y453225*
X237728Y453537*
X238978Y456037D02*
X240228D01*
X239546Y454787*
X239887*
X240115Y454631*
X240228Y454475*
X240342Y454006*
Y453693*
X240228Y453225*
X240001Y452912*
X239660Y452756*
X239319*
X238978Y452912*
X238865Y453068*
X238751Y453381*
X220208Y193445D02*
X220095Y193757D01*
X219868Y194070*
X219640Y194226*
X219186*
X218958Y194070*
X218731Y193757*
X218618Y193445*
X218504Y192976*
Y192195*
X218618Y191726*
X218731Y191414*
X218958Y191101*
X219186Y190945*
X219640*
X219868Y191101*
X220095Y191414*
X220208Y191726*
X221231Y193601D02*
X221458Y193757D01*
X221799Y194226*
Y190945*
X223504Y194226D02*
X223163Y194070D01*
X222936Y193601*
X222822Y192820*
Y192351*
X222936Y191570*
X223163Y191101*
X223504Y190945*
X223731*
X224072Y191101*
X224299Y191570*
X224413Y192351*
Y192820*
X224299Y193601*
X224072Y194070*
X223731Y194226*
X223504*
X220208Y157618D02*
X220095Y157931D01*
X219868Y158243*
X219640Y158399*
X219186*
X218958Y158243*
X218731Y157931*
X218618Y157618*
X218504Y157149*
Y156368*
X218618Y155899*
X218731Y155587*
X218958Y155274*
X219186Y155118*
X219640*
X219868Y155274*
X220095Y155587*
X220208Y155899*
X221231Y157774D02*
X221458Y157931D01*
X221799Y158399*
Y155118*
X222822Y157774D02*
X223049Y157931D01*
X223390Y158399*
Y155118*
X211547Y358799D02*
X211433Y359112D01*
X211206Y359424*
X210979Y359580*
X210524*
X210297Y359424*
X210070Y359112*
X209956Y358799*
X209843Y358330*
Y357549*
X209956Y357080*
X210070Y356768*
X210297Y356455*
X210524Y356299*
X210979*
X211206Y356455*
X211433Y356768*
X211547Y357080*
X213933Y359112D02*
X213820Y359424D01*
X213479Y359580*
X213252*
X212911Y359424*
X212683Y358955*
X212570Y358174*
Y357393*
X212683Y356768*
X212911Y356455*
X213252Y356299*
X213365*
X213706Y356455*
X213933Y356768*
X214047Y357237*
Y357393*
X213933Y357862*
X213706Y358174*
X213365Y358330*
X213252*
X212911Y358174*
X212683Y357862*
X212570Y357393*
X225197Y248163D02*
Y244882D01*
Y248163D02*
X225992D01*
X226333Y248007*
X226560Y247694*
X226674Y247382*
X226788Y246913*
Y246132*
X226674Y245663*
X226560Y245351*
X226333Y245038*
X225992Y244882*
X225197*
X227810Y247538D02*
X228038Y247694D01*
X228379Y248163*
Y244882*
X225197Y235958D02*
Y232677D01*
Y235958D02*
X225992D01*
X226333Y235802*
X226560Y235490*
X226674Y235177*
X226788Y234708*
Y233927*
X226674Y233458*
X226560Y233146*
X226333Y232833*
X225992Y232677*
X225197*
X227924Y235177D02*
Y235333D01*
X228038Y235646*
X228151Y235802*
X228379Y235958*
X228833*
X229060Y235802*
X229174Y235646*
X229288Y235333*
Y235021*
X229174Y234708*
X228947Y234240*
X227810Y232677*
X229401*
X171654Y304462D02*
Y302119D01*
X171767Y301650*
X171994Y301337*
X172335Y301181*
X172563*
X172904Y301337*
X173131Y301650*
X173244Y302119*
Y304462*
X175744D02*
X174608D01*
X174494Y303056*
X174608Y303212*
X174949Y303369*
X175290*
X175631Y303212*
X175858Y302900*
X175972Y302431*
X175858Y302119*
X175744Y301650*
X175517Y301337*
X175176Y301181*
X174835*
X174494Y301337*
X174381Y301494*
X174267Y301806*
X178082Y358799D02*
X177969Y359112D01*
X177742Y359424*
X177514Y359580*
X177060*
X176832Y359424*
X176832D02*
X176605Y359112D01*
X176492Y358799*
X176378Y358330*
Y357549*
X176492Y357080*
X176605Y356768*
X176832Y356455*
X176832D02*
X177060Y356299D01*
X177514*
X177742Y356455*
X177969Y356768*
X178082Y357080*
X180582Y358487D02*
X180469Y358018D01*
X180242Y357705*
X179901Y357549*
X179787*
X179446Y357705*
X179219Y358018*
X179105Y358487*
Y358643*
X179219Y359112*
X179446Y359424*
X179787Y359580*
X179901*
X180242Y359424*
X180469Y359112*
X180582Y358487*
X180582D02*
Y357705D01*
X180582D02*
X180469Y356924D01*
X180242Y356455*
X179901Y356299*
X179673*
X179332Y356455*
X179332D02*
X179219Y356768D01*
X185433Y487927D02*
Y485583D01*
X185547Y485114*
X185774Y484802*
X186115Y484646*
X186342*
X186683Y484802*
X186910Y485114*
X187024Y485583*
Y487927*
X189183D02*
X188047Y485739D01*
X189751*
X189183Y487927D02*
Y484646D01*
X179134Y424935D02*
Y421654D01*
Y424935D02*
X180157D01*
X180497Y424779*
X180611Y424622*
X180725Y424310*
Y423997*
X180611Y423685*
X180497Y423529*
X180157Y423372*
X179134*
X179929D02*
X180725Y421654D01*
X181747Y424310D02*
X181975Y424466D01*
X182316Y424935*
Y421654*
X184020Y424935D02*
X183679Y424779D01*
X183452Y424310*
X183338Y423529*
Y423060*
X183452Y422279*
X183679Y421810*
X184020Y421654*
X184247*
X184588Y421810*
X184816Y422279*
X184929Y423060*
Y423529*
X184816Y424310*
X184588Y424779*
X184247Y424935*
X184020*
X145231Y117454D02*
Y114954D01*
X145117Y114486*
X145004Y114329*
X144776Y114173*
X144549*
X144322Y114329*
X144208Y114486*
X144094Y114954*
Y115267*
X147617Y116986D02*
X147504Y117298D01*
X147163Y117454*
X146935*
X146594Y117298*
X146367Y116829*
X146254Y116048*
Y115267*
X146367Y114642*
X146594Y114329*
X146935Y114173*
X147049*
X147390Y114329*
X147617Y114642*
X147731Y115111*
Y115267*
X147617Y115736*
X147390Y116048*
X147049Y116204*
X146935*
X146594Y116048*
X146367Y115736*
X146254Y115267*
X148031Y485171D02*
Y481890D01*
Y485171D02*
X149054D01*
X149395Y485015*
X149509Y484859*
X149622Y484546*
Y484234*
X149509Y483921*
X149395Y483765*
X149054Y483609*
X148031*
X148827D02*
X149622Y481890D01*
X151781Y485171D02*
X150645Y482984D01*
X152350*
X151781Y485171D02*
Y481890D01*
X148031Y473754D02*
Y470472D01*
Y473754D02*
X149054D01*
X149395Y473597*
X149509Y473441*
X149622Y473129*
Y472816*
X149509Y472504*
X149395Y472347*
X149054Y472191*
X148031*
X148827D02*
X149622Y470472D01*
X152122Y473754D02*
X150986D01*
X150872Y472347*
X150986Y472504*
X151327Y472660*
X151668*
X152009Y472504*
X152236Y472191*
X152350Y471722*
X152236Y471410*
X152122Y470941*
X151895Y470629*
X151554Y470472*
X151213*
X150872Y470629*
X150759Y470785*
X150645Y471097*
X148031Y461943D02*
Y458661D01*
Y461943D02*
X149054D01*
X149395Y461786*
X149509Y461630*
X149622Y461318*
Y461005*
X149509Y460693*
X149395Y460536*
X149054Y460380*
X148031*
X148827D02*
X149622Y458661D01*
X152009Y461474D02*
X151895Y461786D01*
X151554Y461943*
X151327*
X150986Y461786*
X150759Y461318*
X150645Y460536*
Y459755*
X150759Y459130*
X150986Y458818*
X151327Y458661*
X151441*
X151781Y458818*
X152009Y459130*
X152122Y459599*
Y459755*
X152009Y460224*
X151781Y460536*
X151441Y460693*
X151327*
X150986Y460536*
X150759Y460224*
X150645Y459755*
X148031Y450132D02*
Y446850D01*
Y450132D02*
X149054D01*
X149395Y449975*
X149509Y449819*
X149622Y449507*
Y449194*
X149509Y448882*
X149395Y448725*
X149054Y448569*
X148031*
X148827D02*
X149622Y446850D01*
X152236Y450132D02*
X151100Y446850D01*
X150645Y450132D02*
X152236D01*
X148031Y438321D02*
Y435039D01*
Y438321D02*
X149054D01*
X149395Y438164*
X149509Y438008*
X149622Y437696*
Y437383*
X149509Y437071*
X149395Y436914*
X149054Y436758*
X148031*
X148827D02*
X149622Y435039D01*
X151213Y438321D02*
X150872Y438164D01*
X150759Y437852*
Y437539*
X150872Y437227*
X151100Y437071*
X151554Y436914*
X151895Y436758*
X152122Y436446*
X152236Y436133*
Y435664*
X152122Y435352*
X152009Y435196*
X151668Y435039*
X151213*
X150872Y435196*
X150759Y435352*
X150645Y435664*
Y436133*
X150759Y436446*
X150986Y436758*
X151327Y436914*
X151781Y437071*
X152009Y437227*
X152122Y437539*
Y437852*
X152009Y438164*
X151668Y438321*
X151213*
X148031Y426510D02*
Y423228D01*
Y426510D02*
X149054D01*
X149395Y426353*
X149509Y426197*
X149622Y425885*
Y425572*
X149509Y425260*
X149395Y425103*
X149054Y424947*
X148031*
X148827D02*
X149622Y423228D01*
X152122Y425416D02*
X152009Y424947D01*
X151781Y424635*
X151441Y424478*
X151327*
X150986Y424635*
X150759Y424947*
X150645Y425416*
Y425572*
X150759Y426041*
X150986Y426353*
X151327Y426510*
X151441*
X151781Y426353*
X152009Y426041*
X152122Y425416*
Y424635*
X152009Y423853*
X151781Y423385*
X151441Y423228*
X151213*
X150872Y423385*
X150759Y423697*
X128695Y491470D02*
Y488970D01*
X128582Y488501*
X128468Y488345*
X128241Y488189*
X128014*
X127786Y488345*
X127673Y488501*
X127559Y488970*
Y489283*
X131195Y490376D02*
X131082Y489908D01*
X130855Y489595*
X130514Y489439*
X130400*
X130059Y489595*
X129832Y489908*
X129718Y490376*
Y490533*
X129832Y491001*
X130059Y491314*
X130400Y491470*
X130514*
X130855Y491314*
X131082Y491001*
X131195Y490376*
Y489595*
X131082Y488814*
X130855Y488345*
X130514Y488189*
X130286*
X129945Y488345*
X129832Y488658*
X156648Y332415D02*
Y329915D01*
X156535Y329446*
X156421Y329290*
X156194Y329134*
X155966*
X155739Y329290*
X155625Y329446*
X155512Y329915*
Y330228*
X157671Y331790D02*
X157898Y331946D01*
X158239Y332415*
Y329134*
X193307Y181628D02*
Y178346D01*
X194898Y181628D02*
X193307Y179440D01*
X193875Y180221D02*
X194898Y178346D01*
X195921Y181003D02*
X196148Y181159D01*
X196489Y181628*
Y178346*
G54D23*
X806201Y139370D02*
X811122Y142233D01*
X816535*
X806201Y145097D02*
X811122Y142233D01*
X809646Y150107D02*
X810138Y149392D01*
X811122Y148676*
X812598Y148318*
X813583*
X815059Y148676*
X816043Y149392*
X816535Y150107*
Y151181*
X816043Y151897*
X815059Y152613*
X813583Y152971*
X812598*
X811122Y152613*
X810138Y151897*
X809646Y151181*
Y150107*
Y156192D02*
X816535D01*
X811614D02*
X810138Y157266D01*
X809646Y157981*
Y159055*
X810138Y159771*
X811614Y160129*
X816535*
X811122Y167287D02*
X810138Y166929D01*
X809646Y165855*
Y164782*
X810138Y163708*
X811122Y163350*
X812106Y163708*
X812598Y164424*
X813091Y166213*
X813583Y166929*
X814567Y167287*
X815059*
X816043Y166929*
X816535Y165855*
Y164782*
X816043Y163708*
X815059Y163350*
X812598Y170508D02*
Y174803D01*
X811614*
X810630Y174445*
X810138Y174087*
X809646Y173372*
Y172298*
X810138Y171582*
X811122Y170866*
X812598Y170508*
X813583*
X815059Y170866*
X816043Y171582*
X816535Y172298*
Y173372*
X816043Y174087*
X815059Y174803*
X806201Y178024D02*
X806693Y178382D01*
X806201Y178740*
X805709Y178382*
X806201Y178024*
X809646Y178382D02*
X816535D01*
X806201Y190193D02*
X816535D01*
X806201D02*
Y193414D01*
X806693Y194488*
X807185Y194846*
X808169Y195204*
X809154*
X810138Y194846*
X810630Y194488*
X811122Y193414*
Y190193D02*
Y193414D01*
X811614Y194488*
X812106Y194846*
X813091Y195204*
X814567*
X815551Y194846*
X816043Y194488*
X816535Y193414*
Y190193*
X806201Y198425D02*
X806693Y198783D01*
X806201Y199141*
X805709Y198783*
X806201Y198425*
X809646Y198783D02*
X816535D01*
X809646Y204152D02*
X810138Y203436D01*
X811122Y202720*
X812598Y202362*
X813583*
X815059Y202720*
X816043Y203436*
X816535Y204152*
Y205225*
X816043Y205941*
X815059Y206657*
X813583Y207015*
X812598*
X811122Y206657*
X810138Y205941*
X809646Y205225*
Y204152*
Y210236D02*
X816535D01*
X811614D02*
X810138Y211310D01*
X809646Y212026*
Y213099*
X809646D02*
X810138Y213815D01*
X811614Y214173*
X816535*
X811614D02*
X810138Y215247D01*
X809646Y215963*
Y217037*
X810138Y217752*
X811614Y218110*
X816535*
X812598Y221331D02*
Y225626D01*
X811614*
X810630Y225268*
X810138Y224911*
X809646Y224195*
Y223121*
X810138Y222405*
X811122Y221689*
X812598Y221331*
X813583*
X815059Y221689*
X816043Y222405*
X816535Y223121*
Y224195*
X816043Y224911*
X815059Y225626*
X806201Y233142D02*
X816535D01*
X811122D02*
X810138Y232427D01*
X809646Y231711*
Y230637*
X810138Y229921*
X811122Y229205*
X812598Y228848*
X813583*
X815059Y229205*
X816043Y229921*
X816535Y230637*
Y231711*
X816043Y232427*
X815059Y233142*
X806201Y236364D02*
X806693Y236722D01*
X806201Y237079*
X805709Y236722*
X806201Y236364*
X809646Y236722D02*
X816535D01*
X811122Y244596D02*
X810138Y243880D01*
X809646Y243164*
Y242090*
X810138Y241374*
X811122Y240659*
X812598Y240301*
X813583*
X815059Y240659*
X816043Y241374*
X816535Y242090*
Y243164*
X816043Y243880*
X815059Y244596*
X809646Y252112D02*
X816535D01*
X811122D02*
X810138Y251396D01*
X809646Y250680*
Y249606*
X810138Y248890*
X811122Y248175*
X812598Y247817*
X813583*
X815059Y248175*
X816043Y248890*
X816535Y249606*
Y250680*
X816043Y251396*
X815059Y252112*
X806201Y255333D02*
X816535D01*
X812598Y266786D02*
Y271081D01*
X811614*
X810630Y270723*
X810138Y270365*
X809646Y269649*
Y268576*
X810138Y267860*
X811122Y267144*
X812598Y266786*
X813583*
X815059Y267144*
X816043Y267860*
X816535Y268576*
Y269649*
X816043Y270365*
X815059Y271081*
X809646Y274302D02*
X816535D01*
X811614D02*
X810138Y275376D01*
X809646Y276092*
Y277165*
X810138Y277881*
X811614Y278239*
X816535*
X809646Y285755D02*
X817520D01*
X818996Y285397*
X819488Y285039*
X819980Y284324*
Y283250*
X819488Y282534*
X811122Y285755D02*
X810138Y285039D01*
X809646Y284324*
Y283250*
X810138Y282534*
X811122Y281818*
X812598Y281460*
X813583*
X815059Y281818*
X816043Y282534*
X816535Y283250*
Y284324*
X816043Y285039*
X815059Y285755*
X806201Y288976D02*
X806693Y289334D01*
X806201Y289692*
X805709Y289334*
X806201Y288976*
X809646Y289334D02*
X816535D01*
X809646Y292913D02*
X816535D01*
X811614D02*
X810138Y293987D01*
X809646Y294703*
Y295777*
X810138Y296492*
X811614Y296850*
X816535*
X812598Y300072D02*
Y304366D01*
X812598D02*
X811614D01*
X811614D02*
X810630Y304009D01*
X810138Y303651*
X809646Y302935*
Y301861*
X810138Y301145*
X811122Y300429*
X812598Y300072*
X813583*
X815059Y300429*
X816043Y301145*
X816535Y301861*
Y302935*
X816043Y303651*
X815059Y304366*
X812598Y307588D02*
Y311883D01*
X811614*
X810630Y311525*
X810138Y311167*
X809646Y310451*
Y309377*
X810138Y308661*
X811122Y307946*
X812598Y307588*
X813583*
X815059Y307946*
X816043Y308661*
X816535Y309377*
Y310451*
X816043Y311167*
X815059Y311883*
X809646Y315104D02*
X816535D01*
X812598D02*
X811122Y315462D01*
X810138Y316178*
X809646Y316893*
Y317967*
X806201Y321188D02*
X806693Y321546D01*
X806201Y321904*
X805709Y321546*
X806201Y321188*
X809646Y321546D02*
X816535D01*
X809646Y325125D02*
X816535D01*
X811614D02*
X810138Y326199D01*
X809646Y326915*
Y327989*
X810138Y328704*
X811614Y329062*
X816535*
X809646Y336578D02*
X817520D01*
X818996Y336220*
X819488Y335863*
X819980Y335147*
Y334073*
X819488Y333357*
X811122Y336578D02*
X810138Y335863D01*
X809646Y335147*
Y334073*
X810138Y333357*
X811122Y332641*
X812598Y332283*
X813583*
X815059Y332641*
X816043Y333357*
X816535Y334073*
Y335147*
X816043Y335863*
X815059Y336578*
X804232Y354474D02*
X819980Y348031D01*
X806201Y365927D02*
X816535D01*
X806201D02*
X816535Y368790D01*
X806201Y371654D02*
X816535Y368790D01*
X806201Y371654D02*
X816535D01*
X808661Y380243D02*
X807677Y379885D01*
X806693Y379170*
X806201Y378454*
Y377022*
X806693Y376306*
X807677Y375591*
X808661Y375233*
X810138Y374875*
X812598*
X814075Y375233*
X815059Y375591*
X816043Y376306*
X816535Y377022*
Y378454*
X816043Y379170*
X815059Y379885*
X814075Y380243*
X807677Y388475D02*
X806693Y387759D01*
X806201Y386686*
Y385254*
X806693Y384180*
X807677Y383465*
X808661*
X809646Y383822*
X810138Y384180*
X810630Y384896*
X811614Y387044*
X812106Y387759*
X812598Y388117*
X813583Y388475*
X815059*
X816043Y387759*
X816535Y386686*
Y385254*
X816043Y384180*
X815059Y383465*
X806201Y391696D02*
X816535D01*
Y395991*
X806201Y410308D02*
X816535Y407445D01*
X806201Y410308D02*
X816535Y413171D01*
X813091Y408518D02*
Y412097D01*
X806201Y418898D02*
X816535D01*
X806201Y416392D02*
Y421403D01*
Y428203D02*
X813091Y424624D01*
Y429993*
X806201Y428203D02*
X816535D01*
X806201Y435004D02*
X806693Y433930D01*
X807677Y433572*
X808661*
X809646Y433930*
X810138Y434646*
X810630Y436077*
X811122Y437151*
X812106Y437867*
X813091Y438225*
X814567*
X815551Y437867*
X816043Y437509*
X816535Y436435*
Y435004*
X816043Y433930*
X815551Y433572*
X814567Y433214*
X813091*
X812106Y433572*
X811122Y434288*
X810630Y435361*
X810138Y436793*
X809646Y437509*
X808661Y437867*
X807677*
X806693Y437509*
X806201Y436435*
Y435004*
Y443593D02*
X806693Y442520D01*
X808169Y441804*
X810630Y441446*
X812106*
X814567Y441804*
X816043Y442520*
X816535Y443593*
Y444309*
X816043Y445383*
X814567Y446099*
X812106Y446457*
X810630*
X808169Y446099*
X806693Y445383*
X806201Y444309*
Y443593*
X809646Y454331D02*
X811122Y453973D01*
X812106Y453257*
X812598Y452183*
Y451825*
X812106Y450752*
X811122Y450036*
X809646Y449678*
X809154*
X807677Y450036*
X806693Y450752*
X806201Y451825*
Y452183*
X806693Y453257*
X807677Y453973*
X809646Y454331*
X812106*
X814567Y453973*
X816043Y453257*
X816535Y452183*
Y451467*
X816043Y450394*
X815059Y450036*
X806201Y465784D02*
X816535D01*
X806201D02*
Y469005D01*
X806693Y470079*
X807185Y470437*
X808169Y470795*
X809154*
X810138Y470437*
X810630Y470079*
X811122Y469005*
Y465784*
Y468289D02*
X816535Y470795D01*
X812598Y474016D02*
Y478311D01*
X811614*
X810630Y477953*
X810138Y477595*
X809646Y476879*
Y475805*
X810138Y475089*
X811122Y474374*
X812598Y474016*
X813583*
X815059Y474374*
X816043Y475089*
X816535Y475805*
Y476879*
X816043Y477595*
X815059Y478311*
X809646Y481532D02*
X816535Y483679D01*
X809646Y485827D02*
X816535Y483679D01*
X808169Y497280D02*
X807677Y497996D01*
X806201Y499069*
X816535*
X815551Y502649D02*
X816043Y502291D01*
X816535Y502649*
X816043Y503006*
X815551Y502649*
X806201Y506943D02*
Y510880D01*
X810138Y508733*
Y509807*
X810630Y510523*
X811122Y510880*
X812598Y511238*
X813583*
X815059Y510880*
X816043Y510165*
X816535Y509091*
Y508017*
X816043Y506943*
X815551Y506586*
X814567Y506228*
X804232Y525197D02*
X805217Y524481D01*
X806693Y523765*
X808661Y523049*
X811122Y522691*
X813091*
X815551Y523049*
X817520Y523765*
X818996Y524481*
X819980Y525197*
X808661Y528776D02*
X808169D01*
X807185Y529134*
X806693Y529492*
X806201Y530208*
Y531639*
X806693Y532355*
X807185Y532713*
X808169Y533071*
X809154*
X810138Y532713*
X811614Y531997*
X816535Y528418*
Y533429*
X806201Y538797D02*
X806693Y537724D01*
X808169Y537008*
X810630Y536650*
X812106*
X814567Y537008*
X816043Y537724*
X816535Y538797*
Y539513*
X816043Y540587*
X814567Y541303*
X812106Y541661*
X810630*
X808169Y541303*
X806693Y540587*
X806201Y539513*
Y538797*
X808661Y545240D02*
X808169D01*
X807185Y545598*
X806693Y545956*
X806201Y546671*
Y548103*
X806693Y548819*
X807185Y549177*
X808169Y549535*
X809154*
X810138Y549177*
X811614Y548461*
X816535Y544882*
Y549893*
X808661Y553472D02*
X808169D01*
X807185Y553830*
X806693Y554188*
X806201Y554903*
Y556335*
X806693Y557051*
X807185Y557409*
X808169Y557767*
X809154*
X810138Y557409*
X811614Y556693*
X816535Y553114*
Y558125*
X815551Y561704D02*
X816043Y561346D01*
X816535Y561704*
X816043Y562062*
X815551Y561704*
X806201Y567430D02*
X806693Y566356D01*
X808169Y565641*
X810630Y565283*
X812106*
X814567Y565641*
X816043Y566356*
X816535Y567430*
Y568146*
X816043Y569220*
X814567Y569936*
X812106Y570293*
X810630*
X808169Y569936*
X806693Y569220*
X806201Y568146*
Y567430*
Y575304D02*
X806693Y574230D01*
X807677Y573873*
X808661*
X809646Y574230*
X810138Y574946*
X810630Y576378*
X811122Y577452*
X812106Y578168*
X812106D02*
X813091Y578525D01*
X814567*
X815551Y578168*
X815551D02*
X816043Y577810D01*
X816535Y576736*
Y575304*
X816043Y574230*
X815551Y573873*
X814567Y573515*
X813091*
X812106Y573873*
X811122Y574588*
X810630Y575662*
X810138Y577094*
X809646Y577810*
X808661Y578168*
X808661D02*
X807677D01*
X807677D02*
X806693Y577810D01*
X806201Y576736*
Y575304*
X804232Y581747D02*
X805217Y582462D01*
X806693Y583178*
X808661Y583894*
X811122Y584252*
X813091*
X815551Y583894*
X817520Y583178*
X818996Y582462*
X819980Y581747*
X134252Y620128D02*
Y614961D01*
Y620128D02*
X135863D01*
X136399Y619882*
X136578Y619636*
X136757Y619144*
Y618652*
X136578Y618159*
X136399Y617913*
X135863Y617667*
X134252D02*
X135863D01*
X136399Y617421*
X136578Y617175*
X136757Y616683*
Y615945*
X136578Y615453*
X136399Y615207*
X135863Y614961*
X134252*
X138368Y620128D02*
Y614961D01*
Y620128D02*
X139979D01*
X140515Y619882*
X140694Y619636*
X140873Y619144*
Y618652*
X140694Y618159*
X140515Y617913*
X139979Y617667*
X138368*
X139621D02*
X140873Y614961D01*
X142484Y620128D02*
Y614961D01*
Y620128D02*
X144810D01*
X142484Y617667D02*
X143916D01*
X142484Y614961D02*
X144810D01*
X147853Y620128D02*
X146421Y614961D01*
X147853Y620128D02*
X149284Y614961D01*
X146958Y616683D02*
X148747D01*
X150895Y620128D02*
Y614961D01*
Y620128D02*
X152147D01*
X152684Y619882*
X153042Y619390*
X153221Y618898*
X153400Y618159*
Y616929*
X153221Y616191*
X153042Y615699*
X152684Y615207*
X152147Y614961*
X150895*
X159127Y620128D02*
Y614961D01*
X161632Y620128D02*
Y614961D01*
X159127Y617667D02*
X161632D01*
X164316Y620128D02*
X163958Y619882D01*
X163601Y619390*
X163422Y618898*
X163243Y618159*
Y616929*
X163422Y616191*
X163601Y615699*
X163958Y615207*
X164316Y614961*
X165032*
X165390Y615207*
X165748Y615699*
X165927Y616191*
X166106Y616929*
Y618159*
X165927Y618898*
X165748Y619390*
X165390Y619882*
X165032Y620128*
X164316*
X167717D02*
Y614961D01*
X169864*
X171475Y620128D02*
Y614961D01*
Y620128D02*
X173801D01*
X171475Y617667D02*
X172906D01*
X171475Y614961D02*
X173801D01*
X247781Y619390D02*
X247423Y619882D01*
X246886Y620128*
X246170*
X245634Y619882*
X245634D02*
X245276Y619390D01*
Y618898*
X245455Y618406*
X245634Y618159*
X245634D02*
X245991Y617913D01*
X247065Y617421*
X247423Y617175*
X247602Y616929*
X247781Y616437*
Y615699*
X247423Y615207*
X246886Y614961*
X246170*
X245634Y615207*
X245634D02*
X245276Y615699D01*
X250644Y620128D02*
Y614961D01*
X249392Y620128D02*
X251897D01*
X253508D02*
Y614961D01*
Y620128D02*
X255834D01*
X253508Y617667D02*
X254939D01*
X253508Y614961D02*
X255834D01*
X257445Y620128D02*
Y614961D01*
Y620128D02*
X259055D01*
X259592Y619882*
X259771Y619636*
X259950Y619144*
Y618406*
X259771Y617913*
X259592Y617667*
X259055Y617421*
X257445*
X265676Y620128D02*
Y614961D01*
Y620128D02*
X267108Y614961D01*
X268540Y620128D02*
X267108Y614961D01*
X268540Y620128D02*
Y614961D01*
X271224Y620128D02*
X270866Y619882D01*
X270508Y619390*
X270329Y618898*
X270150Y618159*
Y616929*
X270329Y616191*
X270508Y615699*
X270866Y615207*
X271224Y614961*
X271940*
X272298Y615207*
X272656Y615699*
X272835Y616191*
X273014Y616929*
Y618159*
X272835Y618898*
X272656Y619390*
X272298Y619882*
X271940Y620128*
X271224*
X275877D02*
Y614961D01*
X274624Y620128D02*
X277130D01*
X279814D02*
X279456Y619882D01*
X279098Y619390*
X278919Y618898*
X278740Y618159*
Y616929*
X278919Y616191*
X279098Y615699*
X279456Y615207*
X279814Y614961*
X280530*
X280888Y615207*
X281246Y615699*
X281424Y616191*
X281603Y616929*
Y618159*
X281424Y618898*
X281246Y619390*
X280888Y619882*
X280530Y620128*
X279814*
X283214D02*
Y614961D01*
Y620128D02*
X284825D01*
X285361Y619882*
X285540Y619636*
X285719Y619144*
Y618652*
X285540Y618159*
X285361Y617913*
X284825Y617667*
X283214*
X284467D02*
X285719Y614961D01*
X445276Y620128D02*
Y614961D01*
X447423*
X451718Y618898D02*
X451539Y619390D01*
X451181Y619882*
X450823Y620128*
X450107*
X449749Y619882*
X449392Y619390*
X449213Y618898*
X449034Y618159*
Y616929*
X449213Y616191*
X449392Y615699*
X449749Y615207*
X450107Y614961*
X450823*
X451181Y615207*
X451539Y615699*
X451718Y616191*
X453329Y620128D02*
Y614961D01*
Y620128D02*
X454581D01*
X455118Y619882*
X455476Y619390*
X455655Y618898*
X455834Y618159*
Y616929*
X455655Y616191*
X455476Y615699*
X455118Y615207*
X454581Y614961*
X453329*
X107230Y509547D02*
X106872Y510039D01*
X106335Y510285*
X105619*
X105082Y510039*
X104724Y509547*
Y509055*
X104903Y508563*
X105082Y508317*
X105440Y508071*
X106514Y507579*
X106872Y507333*
X107051Y507087*
X107230Y506594*
Y505856*
X106872Y505364*
X106335Y505118*
X105619*
X105082Y505364*
X104724Y505856*
X110093Y510285D02*
Y505118D01*
X108840Y510285D02*
X111346D01*
X112956D02*
Y505118D01*
Y510285D02*
X114567D01*
X115104Y510039*
X115283Y509793*
X115462Y509301*
Y508809*
X115283Y508317*
X115104Y508071*
X114567Y507825*
X112956*
X114209D02*
X115462Y505118D01*
X118504Y510285D02*
X117072Y505118D01*
X118504Y510285D02*
X119936Y505118D01*
X117609Y506841D02*
X119399D01*
X121546Y510285D02*
Y505118D01*
X123157Y510285D02*
Y505118D01*
Y510285D02*
X125662Y505118D01*
Y510285D02*
Y505118D01*
X134073Y509055D02*
X133894Y509547D01*
X133536Y510039*
X133178Y510285*
X132462*
X132105Y510039*
X131747Y509547*
X131568Y509055*
X131389Y508317*
Y507087*
X131568Y506348*
X131747Y505856*
X132105Y505364*
X132462Y505118*
X133178*
X133536Y505364*
X133894Y505856*
X134073Y506348*
Y507087*
X133178D02*
X134073D01*
X137115Y510285D02*
X135684Y505118D01*
X137115Y510285D02*
X138547Y505118D01*
X136220Y506841D02*
X138010D01*
X140157Y510285D02*
Y506594D01*
X140336Y505856*
X140694Y505364*
X141231Y505118*
X141589*
X142126Y505364*
X142484Y505856*
X142663Y506594*
Y510285*
X146958Y509055D02*
X146779Y509547D01*
X146421Y510039*
X146063Y510285*
X145347*
X144989Y510039*
X144631Y509547*
X144452Y509055*
X144273Y508317*
Y507087*
X144452Y506348*
X144631Y505856*
X144989Y505364*
X145347Y505118*
X146063*
X146421Y505364*
X146779Y505856*
X146958Y506348*
Y507087*
X146063D02*
X146958D01*
X148568Y510285D02*
Y505118D01*
Y510285D02*
X150895D01*
X148568Y507825D02*
X150000D01*
X148568Y505118D02*
X150895D01*
X225519Y509055D02*
X225340Y509547D01*
X224982Y510039*
X224624Y510285*
X223908*
X223550Y510039*
X223193Y509547*
X223014Y509055*
X222835Y508317*
Y507087*
X223014Y506348*
X223193Y505856*
X223550Y505364*
X223908Y505118*
X224624*
X224982Y505364*
X225340Y505856*
X225519Y506348*
X227130Y510285D02*
Y505118D01*
Y510285D02*
X228382D01*
X228919Y510039*
X229277Y509547*
X229456Y509055*
X229635Y508317*
Y507087*
X229456Y506348*
X229277Y505856*
X228919Y505364*
X228382Y505118*
X227130*
X233751Y509547D02*
X233393Y510039D01*
X232856Y510285*
X232140*
X231603Y510039*
X231246Y509547*
Y509055*
X231424Y508563*
X231603Y508317*
X231961Y508071*
X233035Y507579*
X233393Y507333*
X233572Y507087*
X233751Y506594*
Y505856*
X233393Y505364*
X232856Y505118*
X232140*
X231603Y505364*
X231246Y505856*
X156299Y392569D02*
Y388878D01*
X156478Y388140*
X156836Y387648*
X157373Y387402*
X157731*
X158268Y387648*
X158626Y388140*
X158805Y388878*
Y392569*
X161847D02*
X160415Y387402D01*
X161847Y392569D02*
X163278Y387402D01*
X160952Y389124D02*
X162742D01*
X164889Y392569D02*
Y387402D01*
Y392569D02*
X166500D01*
X167037Y392323*
X167215Y392077*
X167394Y391585*
Y391093*
X167215Y390600*
X167037Y390354*
X166500Y390108*
X164889*
X166142D02*
X167394Y387402D01*
X170258Y392569D02*
Y387402D01*
X169005Y392569D02*
X171510D01*
X177237D02*
Y387402D01*
Y392569D02*
X178490D01*
X179026Y392323*
X179384Y391831*
X179563Y391339*
X179742Y390600*
Y389370*
X179563Y388632*
X179384Y388140*
X179026Y387648*
X178490Y387402*
X177237*
X181353Y392569D02*
Y387402D01*
Y392569D02*
X182963D01*
X183500Y392323*
X183679Y392077*
X183858Y391585*
Y391093*
X183679Y390600*
X183500Y390354*
X182963Y390108*
X181353*
X182606D02*
X183858Y387402D01*
X185469Y392569D02*
Y387402D01*
X187079Y392569D02*
X188511Y387402D01*
X189943Y392569D02*
X188511Y387402D01*
X191553Y392569D02*
Y387402D01*
Y392569D02*
X193880D01*
X191553Y390108D02*
X192985D01*
X191553Y387402D02*
X193880D01*
X195490Y392569D02*
Y387402D01*
Y392569D02*
X197101D01*
X197638Y392323*
X197817Y392077*
X197996Y391585*
Y391093*
X197817Y390600*
X197638Y390354*
X197101Y390108*
X195490*
X196743D02*
X197996Y387402D01*
X207301Y390354D02*
Y390600D01*
X207122Y390846*
X206943*
X206764Y390600*
X206586Y390108*
X206228Y388878*
X205870Y388140*
X205512Y387648*
X205154Y387402*
X204438*
X204080Y387648*
X203901Y387894*
X203722Y388386*
Y388878*
X203901Y389370*
X204080Y389616*
X205333Y390600*
X205512Y390846*
X205691Y391339*
Y391831*
X205512Y392323*
X205154Y392569*
X204796Y392323*
X204617Y391831*
Y391339*
X204796Y390600*
X205154Y389862*
X206049Y388140*
X206407Y387648*
X206764Y387402*
X207122*
X207301Y387648*
Y387894*
X215712Y391339D02*
X215533Y391831D01*
X215175Y392323*
X214817Y392569*
X214102*
X213744Y392323*
X213386Y391831*
X213207Y391339*
X213028Y390600*
Y389370*
X213207Y388632*
X213386Y388140*
X213744Y387648*
X214102Y387402*
X214817*
X215175Y387648*
X215533Y388140*
X215712Y388632*
X218218Y390846D02*
X217860Y390600D01*
X217502Y390108*
X217323Y389370*
Y388878*
X217502Y388140*
X217860Y387648*
X218218Y387402*
X218754*
X219112Y387648*
X219470Y388140*
X219649Y388878*
Y389370*
X219470Y390108*
X219112Y390600*
X218754Y390846*
X218218*
X221260D02*
Y387402D01*
Y389862D02*
X221797Y390600D01*
X222155Y390846*
X222691*
X223049Y390600*
X223228Y389862*
Y387402*
X224839Y390846D02*
Y387402D01*
Y389862D02*
X225376Y390600D01*
X225734Y390846*
X226271*
X226628Y390600*
X226807Y389862*
Y387402*
X228418Y389370D02*
X230565D01*
X230565D02*
Y389862D01*
X230565D02*
X230387Y390354D01*
X230208Y390600*
X229850Y390846*
X229313*
X228955Y390600*
X228597Y390108*
X228418Y389370*
Y388878*
X228597Y388140*
X228955Y387648*
X229313Y387402*
X229850*
X230208Y387648*
X230565Y388140*
X234324Y390108D02*
X233966Y390600D01*
X233608Y390846*
X233071*
X232713Y390600*
X232355Y390108*
X232176Y389370*
Y388878*
X232355Y388140*
X232713Y387648*
X233071Y387402*
X233608*
X233966Y387648*
X234324Y388140*
X236471Y392569D02*
Y388386D01*
X236650Y387648*
X237008Y387402*
X237366*
X235934Y390846D02*
X237187D01*
X239871D02*
X239513Y390600D01*
X239155Y390108*
X238976Y389370*
Y388878*
X239155Y388140*
X239513Y387648*
X239871Y387402*
X240408*
X240766Y387648*
X241124Y388140*
X241303Y388878*
Y389370*
X241124Y390108*
X240766Y390600*
X240408Y390846*
X239871*
X242913D02*
Y387402D01*
Y389370D02*
X243092Y390108D01*
X243450Y390600*
X243808Y390846*
X244345*
X107409Y251969D02*
X107230Y252461D01*
X106872Y252953*
X106514Y253199*
X105798*
X105440Y252953*
X105082Y252461*
X104903Y251969*
X104724Y251230*
Y250000*
X104903Y249262*
X105082Y248770*
X105440Y248278*
X105798Y248031*
X106514*
X106872Y248278*
X107230Y248770*
X107409Y249262*
X109019Y253199D02*
Y248031D01*
X111167*
X113851Y253199D02*
X113493Y252953D01*
X113135Y252461*
X112956Y251969*
X112777Y251230*
Y250000*
X112956Y249262*
X113135Y248770*
X113493Y248278*
X113851Y248031*
X114567*
X114925Y248278*
X115283Y248770*
X115462Y249262*
X115641Y250000*
Y251230*
X115462Y251969*
X115283Y252461*
X114925Y252953*
X114567Y253199*
X113851*
X119936Y251969D02*
X119757Y252461D01*
X119399Y252953*
X119041Y253199*
X118325*
X117967Y252953*
X117609Y252461*
X117430Y251969*
X117251Y251230*
Y250000*
X117430Y249262*
X117609Y248770*
X117967Y248278*
X118325Y248031*
X119041*
X119399Y248278*
X119757Y248770*
X119936Y249262*
X121546Y253199D02*
Y248031D01*
X124052Y253199D02*
X121546Y249754D01*
X122441Y250984D02*
X124052Y248031D01*
X129778Y253199D02*
Y248031D01*
X134073Y251969D02*
X133894Y252461D01*
X133536Y252953*
X133178Y253199*
X132462*
X132105Y252953*
X131747Y252461*
X131568Y251969*
X131389Y251230*
Y250000*
X131568Y249262*
X131747Y248770*
X132105Y248278*
X132462Y248031*
X133178*
X133536Y248278*
X133894Y248770*
X134073Y249262*
X307480Y252805D02*
Y247638D01*
Y252805D02*
X308733D01*
X309270Y252559*
X309628Y252067*
X309807Y251575*
X309986Y250837*
Y249606*
X309807Y248868*
X309628Y248376*
X309270Y247884*
X308733Y247638*
X307480*
X311596Y252805D02*
Y247638D01*
X315891Y251575D02*
X315712Y252067D01*
X315354Y252559*
X314996Y252805*
X314281*
X313923Y252559*
X313565Y252067*
X313386Y251575*
X313207Y250837*
Y249606*
X313386Y248868*
X313565Y248376*
X313923Y247884*
X314281Y247638*
X314996*
X315354Y247884*
X315712Y248376*
X315891Y248868*
Y249606*
X314996D02*
X315891D01*
X317502Y252805D02*
Y247638D01*
X320365Y252805D02*
Y247638D01*
X319112Y252805D02*
X321618D01*
X324660D02*
X323228Y247638D01*
X324660Y252805D02*
X326092Y247638D01*
X323765Y249360D02*
X325555D01*
X327702Y252805D02*
Y247638D01*
X329850*
X150787Y129970D02*
Y126280D01*
X150966Y125541*
X151324Y125049*
X151861Y124803*
X152219*
X152756Y125049*
X153114Y125541*
X153293Y126280*
Y129970*
X154903D02*
Y124803D01*
X157051*
X159914Y129970D02*
Y124803D01*
X158661Y129970D02*
X161167D01*
X162777D02*
Y124803D01*
Y129970D02*
X164388D01*
X164925Y129724*
X165104Y129478*
X165283Y128986*
Y128494*
X165104Y128002*
X164925Y127756*
X164388Y127510*
X162777*
X164030D02*
X165283Y124803D01*
X168325Y129970D02*
X166893Y124803D01*
X168325Y129970D02*
X169757Y124803D01*
X167430Y126526D02*
X169220D01*
X173873Y129232D02*
X173515Y129724D01*
X172978Y129970*
X172262*
X171725Y129724*
X171367Y129232*
Y128740*
X171546Y128248*
X171725Y128002*
X172083Y127756*
X173157Y127264*
X173515Y127018*
X173694Y126772*
X173873Y126280*
Y125541*
X173515Y125049*
X172978Y124803*
X172262*
X171725Y125049*
X171367Y125541*
X176557Y129970D02*
X176199Y129724D01*
X175841Y129232*
X175662Y128740*
X175483Y128002*
Y126772*
X175662Y126033*
X175841Y125541*
X176199Y125049*
X176557Y124803*
X177273*
X177631Y125049*
X177989Y125541*
X178168Y126033*
X178168D02*
X178346Y126772D01*
Y128002*
X178168Y128740*
X178168D02*
X177989Y129232D01*
X177631Y129724*
X177273Y129970*
X176557*
X179957D02*
Y124803D01*
Y129970D02*
X182462Y124803D01*
Y129970D02*
Y124803D01*
X184073Y129970D02*
Y124803D01*
X188368Y128740D02*
X188189Y129232D01*
X187831Y129724*
X187473Y129970*
X186757*
X186399Y129724*
X186042Y129232*
X185863Y128740*
X185684Y128002*
Y126772*
X185863Y126033*
X186042Y125541*
X186399Y125049*
X186757Y124803*
X187473*
X187831Y125049*
X188189Y125541*
X188368Y126033*
X244882Y130364D02*
Y125197D01*
Y130364D02*
X246492D01*
X247029Y130118*
X247208Y129872*
X247387Y129380*
Y128888*
X247208Y128396*
X247029Y128150*
X246492Y127904*
X244882*
X246135D02*
X247387Y125197D01*
X250072Y130364D02*
X249714Y130118D01*
X249356Y129626*
X249177Y129134*
X248998Y128396*
Y127165*
X249177Y126427*
X249356Y125935*
X249714Y125443*
X250072Y125197*
X250787*
X251145Y125443*
X251503Y125935*
X251682Y126427*
X251861Y127165*
Y128396*
X251682Y129134*
X251503Y129626*
X251145Y130118*
X250787Y130364*
X250072*
X254724D02*
Y125197D01*
X253472Y130364D02*
X255977D01*
X259019D02*
X257588Y125197D01*
X259019Y130364D02*
X260451Y125197D01*
X258125Y126919D02*
X259914D01*
X262062Y130364D02*
Y125197D01*
Y130364D02*
X263672D01*
X264209Y130118*
X264388Y129872*
X264567Y129380*
Y128888*
X264388Y128396*
X264209Y128150*
X263672Y127904*
X262062*
X263314D02*
X264567Y125197D01*
X266178Y130364D02*
X267609Y127904D01*
Y125197*
X269041Y130364D02*
X267609Y127904D01*
X349857Y281545D02*
X348425Y276378D01*
X349857Y281545D02*
X351288Y276378D01*
X348962Y278100D02*
X350752D01*
X354152Y281545D02*
Y276378D01*
X352899Y281545D02*
X355404D01*
X357015D02*
Y276378D01*
Y281545D02*
X358447Y276378D01*
X359878Y281545D02*
X358447Y276378D01*
X359878Y281545D02*
Y276378D01*
X361489Y281545D02*
Y276378D01*
Y281545D02*
X363815D01*
X361489Y279085D02*
X362921D01*
X361489Y276378D02*
X363815D01*
X368110Y280315D02*
X367931Y280807D01*
X367573Y281299*
X367215Y281545*
X366500*
X366142Y281299*
X365784Y280807*
X365605Y280315*
X365426Y279577*
Y278346*
X365605Y277608*
X365784Y277116*
X366142Y276624*
X366500Y276378*
X367215*
X367573Y276624*
X367931Y277116*
X368110Y277608*
Y278346*
X367215D02*
X368110D01*
X371152Y281545D02*
X369721Y276378D01*
X371152Y281545D02*
X372584Y276378D01*
X370258Y278100D02*
X372047D01*
X375984Y281545D02*
X374195Y278100D01*
X376879*
X375984Y281545D02*
Y276378D01*
X379384Y281545D02*
X378848Y281299D01*
X378669Y280807*
Y280315*
X378848Y279823*
X379205Y279577*
X379921Y279331*
X380458Y279085*
X380816Y278593*
X380995Y278100*
Y277362*
X380816Y276870*
X380637Y276624*
X380100Y276378*
X379384*
X378848Y276624*
X378669Y276870*
X378490Y277362*
Y278100*
X378669Y278593*
X379026Y279085*
X379563Y279331*
X380279Y279577*
X380637Y279823*
X380816Y280315*
Y280807*
X380637Y281299*
X380100Y281545*
X379384*
X383679D02*
X383142Y281299D01*
X382785Y280561*
X382606Y279331*
Y278593*
X382785Y277362*
X383142Y276624*
X383679Y276378*
X384037*
X384574Y276624*
X384932Y277362*
X385111Y278593*
Y279331*
X384932Y280561*
X384574Y281299*
X384037Y281545*
X383679*
X389048Y279823D02*
X388869Y279085D01*
X388511Y278593*
X387974Y278346*
X387795*
X387258Y278593*
X386901Y279085*
X386901D02*
X386722Y279823D01*
Y280069*
X386901Y280807*
X386901D02*
X387258Y281299D01*
X387795Y281545*
X387974*
X388511Y281299*
X388869Y280807*
X389048Y279823*
Y278593*
X388869Y277362*
X388511Y276624*
X387974Y276378*
X387616*
X387079Y276624*
X386901Y277116*
X444882Y341781D02*
Y336614D01*
X447387Y341781D02*
X444882Y338337D01*
X445777Y339567D02*
X447387Y336614D01*
X448998Y341781D02*
Y336614D01*
Y341781D02*
X451324D01*
X448998Y339321D02*
X450429D01*
X448998Y336614D02*
X451324D01*
X452935Y341781D02*
X454366Y339321D01*
X454366D02*
Y336614D01*
X455798Y341781D02*
X454366Y339321D01*
X457409Y341781D02*
Y336614D01*
Y341781D02*
X459019D01*
X459556Y341535*
X459735Y341289*
X459914Y340797*
Y340059*
X459735Y339567*
X459556Y339321*
X459019Y339075*
X457409*
X462956Y341781D02*
X461525Y336614D01*
X462956Y341781D02*
X464388Y336614D01*
X462062Y338337D02*
X463851D01*
X465999Y341781D02*
Y336614D01*
Y341781D02*
X467251D01*
X467788Y341535*
X468146Y341043*
X468325Y340551*
X468504Y339813*
Y338583*
X468325Y337844*
X468146Y337352*
X467788Y336860*
X467251Y336614*
X465999*
X447387Y459104D02*
X445598Y453937D01*
X444882Y459104D02*
X447387D01*
X448998Y456152D02*
X452219D01*
X456335Y458366D02*
X455977Y458858D01*
X455440Y459104*
X454724*
X454188Y458858*
X453830Y458366*
Y457874*
X454009Y457382*
X454188Y457136*
X454545Y456890*
X455619Y456398*
X455977Y456152*
X456156Y455906*
X456335Y455413*
Y454675*
X455977Y454183*
X455440Y453937*
X454724*
X454188Y454183*
X453830Y454675*
X457946Y459104D02*
Y453937D01*
Y459104D02*
X460272D01*
X457946Y456644D02*
X459377D01*
X457946Y453937D02*
X460272D01*
X464567Y457874D02*
X464388Y458366D01*
X464030Y458858*
X463672Y459104*
X462956*
X462598Y458858*
X462241Y458366*
X462062Y457874*
X461883Y457136*
Y455906*
X462062Y455167*
X462241Y454675*
X462598Y454183*
X462956Y453937*
X463672*
X464030Y454183*
X464388Y454675*
X464567Y455167*
Y455906*
X463672D02*
X464567D01*
X466178Y459104D02*
Y453937D01*
Y459104D02*
X467609Y453937D01*
X469041Y459104D02*
X467609Y453937D01*
X469041Y459104D02*
Y453937D01*
X470651Y459104D02*
Y453937D01*
Y459104D02*
X472978D01*
X470651Y456644D02*
X472083D01*
X470651Y453937D02*
X472978D01*
X474588Y459104D02*
Y453937D01*
Y459104D02*
X477094Y453937D01*
Y459104D02*
Y453937D01*
X479957Y459104D02*
Y453937D01*
X478704Y459104D02*
X481210D01*
X376378Y252411D02*
Y247244D01*
Y252411D02*
X378704D01*
X376378Y249951D02*
X377810D01*
X376378Y247244D02*
X378704D01*
X380315Y252411D02*
Y247244D01*
Y252411D02*
X382641D01*
X380315Y249951D02*
X381747D01*
X380315Y247244D02*
X382641D01*
X384252Y252411D02*
Y247244D01*
Y252411D02*
X385863D01*
X386399Y252165*
X386578Y251919*
X386757Y251427*
Y250689*
X386578Y250197*
X386399Y249951*
X385863Y249705*
X384252*
X388368Y252411D02*
Y247244D01*
Y252411D02*
X389979D01*
X390515Y252165*
X390694Y251919*
X390873Y251427*
Y250935*
X390694Y250443*
X390515Y250197*
X389979Y249951*
X388368*
X389621D02*
X390873Y247244D01*
X393558Y252411D02*
X393200Y252165D01*
X392842Y251673*
X392663Y251181*
X392484Y250443*
Y249213*
X392663Y248474*
X392842Y247982*
X393200Y247490*
X393558Y247244*
X394273*
X394631Y247490*
X394989Y247982*
X395168Y248474*
X395347Y249213*
Y250443*
X395168Y251181*
X394989Y251673*
X394631Y252165*
X394273Y252411*
X393558*
X396958D02*
Y247244D01*
Y252411D02*
X398389Y247244D01*
X399821Y252411D02*
X398389Y247244D01*
X399821Y252411D02*
Y247244D01*
X308733Y244144D02*
Y238976D01*
X307480Y244144D02*
X309986D01*
X311596D02*
Y238976D01*
Y244144D02*
X313923D01*
X311596Y241683D02*
X313028D01*
X311596Y238976D02*
X313923D01*
X315533Y244144D02*
Y238976D01*
Y244144D02*
X316965Y238976D01*
X318397Y244144D02*
X316965Y238976D01*
X318397Y244144D02*
Y238976D01*
X320007Y244144D02*
Y238976D01*
Y244144D02*
X321618D01*
X322155Y243898*
X322334Y243652*
X322513Y243159*
Y242421*
X322334Y241929*
X322155Y241683*
X321618Y241437*
X320007*
X324302Y239469D02*
X324123Y239222D01*
X324302Y238976*
X324481Y239222*
X324302Y239469*
X229366Y417544D02*
Y414961D01*
X228740Y417544D02*
X229993D01*
X230798D02*
Y414961D01*
Y417544D02*
X231603D01*
X231872Y417421*
X231961Y417298*
X232051Y417052*
Y416683*
X231961Y416437*
X231872Y416314*
X231603Y416191*
X230798*
X234019Y417544D02*
X233125D01*
X233035Y416437*
X233125Y416560*
X233393Y416683*
X233661*
X233930Y416560*
X234109Y416314*
X234198Y415945*
X234109Y415699*
X234019Y415330*
X233840Y415084*
X233572Y414961*
X233304*
X233035Y415084*
X232946Y415207*
X232856Y415453*
X238404Y416929D02*
X238314Y417175D01*
X238135Y417421*
X237956Y417544*
X237598*
X237419Y417421*
X237241Y417175*
X237151Y416929*
X237062Y416560*
Y415945*
X237151Y415576*
X237241Y415330*
X237419Y415084*
X237598Y414961*
X237956*
X238135Y415084*
X238314Y415330*
X238404Y415576*
Y415945*
X237956D02*
X238404D01*
X239209Y417544D02*
Y414961D01*
Y417544D02*
X240462Y414961D01*
Y417544D02*
Y414961D01*
X241267Y417544D02*
Y414961D01*
Y417544D02*
X241893D01*
X242162Y417421*
X242341Y417175*
X242430Y416929*
X242520Y416560*
Y415945*
X242430Y415576*
X242341Y415330*
X242162Y415084*
X241893Y414961*
X241267*
X506138Y454552D02*
Y451969D01*
X505512Y454552D02*
X506764D01*
X507570D02*
Y451969D01*
Y454552D02*
X508375D01*
X508644Y454429*
X508733Y454306*
X508822Y454060*
Y453691*
X508733Y453445*
X508644Y453322*
X508375Y453199*
X507570*
X510523Y454552D02*
X509628Y452830D01*
X510970*
X510523Y454552D02*
Y451969D01*
X515175Y453937D02*
X515086Y454183D01*
X514907Y454429*
X514728Y454552*
X514370*
X514191Y454429*
X514012Y454183*
X513923Y453937*
X513833Y453568*
Y452953*
X513923Y452584*
X514012Y452338*
X514191Y452092*
X514370Y451969*
X514728*
X514907Y452092*
X515086Y452338*
X515175Y452584*
Y452953*
X514728D02*
X515175D01*
X515981Y454552D02*
Y451969D01*
Y454552D02*
X517233Y451969D01*
Y454552D02*
Y451969D01*
X518039Y454552D02*
Y451969D01*
Y454552D02*
X518665D01*
X518933Y454429*
X519112Y454183*
X519202Y453937*
X519291Y453568*
Y452953*
X519202Y452584*
X519112Y452338*
X518933Y452092*
X518665Y451969*
X518039*
X382516Y233686D02*
Y231102D01*
X381890Y233686D02*
X383142D01*
X383948D02*
Y231102D01*
Y233686D02*
X384753D01*
X385021Y233563*
X385111Y233440*
X385200Y233194*
Y232825*
X385111Y232579*
X385021Y232456*
X384753Y232333*
X383948*
X387079Y233317D02*
X386990Y233563D01*
X386722Y233686*
X386543*
X386274Y233563*
X386095Y233194*
X386006Y232579*
Y231964*
X386095Y231471*
X386274Y231225*
X386543Y231102*
X386632*
X386901Y231225*
X386901D02*
X387079Y231471D01*
X387169Y231841*
Y231964*
X387079Y232333*
X386901Y232579*
X386901D02*
X386632Y232702D01*
X386543*
X386274Y232579*
X386095Y232333*
X386006Y231964*
X391374Y233071D02*
X391285Y233317D01*
X391106Y233563*
X390927Y233686*
X390569*
X390390Y233563*
X390211Y233317*
X390122Y233071*
X390032Y232702*
Y232087*
X390122Y231718*
X390211Y231471*
X390390Y231225*
X390569Y231102*
X390927*
X391106Y231225*
X391285Y231471*
X391374Y231718*
Y232087*
X390927D02*
X391374D01*
X392180Y233686D02*
Y231102D01*
Y233686D02*
X393432Y231102D01*
Y233686D02*
Y231102D01*
X394238Y233686D02*
Y231102D01*
Y233686D02*
X394864D01*
X395132Y233563*
X395311Y233317*
X395401Y233071*
X395490Y232702*
Y232087*
X395401Y231718*
X395311Y231471*
X395132Y231225*
X394864Y231102*
X394238*
X100000Y103937D02*
G03X103937Y100000I3937J0D01*
G01X824409*
G03X828346Y103937I0J3937*
G01Y627559*
G03X824409Y631496I-3937J0*
G01X103937*
G03X100000Y627559I0J-3937*
G01Y103937*
X446457Y623622D02*
G03X442520Y619685I-0J-3937D01*
G01X446457Y623622D02*
X792913D01*
X796850Y619685D02*
G03X792913Y623622I-3937J0D01*
G01X796850Y619685D02*
Y477953D01*
X792913Y474016D02*
G03X796850Y477953I0J3937D01*
G01X792913Y474016D02*
X446457D01*
X442520Y477953D02*
G03X446457Y474016I3937J-0D01*
G01X442520Y477953D02*
Y619685D01*
X308661Y623622D02*
G03X304724Y619685I0J-3937D01*
G01X308661Y623622D02*
X426772D01*
X430709Y619685D02*
G03X426772Y623622I-3937J0D01*
G01X430709Y619685D02*
Y273228D01*
X426772Y269291D02*
G03X430709Y273228I-0J3937D01*
G01X426772Y269291D02*
X308661D01*
X304724Y273228D02*
G03X308661Y269291I3937J0D01*
G01X304724Y273228D02*
Y619685D01*
X245669Y623622D02*
G03X241732Y619685I0J-3937D01*
G01X245669Y623622D02*
X288976D01*
X292913Y619685D02*
G03X288976Y623622I-3937J0D01*
G01X292913Y619685D02*
Y529134D01*
X288976Y525197D02*
G03X292913Y529134I0J3937D01*
G01X288976Y525197D02*
X245669D01*
X241732Y529134D02*
G03X245669Y525197I3937J-0D01*
G01X241732Y529134D02*
Y619685D01*
X135433Y623622D02*
G03X131496Y619685I0J-3937D01*
G01X135433Y623622D02*
X225984D01*
X229921Y619685D02*
G03X225984Y623622I-3937J0D01*
G01X229921Y619685D02*
Y529134D01*
X225984Y525197D02*
G03X229921Y529134I0J3937D01*
G01X225984Y525197D02*
X135433D01*
X131496Y529134D02*
G03X135433Y525197I3937J-0D01*
G01X131496Y529134D02*
Y619685D01*
X105906Y513386D02*
G03X101969Y509449I-0J-3937D01*
G01X105906Y513386D02*
X204331D01*
X208268Y509449D02*
G03X204331Y513386I-3937J-0D01*
G01X208268Y509449D02*
Y411024D01*
X204331Y407087D02*
G03X208268Y411024I-0J3937D01*
G01X204331Y407087D02*
X105906D01*
X101969Y411024D02*
G03X105906Y407087I3937J-0D01*
G01X101969Y411024D02*
Y509449D01*
X224016Y513386D02*
G03X220079Y509449I-0J-3937D01*
G01X224016Y513386D02*
X288976D01*
X292913Y509449D02*
G03X288976Y513386I-3937J-0D01*
G01X292913Y509449D02*
Y411024D01*
X288976Y407087D02*
G03X292913Y411024I0J3937D01*
G01X288976Y407087D02*
X224016D01*
X220079Y411024D02*
G03X224016Y407087I3937J-0D01*
G01X220079Y411024D02*
Y509449D01*
X105906Y395276D02*
G03X101969Y391339I-0J-3937D01*
G01X105906Y395276D02*
X288976D01*
X292913Y391339D02*
G03X288976Y395276I-3937J-0D01*
G01X292913Y391339D02*
Y273228D01*
X288976Y269291D02*
G03X292913Y273228I0J3937D01*
G01X288976Y269291D02*
X105906D01*
X101969Y273228D02*
G03X105906Y269291I3937J0D01*
G01X101969Y273228D02*
Y391339D01*
X105906Y257480D02*
G03X101969Y253543I-0J-3937D01*
G01X105906Y257480D02*
X288976D01*
X292913Y253543D02*
G03X288976Y257480I-3937J0D01*
G01X292913Y253543D02*
Y155118D01*
X288976Y151181D02*
G03X292913Y155118I0J3937D01*
G01X288976Y151181D02*
X105906D01*
X101969Y155118D02*
G03X105906Y151181I3937J0D01*
G01X101969Y155118D02*
Y253543D01*
X308661Y257480D02*
G03X304724Y253543I0J-3937D01*
G01X308661Y257480D02*
X357874D01*
X361811Y253543D02*
G03X357874Y257480I-3937J0D01*
G01X361811Y253543D02*
Y111811D01*
X357874Y107874D02*
G03X361811Y111811I0J3937D01*
G01X357874Y107874D02*
X308661D01*
X304724Y111811D02*
G03X308661Y107874I3937J0D01*
G01X304724Y111811D02*
Y253543D01*
X377559Y257480D02*
G03X373622Y253543I0J-3937D01*
G01X377559Y257480D02*
X426772D01*
X430709Y253543D02*
G03X426772Y257480I-3937J0D01*
G01X430709Y253543D02*
Y111811D01*
X426772Y107874D02*
G03X430709Y111811I-0J3937D01*
G01X426772Y107874D02*
X377559D01*
X373622Y111811D02*
G03X377559Y107874I3937J0D01*
G01X373622Y111811D02*
Y253543D01*
X446457Y462205D02*
G03X442520Y458268I-0J-3937D01*
G01X446457Y462205D02*
X792913D01*
X796850Y458268D02*
G03X792913Y462205I-3937J-0D01*
G01X796850Y458268D02*
Y359843D01*
X792913Y355906D02*
G03X796850Y359843I0J3937D01*
G01X792913Y355906D02*
X446457D01*
X442520Y359843D02*
G03X446457Y355906I3937J-0D01*
G01X442520Y359843D02*
Y458268D01*
X446457Y344094D02*
G03X442520Y340157I-0J-3937D01*
G01X446457Y344094D02*
X792913D01*
X796850Y340157D02*
G03X792913Y344094I-3937J0D01*
G01X796850Y340157D02*
Y111811D01*
X792913Y107874D02*
G03X796850Y111811I0J3937D01*
G01X792913Y107874D02*
X446457D01*
X442520Y111811D02*
G03X446457Y107874I3937J0D01*
G01X442520Y111811D02*
Y340157D01*
X135433Y135433D02*
G03X131496Y131496I0J-3937D01*
G01X135433Y135433D02*
X206299D01*
X210236Y131496D02*
G03X206299Y135433I-3937J0D01*
G01X210236Y131496D02*
Y111811D01*
X206299Y107874D02*
G03X210236Y111811I0J3937D01*
G01X206299Y107874D02*
X135433D01*
X131496Y111811D02*
G03X135433Y107874I3937J0D01*
G01X131496Y111811D02*
Y131496D01*
X225984Y135433D02*
G03X222047Y131496I0J-3937D01*
G01X225984Y135433D02*
X288976D01*
X292913Y131496D02*
G03X288976Y135433I-3937J0D01*
G01X292913Y131496D02*
Y111811D01*
X288976Y107874D02*
G03X292913Y111811I0J3937D01*
G01X288976Y107874D02*
X225984D01*
X222047Y111811D02*
G03X225984Y107874I3937J0D01*
G01X222047Y111811D02*
Y131496D01*
G54D24*
X375591Y235039D02*
Y233465D01*
X377165*
X375591Y235039*
Y233465D02*
X377953Y235827D01*
X396457*
X224016Y411811D02*
Y410236D01*
X225591*
X224016Y411811*
Y410236D02*
X226378Y412598D01*
X244882*
X499213Y450787D02*
Y452756D01*
X501181*
X499213Y450787*
X519685Y450197D02*
X501772D01*
X499213Y452756*
G74*
X0Y0D02*
M02*
