*
*
G04 PADS 9.5 Build Number: 522968 generated Gerber (RS-274-X) file*
G04 PC Version=2.1*
*
%IN "ATMEGA4809.pcb"*%
*
%MOIN*%
*
%FSLAX35Y35*%
*
*
*
*
G04 PC Standard Apertures*
*
*
G04 Thermal Relief Aperture macro.*
%AMTER*
1,1,$1,0,0*
1,0,$1-$2,0,0*
21,0,$3,$4,0,0,45*
21,0,$3,$4,0,0,135*
%
*
*
G04 Annular Aperture macro.*
%AMANN*
1,1,$1,0,0*
1,0,$2,0,0*
%
*
*
G04 Odd Aperture macro.*
%AMODD*
1,1,$1,0,0*
1,0,$1-0.005,0,0*
%
*
*
G04 PC Custom Aperture Macros*
*
*
*
*
*
*
G04 PC Aperture Table*
*
%ADD010C,0.001*%
%ADD025C,0.07*%
%ADD026C,0.08874*%
%ADD027R,0.07X0.07*%
%ADD028C,0.20685*%
%ADD029C,0.10843*%
%ADD030C,0.03165*%
*
*
*
*
G04 PC Circuitry*
G04 Layer Name ATMEGA4809.pcb - circuitry*
%LPD*%
*
*
G04 PC Custom Flashes*
G04 Layer Name ATMEGA4809.pcb - flashes*
%LPD*%
*
*
G04 PC Circuitry*
G04 Layer Name ATMEGA4809.pcb - circuitry*
%LPD*%
*
G54D10*
G54D25*
G01X751260Y334252D03*
X791260D03*
X732756Y379921D03*
X742756D03*
X762756D03*
X772756D03*
Y439921D03*
X762756D03*
X742756D03*
X732756D03*
X688268Y334252D03*
X728268D03*
X683150Y379921D03*
X693150D03*
X713150D03*
X723150D03*
Y439921D03*
X713150D03*
X693150D03*
X683150D03*
X625276Y334252D03*
X665276D03*
X633543Y379921D03*
X643543D03*
X663543D03*
X673543D03*
Y439921D03*
X663543D03*
X643543D03*
X633543D03*
X583937Y379921D03*
X593937D03*
X613937D03*
X623937D03*
Y439921D03*
X613937D03*
X593937D03*
X583937D03*
X562283Y334252D03*
X602283D03*
X535827Y285787D03*
Y315787D03*
Y242480D03*
Y272480D03*
Y152835D03*
Y192835D03*
X525709Y218110D03*
X535709D03*
X521260Y285787D03*
Y315787D03*
Y242480D03*
Y272480D03*
Y152835D03*
Y192835D03*
X520551Y610000D03*
X530551D03*
X540551D03*
X550551D03*
X560551D03*
X570551D03*
X580551D03*
X590551D03*
X600551D03*
X610551D03*
X620551D03*
X630551D03*
X640551D03*
X650551D03*
X660551D03*
X487874Y395000D03*
X497874D03*
X507874D03*
X517874D03*
X527874D03*
X537874D03*
X547874D03*
X557874D03*
Y425000D03*
X547874D03*
X537874D03*
X527874D03*
X517874D03*
X507874D03*
X497874D03*
X487874D03*
X477874D03*
X469252Y304606D03*
Y294606D03*
Y284606D03*
Y274606D03*
Y264606D03*
Y254606D03*
Y244606D03*
Y234606D03*
Y224606D03*
Y214606D03*
Y204606D03*
Y194606D03*
Y184606D03*
X499252D03*
Y194606D03*
Y204606D03*
Y214606D03*
Y224606D03*
Y234606D03*
Y244606D03*
Y254606D03*
Y264606D03*
Y274606D03*
Y284606D03*
Y294606D03*
Y304606D03*
Y314606D03*
X498346Y167717D03*
X458346D03*
X472047Y580157D03*
X462205Y590000D03*
X452362Y580157D03*
X414685Y580315D03*
X424685D03*
X414685Y548819D03*
X424685D03*
X407205Y206299D03*
X417205D03*
X387165Y168228D03*
Y158228D03*
Y148228D03*
X417165D03*
Y158228D03*
Y168228D03*
Y178228D03*
X338307Y206299D03*
X348307D03*
X340157Y580000D03*
Y570000D03*
Y560000D03*
Y550000D03*
Y540000D03*
Y530000D03*
Y520000D03*
Y510000D03*
Y500000D03*
Y490000D03*
Y480000D03*
Y470000D03*
Y460000D03*
Y450000D03*
Y440000D03*
Y430000D03*
Y420000D03*
Y410000D03*
Y400000D03*
Y390000D03*
Y380000D03*
Y370000D03*
Y360000D03*
Y350000D03*
Y340000D03*
Y330000D03*
Y320000D03*
X399213D03*
Y330000D03*
Y340000D03*
Y350000D03*
Y360000D03*
Y370000D03*
Y380000D03*
Y390000D03*
Y400000D03*
Y410000D03*
Y420000D03*
Y430000D03*
Y440000D03*
Y450000D03*
Y460000D03*
Y470000D03*
Y480000D03*
Y490000D03*
Y500000D03*
Y510000D03*
Y520000D03*
Y530000D03*
Y540000D03*
Y550000D03*
Y560000D03*
Y570000D03*
Y580000D03*
Y590000D03*
X318504Y509921D03*
Y549921D03*
Y499921D03*
Y459921D03*
X318268Y168386D03*
Y158386D03*
Y148386D03*
X348268D03*
Y158386D03*
Y168386D03*
Y178386D03*
X272165Y344094D03*
X282165D03*
X272165Y300787D03*
X282165D03*
X271063Y600000D03*
X261063Y590000D03*
X271063D03*
X261063Y580000D03*
X271063D03*
X261063Y570000D03*
X271063D03*
X261063Y560000D03*
X271063D03*
X256299Y427244D03*
Y467244D03*
X262480Y170866D03*
X251063Y540000D03*
X261063D03*
X253031Y489764D03*
X242480Y211299D03*
Y201299D03*
Y191299D03*
X272480D03*
Y201299D03*
Y211299D03*
Y221299D03*
X240669Y344094D03*
X250669D03*
X247795Y115748D03*
X257795D03*
X267795D03*
X277795D03*
X232992Y467717D03*
X242992D03*
X217047Y206299D03*
X227047D03*
X217047Y170866D03*
X227047D03*
X207205Y344094D03*
X217205D03*
X196811Y240157D03*
X226811D03*
X196811Y227559D03*
X226811D03*
X243110Y315787D03*
X233110D03*
X223110D03*
X213110D03*
X203110D03*
X193110D03*
X183110D03*
Y285787D03*
X193110D03*
X203110D03*
X213110D03*
X223110D03*
X233110D03*
X243110D03*
X253110D03*
X173740Y344094D03*
X183740D03*
X171614Y465630D03*
Y455630D03*
Y445630D03*
X201614D03*
Y455630D03*
Y465630D03*
Y475630D03*
X201496Y430709D03*
X161496D03*
X165118Y115748D03*
X175118D03*
X185118D03*
X109921Y477953D03*
X149921D03*
X109921Y466142D03*
X149921D03*
Y454331D03*
X109921D03*
X149921Y442520D03*
X109921D03*
X149921Y430709D03*
X109921D03*
Y418898D03*
X149921D03*
X119961Y489764D03*
X134331Y309291D03*
Y320197D03*
Y331102D03*
Y342008D03*
Y352913D03*
X123150Y314744D03*
Y325650D03*
Y336555D03*
Y347461D03*
X149906Y586382D03*
Y576382D03*
Y566382D03*
Y556382D03*
Y546382D03*
X159906Y596382D03*
X169906D03*
X179906D03*
X189906D03*
X199906D03*
X209906D03*
X159906Y586382D03*
X169906D03*
X179906D03*
X189906D03*
X199906D03*
X209906D03*
X159906Y576382D03*
X169906D03*
X179906D03*
X189906D03*
X199906D03*
X209906D03*
X159906Y566382D03*
X169906D03*
X179906D03*
X189906D03*
X199906D03*
X209906D03*
X159906Y556382D03*
X169906D03*
X179906D03*
X189906D03*
X199906D03*
X209906D03*
X159906Y546382D03*
X169906D03*
X179906D03*
X189906D03*
X199906D03*
X209906D03*
X159906Y536382D03*
X169906D03*
X179906D03*
X189906D03*
X199906D03*
X209906D03*
G54D26*
X743504Y310630D03*
X792717D03*
X743504Y290945D03*
X792717D03*
X743504Y255512D03*
X792717D03*
X743504Y235827D03*
X792717D03*
X743504Y200394D03*
X792717D03*
X743504Y180709D03*
X792717D03*
X743504Y145276D03*
X792717D03*
X743504Y125591D03*
X792717D03*
X680512Y310630D03*
X729724D03*
X680512Y290945D03*
X729724D03*
X680512Y255512D03*
X729724D03*
X680512Y235827D03*
X729724D03*
X680512Y200394D03*
X729724D03*
X680512Y180709D03*
X729724D03*
X680512Y145276D03*
X729724D03*
X680512Y125591D03*
X729724D03*
X617520Y310630D03*
X666732D03*
X617520Y290945D03*
X666732D03*
X617520Y255512D03*
X666732D03*
X617520Y235827D03*
X666732D03*
X617520Y200394D03*
X666732D03*
X617520Y180709D03*
X666732D03*
X617520Y145276D03*
X666732D03*
X617520Y125591D03*
X666732D03*
X554528Y310630D03*
X603740D03*
X554528Y290945D03*
X603740D03*
X554528Y255512D03*
X603740D03*
X554528Y235827D03*
X603740D03*
X554528Y200394D03*
X603740D03*
X554528Y180709D03*
X603740D03*
X554528Y145276D03*
X603740D03*
X554528Y125591D03*
X603740D03*
X458465Y144094D03*
X507677D03*
X458465Y124409D03*
X507677D03*
G54D27*
X752756Y379921D03*
Y439921D03*
X703150Y379921D03*
Y439921D03*
X653543Y379921D03*
Y439921D03*
X603937Y379921D03*
Y439921D03*
X510551Y610000D03*
X477874Y395000D03*
X469252Y314606D03*
X387165Y178228D03*
X340157Y590000D03*
X318268Y178386D03*
X261063Y600000D03*
X252480Y170866D03*
X243031Y489764D03*
X242480Y221299D03*
X237795Y115748D03*
X253110Y315787D03*
X171614Y475630D03*
X155118Y115748D03*
X109961Y489764D03*
X219906Y586382D03*
Y576382D03*
Y566382D03*
Y556382D03*
Y546382D03*
G54D28*
X128740Y380709D03*
Y281496D03*
X115748Y115748D03*
Y615748D03*
X812598D03*
Y115748D03*
G54D29*
X200000Y200000D03*
X120866D03*
G54D30*
X115748Y123622D03*
X121315Y121315D03*
X123622Y115748D03*
X121315Y110181D03*
X115748Y107874D03*
X110181Y110181D03*
X107874Y115748D03*
X110181Y121315D03*
X115748Y623622D03*
X121315Y621315D03*
X123622Y615748D03*
X121315Y610181D03*
X115748Y607874D03*
X110181Y610181D03*
X107874Y615748D03*
X110181Y621315D03*
X812598Y623622D03*
X818165Y621315D03*
X820472Y615748D03*
X818165Y610181D03*
X812598Y607874D03*
X807031Y610181D03*
X804724Y615748D03*
X807031Y621315D03*
X812598Y123622D03*
X818165Y121315D03*
X820472Y115748D03*
X818165Y110181D03*
X812598Y107874D03*
X807031Y110181D03*
X804724Y115748D03*
X807031Y121315D03*
X0Y0D02*
M02*
